# This file uses centimeters as units for non-parametric coordinates.

g default
v -0.550225 0.669785 0.199082
v 0.173467 0.669785 0.199082
v -0.550225 0.669785 -0.199082
v 0.173467 0.669785 -0.199082
v -0.550897 0.578540 -0.199082
v 0.173467 0.484880 -0.199082
v 0.173467 0.484880 0.199082
v -0.550897 0.578540 0.199082
v -0.249439 0.298312 -0.199082
v 0.073780 0.292290 -0.199082
v 0.073780 0.292290 0.199082
v -0.249439 0.298312 0.199082
v -0.353394 0.098947 -0.199082
v 0.133043 0.098947 -0.199082
v 0.133043 0.098947 0.199082
v -0.353394 0.098947 0.199082
v 0.180071 0.429208 0.199082
v 0.180071 0.429208 -0.199082
v -0.260861 0.442093 -0.199082
v -0.260861 0.442093 0.199082
v 0.562643 0.669086 -0.029167
v 0.562643 0.669086 0.033381
v 0.510931 0.562836 -0.029167
v 0.510931 0.562836 0.033381
v 0.463132 0.540456 -0.031265
v 0.463132 0.540456 0.035479
v 0.391212 0.669467 0.096017
v 0.391212 0.669467 -0.091803
v 0.361325 0.529934 -0.091803
v 0.340876 0.498941 -0.091803
v 0.340876 0.498941 0.096017
v 0.361325 0.529934 0.096017
v -0.376936 0.077984 -0.255143
v 0.271282 0.077984 -0.255143
v 0.271282 0.077984 0.255143
v -0.376936 0.077984 0.255143
v -0.376936 0.000000 -0.255143
v 0.271282 0.000000 -0.255143
v 0.271282 0.000000 0.255143
v -0.376936 0.000000 0.255143
vt 0.297955 0.001861
vt 0.297955 0.383616
vt 0.205576 0.256145
vt 0.205576 0.001861
vt 0.183005 0.230973
vt 0.183005 0.001861
vt 0.107159 0.224948
vt 0.107159 0.055841
vt 0.001992 0.279785
vt 0.001992 0.025852
vt 0.520156 0.001861
vt 0.520156 0.383616
vt 0.310121 0.383616
vt 0.310121 0.001861
vt 0.531615 0.383616
vt 0.531615 0.001861
vt 0.623994 0.001861
vt 0.623994 0.256145
vt 0.646565 0.001861
vt 0.646565 0.230973
vt 0.722411 0.055841
vt 0.722411 0.224948
vt 0.827578 0.025852
vt 0.827578 0.279785
vt 0.728827 0.729549
vt 0.728827 0.387607
vt 0.998008 0.387607
vt 0.998008 0.729549
vt 0.495704 0.721330
vt 0.447375 0.591191
vt 0.241068 0.683570
vt 0.438809 0.568620
vt 0.375712 0.680736
vt 0.447375 0.492774
vt 0.237340 0.591191
vt 0.237340 0.492774
vt 0.447375 0.387607
vt 0.237340 0.387607
vt 0.091984 0.870815
vt 0.091984 0.660780
vt 0.231003 0.692721
vt 0.256175 0.692721
vt 0.231003 0.902756
vt 0.256175 0.902756
vt 0.164603 0.627215
vt 0.059436 0.627215
vt 0.164603 0.417180
vt 0.048378 0.656788
vt 0.007241 0.656788
vt 0.059436 0.417180
vt 0.048378 0.387607
vt 0.007241 0.387607
vt 0.901727 0.790966
vt 0.891003 0.790966
vt 0.901727 0.745346
vt 0.891003 0.745346
vt 0.901727 0.733540
vt 0.891003 0.733540
vt 0.754758 0.790106
vt 0.817936 0.805871
vt 0.834285 0.816658
vt 0.451082 0.932284
vt 0.273091 0.932284
vt 0.316557 0.817422
vt 0.407616 0.817422
vt 0.356725 0.733540
vt 0.367449 0.733540
vt 0.747060 0.790106
vt 0.683882 0.805871
vt 0.667533 0.816658
vt 0.458242 0.911531
vt 0.458242 0.733540
vt 0.546552 0.777006
vt 0.546552 0.868065
vt 0.557339 0.777006
vt 0.611043 0.817174
vt 0.611043 0.827898
vt 0.557339 0.868065
vt 0.629707 0.817174
vt 0.629707 0.827898
vt 0.693119 0.717130
vt 0.693119 0.463197
vt 0.722692 0.387607
vt 0.722692 0.729549
vt 0.483084 0.463197
vt 0.453511 0.387607
vt 0.483084 0.717130
vt 0.453511 0.729549
vt 0.834390 0.343803
vt 0.834390 0.001861
vt 0.875527 0.001861
vt 0.875527 0.343803
vt 0.043130 0.660780
vt 0.001992 0.660780
vt 0.043130 0.929961
vt 0.001992 0.929961
vt 0.924251 0.001861
vt 0.924251 0.343802
vt 0.883113 0.343802
vt 0.883113 0.001861
vn -0.000000 0.000000 1.000000
vn -0.000000 0.000000 1.000000
vn -0.000000 0.000000 1.000000
vn -0.000000 0.000000 1.000000
vn 0.000000 1.000000 0.000000
vn 0.000000 1.000000 0.000000
vn 0.000000 1.000000 0.000000
vn 0.000000 1.000000 0.000000
vn 0.000000 -1.000000 0.000000
vn 0.000000 -1.000000 0.000000
vn 0.000000 -1.000000 0.000000
vn 0.000000 -1.000000 0.000000
vn -0.999973 0.007358 0.000000
vn -0.999973 0.007358 0.000000
vn -0.999973 0.007358 0.000000
vn -0.999973 0.007358 0.000000
vn 0.000000 0.000000 -1.000000
vn 0.000000 0.000000 -1.000000
vn 0.000000 0.000000 -1.000000
vn 0.000000 0.000000 -1.000000
vn 0.470885 -0.043377 -0.881128
vn 0.470885 -0.043377 -0.881128
vn 0.470885 -0.043377 -0.881128
vn 0.470885 -0.043377 -0.881128
vn 0.000000 0.000000 -1.000000
vn 0.000000 0.000000 -1.000000
vn 0.000000 0.000000 -1.000000
vn 0.000000 0.000000 -1.000000
vn 0.542660 -0.086687 -0.835467
vn 0.542660 -0.086687 -0.835467
vn 0.542660 -0.086687 -0.835468
vn 0.542660 -0.086687 -0.835467
vn -0.000000 0.000000 1.000000
vn -0.000000 0.000000 1.000000
vn -0.000000 0.000000 1.000000
vn -0.000000 0.000000 1.000000
vn -0.425693 -0.904868 0.000000
vn -0.425693 -0.904868 0.000000
vn -0.425693 -0.904868 0.000000
vn -0.425693 -0.904868 0.000000
vn 0.000000 0.000000 -1.000000
vn 0.000000 0.000000 -1.000000
vn 0.000000 0.000000 -1.000000
vn 0.000000 0.000000 -1.000000
vn 0.789912 -0.613220 0.000000
vn 0.789912 -0.613220 0.000000
vn 0.789912 -0.613220 0.000000
vn 0.789912 -0.613220 0.000000
vn 0.000000 0.000000 1.000000
vn 0.000000 0.000000 1.000000
vn 0.000000 0.000000 1.000000
vn 0.000000 0.000000 1.000000
vn -0.886696 0.462352 0.000000
vn -0.886696 0.462352 0.000000
vn -0.886696 0.462352 0.000000
vn -0.886696 0.462352 0.000000
vn -0.000000 0.000000 -1.000000
vn -0.000000 0.000000 -1.000000
vn -0.000000 0.000000 -1.000000
vn -0.000000 0.000000 -1.000000
vn 0.956094 0.293060 0.000000
vn 0.956094 0.293060 0.000000
vn 0.956094 0.293060 0.000000
vn 0.956094 0.293060 0.000000
vn 0.899160 -0.437620 0.000000
vn 0.899160 -0.437620 0.000000
vn 0.899160 -0.437620 0.000000
vn 0.899160 -0.437620 0.000000
vn 0.424029 -0.905649 0.000000
vn 0.424029 -0.905649 0.000000
vn 0.424029 -0.905649 0.000000
vn 0.424029 -0.905649 0.000000
vn -0.996859 -0.079193 0.000000
vn -0.996859 -0.079193 0.000000
vn -0.996859 -0.079193 0.000000
vn -0.996859 -0.079193 0.000000
vn -0.000000 0.000000 1.000000
vn -0.000000 0.000000 1.000000
vn -0.000000 0.000000 1.000000
vn -0.000000 0.000000 1.000000
vn 0.001458 0.999999 0.000000
vn 0.001458 0.999999 0.000000
vn 0.001458 0.999999 0.000000
vn 0.001458 0.999999 0.000000
vn 0.456336 -0.042036 0.888814
vn 0.456336 -0.042036 0.888814
vn 0.456336 -0.042036 0.888814
vn 0.456336 -0.042036 0.888814
vn 0.527515 -0.084268 0.845356
vn 0.527515 -0.084268 0.845356
vn 0.527515 -0.084268 0.845356
vn 0.527515 -0.084268 0.845356
vn 0.397853 -0.917449 0.000000
vn 0.397853 -0.917449 0.000000
vn 0.397853 -0.917449 0.000000
vn 0.397853 -0.917449 0.000000
vn 0.002227 0.999998 0.000000
vn 0.002227 0.999998 0.000000
vn 0.002227 0.999998 0.000000
vn 0.002227 0.999997 0.000000
vn 0.371560 -0.123355 -0.920177
vn 0.371560 -0.123355 -0.920177
vn 0.371560 -0.123355 -0.920177
vn 0.371560 -0.123355 -0.920177
vn 0.463735 -0.566185 -0.681458
vn 0.463735 -0.566185 -0.681458
vn 0.463735 -0.566185 -0.681458
vn 0.463735 -0.566185 -0.681458
vn 0.321541 -0.946896 0.000000
vn 0.321541 -0.946896 0.000000
vn 0.321541 -0.946896 0.000000
vn 0.321541 -0.946896 0.000000
vn 0.463734 -0.566186 0.681458
vn 0.463734 -0.566186 0.681458
vn 0.463734 -0.566186 0.681458
vn 0.463734 -0.566186 0.681458
vn 0.371561 -0.123355 0.920177
vn 0.371561 -0.123355 0.920177
vn 0.371561 -0.123355 0.920177
vn 0.371561 -0.123355 0.920177
vn 0.000000 0.936660 -0.350241
vn 0.000000 0.936660 -0.350241
vn 0.000000 0.936660 -0.350241
vn 0.000000 0.936660 -0.350241
vn 0.149928 0.988697 0.000000
vn 0.149928 0.988697 0.000000
vn 0.149928 0.988697 0.000000
vn 0.149928 0.988697 0.000000
vn 0.000000 0.936660 0.350241
vn 0.000000 0.936660 0.350241
vn 0.000000 0.936660 0.350241
vn 0.000000 0.936660 0.350241
vn -0.665015 0.746830 0.000000
vn -0.665015 0.746830 0.000000
vn -0.665015 0.746830 0.000000
vn -0.665015 0.746830 0.000000
vn 0.000000 0.000000 -1.000000
vn 0.000000 0.000000 -1.000000
vn 0.000000 0.000000 -1.000000
vn 0.000000 0.000000 -1.000000
vn 1.000000 0.000000 0.000000
vn 1.000000 0.000000 0.000000
vn 1.000000 0.000000 0.000000
vn 1.000000 0.000000 0.000000
vn 0.000000 0.000000 1.000000
vn 0.000000 0.000000 1.000000
vn 0.000000 0.000000 1.000000
vn 0.000000 0.000000 1.000000
vn -1.000000 0.000000 0.000000
vn -1.000000 0.000000 0.000000
vn -1.000000 0.000000 0.000000
vn -1.000000 0.000000 0.000000
g pCube11
f 2/1/1 1/2/2 8/3/3 7/4/4
f 4/11/5 3/12/6 1/13/7 2/14/8
f 37/25/9 38/26/10 39/27/11 40/28/12
f 8/43/13 1/40/14 3/39/15 5/41/16
f 6/17/17 5/18/18 3/15/19 4/16/20
f 6/30/21 4/29/22 28/59/23 29/60/24
f 5/18/25 6/17/26 18/19/27 19/20/28
f 18/32/29 6/30/30 29/60/31 30/61/32
f 7/4/33 8/3/34 20/5/35 17/6/36
f 8/43/37 5/41/38 19/42/39 20/44/40
f 10/21/41 9/22/42 19/20/43 18/19/44
f 11/36/45 10/34/46 18/32/47 17/33/48
f 11/8/49 12/7/50 16/9/51 15/10/52
f 9/45/53 13/46/54 16/50/55 12/47/56
f 10/21/57 14/23/58 13/24/59 9/22/60
f 14/37/61 10/34/62 11/36/63 15/38/64
f 24/56/65 23/55/66 21/53/67 22/54/68
f 25/57/69 23/55/70 24/56/71 26/58/72
f 19/42/73 9/45/74 12/47/75 20/44/76
f 11/8/77 17/6/78 20/5/79 12/7/80
f 4/62/81 2/63/82 27/64/83 28/65/84
f 27/68/85 2/31/86 7/35/87 32/69/88
f 7/35/89 17/33/90 31/70/91 32/69/92
f 17/71/93 18/72/94 30/73/95 31/74/96
f 21/67/97 28/65/98 27/64/99 22/66/100
f 23/55/101 29/60/102 28/59/103 21/53/104
f 25/76/105 30/73/106 29/75/107 23/79/108
f 26/77/109 31/74/110 30/73/111 25/76/112
f 24/80/113 32/78/114 31/74/115 26/77/116
f 22/54/117 27/68/118 32/69/119 24/56/120
f 13/81/121 14/82/122 34/83/123 33/84/124
f 34/83/125 14/82/126 15/85/127 35/86/128
f 15/85/129 16/87/130 36/88/131 35/86/132
f 36/51/133 16/50/134 13/46/135 33/48/136
f 33/89/137 34/90/138 38/91/139 37/92/140
f 38/94/141 34/93/142 35/95/143 39/96/144
f 35/97/145 36/98/146 40/99/147 39/100/148
f 37/49/149 40/52/150 36/51/151 33/48/152
