# This file uses centimeters as units for non-parametric coordinates.

g default
v 0.449551 0.000000 -0.449551
v -0.000000 0.000000 -0.635762
v -0.449551 0.000000 -0.449551
v -0.635762 0.000000 0.000000
v -0.449551 0.000000 0.449551
v -0.000000 0.000000 0.635762
v 0.449551 0.000000 0.449551
v 0.635762 0.000000 0.000000
v 0.441674 1.376008 -0.441674
v -0.000000 1.376008 -0.624621
v -0.441674 1.376008 -0.441674
v -0.624621 1.376008 -0.000000
v -0.441674 1.376008 0.441674
v -0.000000 1.376008 0.624621
v 0.441674 1.376008 0.441674
v 0.624621 1.376008 -0.000000
v -0.000000 0.000000 0.000000
v -0.000000 1.376008 0.000000
v -0.499453 0.693625 0.499453
v -0.706333 0.693625 -0.000000
v -0.499453 0.693625 -0.499453
v -0.000000 0.693625 -0.706333
v 0.499453 0.693625 -0.499453
v 0.706333 0.693625 -0.000000
v 0.499453 0.693625 0.499453
v -0.000000 0.693625 0.706333
vt 0.610485 0.045765
vt 0.500000 0.000000
vt 0.389515 0.045765
vt 0.343750 0.156250
vt 0.389515 0.266735
vt 0.500000 0.312500
vt 0.610485 0.266735
vt 0.656250 0.156250
vt 0.375000 0.312500
vt 0.406250 0.312500
vt 0.437500 0.312500
vt 0.468750 0.312500
vt 0.500000 0.312500
vt 0.531250 0.312500
vt 0.562500 0.312500
vt 0.593750 0.312500
vt 0.625000 0.312500
vt 0.375000 0.688440
vt 0.406250 0.688440
vt 0.437500 0.688440
vt 0.468750 0.688440
vt 0.500000 0.688440
vt 0.531250 0.688440
vt 0.562500 0.688440
vt 0.593750 0.688440
vt 0.625000 0.688440
vt 0.610485 0.733265
vt 0.500000 0.687500
vt 0.389515 0.733265
vt 0.343750 0.843750
vt 0.389515 0.954235
vt 0.500000 1.000000
vt 0.610485 0.954235
vt 0.656250 0.843750
vt 0.500000 0.150000
vt 0.500000 0.837500
vt 0.500000 0.502006
vt 0.468750 0.502006
vt 0.437500 0.502006
vt 0.406250 0.502006
vt 0.625000 0.502006
vt 0.375000 0.502006
vt 0.593750 0.502006
vt 0.562500 0.502006
vt 0.531250 0.502006
vn 0.381004 -0.093586 -0.919825
vn 0.381004 -0.093586 -0.919825
vn 0.382674 0.006827 -0.923858
vn 0.382674 0.006827 -0.923858
vn -0.381004 -0.093586 -0.919825
vn -0.381004 -0.093586 -0.919825
vn -0.382674 0.006827 -0.923858
vn -0.382674 0.006827 -0.923858
vn -0.919825 -0.093586 -0.381004
vn -0.919825 -0.093586 -0.381004
vn -0.923858 0.006827 -0.382674
vn -0.923858 0.006827 -0.382674
vn -0.919825 -0.093586 0.381004
vn -0.919825 -0.093586 0.381004
vn -0.923858 0.006827 0.382674
vn -0.923858 0.006827 0.382674
vn -0.381004 -0.093586 0.919825
vn -0.381004 -0.093586 0.919825
vn -0.382675 0.006827 0.923858
vn -0.382675 0.006827 0.923858
vn 0.381004 -0.093586 0.919825
vn 0.381004 -0.093586 0.919825
vn 0.382675 0.006827 0.923858
vn 0.382675 0.006827 0.923858
vn 0.919825 -0.093586 0.381004
vn 0.919825 -0.093586 0.381004
vn 0.923858 0.006827 0.382675
vn 0.923858 0.006827 0.382675
vn 0.919825 -0.093586 -0.381004
vn 0.919825 -0.093586 -0.381004
vn 0.923858 0.006827 -0.382675
vn 0.923858 0.006827 -0.382675
vn 0.000000 -1.000000 0.000000
vn 0.000000 -1.000000 0.000000
vn 0.000000 -1.000000 0.000000
vn 0.000000 -1.000000 0.000000
vn 0.000000 -1.000000 0.000000
vn 0.000000 -1.000000 0.000000
vn 0.000000 -1.000000 0.000000
vn 0.000000 -1.000000 0.000000
vn 0.000000 -1.000000 0.000000
vn 0.000000 1.000000 0.000000
vn 0.000000 1.000000 -0.000000
vn 0.000000 1.000000 -0.000000
vn 0.000000 1.000000 -0.000000
vn 0.000000 1.000000 -0.000000
vn 0.000000 1.000000 -0.000000
vn 0.000000 1.000000 -0.000000
vn 0.000000 1.000000 -0.000000
vn 0.000000 1.000000 -0.000000
vn -0.918277 0.109959 0.380363
vn -0.918277 0.109959 0.380363
vn -0.918277 0.109959 -0.380363
vn -0.918277 0.109959 -0.380363
vn -0.380363 0.109959 -0.918277
vn -0.380363 0.109959 -0.918277
vn 0.380363 0.109959 -0.918277
vn 0.380363 0.109959 -0.918277
vn 0.918277 0.109959 -0.380363
vn 0.918277 0.109959 -0.380363
vn 0.918277 0.109959 0.380363
vn 0.918277 0.109959 0.380363
vn 0.380363 0.109959 0.918277
vn 0.380363 0.109959 0.918277
vn -0.380363 0.109959 0.918277
vn -0.380363 0.109959 0.918277
g pCylinder14
f 1/9/1 2/10/2 22/40/3 23/42/4
f 2/10/5 3/11/6 21/39/7 22/40/8
f 3/11/9 4/12/10 20/38/11 21/39/12
f 4/12/13 5/13/14 19/37/15 20/38/16
f 5/13/17 6/14/18 26/45/19 19/37/20
f 6/14/21 7/15/22 25/44/23 26/45/24
f 7/15/25 8/16/26 24/43/27 25/44/28
f 8/16/29 1/17/30 23/41/31 24/43/32
f 2/2/33 1/1/34 17/35/35
f 3/3/36 2/2/33 17/35/35
f 4/4/37 3/3/36 17/35/35
f 5/5/38 4/4/37 17/35/35
f 6/6/39 5/5/38 17/35/35
f 7/7/40 6/6/39 17/35/35
f 8/8/41 7/7/40 17/35/35
f 1/1/34 8/8/41 17/35/35
f 9/33/42 10/32/43 18/36/44
f 10/32/43 11/31/45 18/36/44
f 11/31/45 12/30/46 18/36/44
f 12/30/46 13/29/47 18/36/44
f 13/29/47 14/28/48 18/36/44
f 14/28/48 15/27/49 18/36/44
f 15/27/49 16/34/50 18/36/44
f 16/34/50 9/33/42 18/36/44
f 20/38/16 19/37/15 13/22/51 12/21/52
f 21/39/12 20/38/11 12/21/53 11/20/54
f 22/40/8 21/39/7 11/20/55 10/19/56
f 23/42/4 22/40/3 10/19/57 9/18/58
f 24/43/32 23/41/31 9/26/59 16/25/60
f 25/44/28 24/43/27 16/25/61 15/24/62
f 26/45/24 25/44/23 15/24/63 14/23/64
f 19/37/20 26/45/19 14/23/65 13/22/66
