# This file uses centimeters as units for non-parametric coordinates.

g default
v 0.074874 0.648536 -0.043631
v -0.074874 0.648536 -0.043631
v -0.102587 0.648536 -0.000000
v -0.074874 0.648536 0.043631
v 0.074874 0.648536 0.043631
v 0.102587 0.648536 -0.000000
v 0.025190 2.061220 -0.043631
v -0.025190 2.061220 -0.043631
v -0.050380 2.061220 -0.000000
v -0.025190 2.061220 0.043631
v 0.025190 2.061220 0.043631
v 0.050380 2.061220 0.000000
v 0.000000 2.061220 0.000000
v 0.341589 0.000000 -0.082254
v -0.341589 0.000000 -0.082254
v 0.000000 0.000000 0.000000
v -0.468021 0.000000 -0.000000
v -0.341589 0.000000 0.082254
v 0.341589 0.000000 0.082254
v 0.468021 0.000000 0.000000
vt 0.578125 0.020934
vt 0.421875 0.020934
vt 0.343750 0.156250
vt 0.421875 0.291566
vt 0.578125 0.291566
vt 0.656250 0.156250
vt 0.375000 0.312500
vt 0.416667 0.312500
vt 0.458333 0.312500
vt 0.500000 0.312500
vt 0.541667 0.312500
vt 0.583333 0.312500
vt 0.625000 0.312500
vt 0.375000 0.688440
vt 0.416667 0.688440
vt 0.458333 0.688440
vt 0.500000 0.688440
vt 0.541667 0.688440
vt 0.583333 0.688440
vt 0.625000 0.688440
vt 0.578125 0.708434
vt 0.421875 0.708434
vt 0.343750 0.843750
vt 0.421875 0.979066
vt 0.578125 0.979066
vt 0.656250 0.843750
vt 0.500000 0.150000
vt 0.500000 0.837500
vt 0.421875 0.020934
vt 0.578125 0.020934
vt 0.343750 0.156250
vt 0.421875 0.291566
vt 0.578125 0.291566
vt 0.656250 0.156250
vn 0.000000 0.000000 -1.000000
vn 0.000000 0.000000 -1.000000
vn 0.000000 0.000000 -1.000000
vn 0.000000 0.000000 -1.000000
vn -0.854716 0.030823 -0.518181
vn -0.854715 0.030823 -0.518181
vn -0.854715 0.030823 -0.518181
vn -0.854716 0.030823 -0.518181
vn -0.854716 0.030823 0.518180
vn -0.854716 0.030823 0.518180
vn -0.854716 0.030823 0.518180
vn -0.854716 0.030823 0.518180
vn 0.000000 -0.000000 1.000000
vn 0.000000 -0.000000 1.000000
vn 0.000000 -0.000000 1.000000
vn 0.000000 -0.000000 1.000000
vn 0.854715 0.030823 0.518181
vn 0.854715 0.030823 0.518181
vn 0.854715 0.030823 0.518181
vn 0.854715 0.030823 0.518181
vn 0.854716 0.030823 -0.518181
vn 0.854716 0.030823 -0.518181
vn 0.854716 0.030823 -0.518181
vn 0.854716 0.030823 -0.518181
vn 0.000000 -1.000000 0.000000
vn 0.000000 -1.000000 0.000000
vn 0.000000 -1.000000 0.000000
vn 0.000000 -1.000000 0.000000
vn 0.000000 -1.000000 0.000000
vn 0.000000 -1.000000 0.000000
vn 0.000000 -1.000000 0.000000
vn 0.000000 1.000000 0.000000
vn 0.000000 1.000000 0.000000
vn 0.000000 1.000000 0.000000
vn 0.000000 1.000000 0.000000
vn 0.000000 1.000000 0.000000
vn 0.000000 1.000000 0.000000
vn 0.000000 1.000000 0.000000
vn 0.000000 0.059449 -0.998231
vn 0.000000 0.059449 -0.998231
vn 0.000000 0.059449 -0.998231
vn 0.000000 0.059449 -0.998231
vn -0.600433 0.314524 -0.735225
vn -0.600432 0.314524 -0.735225
vn -0.600432 0.314524 -0.735225
vn -0.600432 0.314524 -0.735225
vn -0.600433 0.314524 0.735225
vn -0.600433 0.314524 0.735225
vn -0.600433 0.314524 0.735225
vn -0.600433 0.314524 0.735225
vn 0.000000 0.059449 0.998231
vn 0.000000 0.059449 0.998231
vn 0.000000 0.059449 0.998231
vn 0.000000 0.059449 0.998231
vn 0.600432 0.314523 0.735225
vn 0.600432 0.314523 0.735225
vn 0.600432 0.314523 0.735225
vn 0.600432 0.314523 0.735225
vn 0.600433 0.314524 -0.735225
vn 0.600433 0.314524 -0.735224
vn 0.600433 0.314524 -0.735224
vn 0.600433 0.314524 -0.735225
g pCylinder11
f 1/7/1 2/8/2 8/15/3 7/14/4
f 2/8/5 3/9/6 9/16/7 8/15/8
f 3/9/9 4/10/10 10/17/11 9/16/12
f 4/10/13 5/11/14 11/18/15 10/17/16
f 5/11/17 6/12/18 12/19/19 11/18/20
f 6/12/21 1/13/22 7/20/23 12/19/24
f 15/29/25 14/30/26 16/27/27
f 17/31/28 15/29/25 16/27/27
f 18/32/29 17/31/28 16/27/27
f 19/33/30 18/32/29 16/27/27
f 20/34/31 19/33/30 16/27/27
f 14/30/26 20/34/31 16/27/27
f 7/25/32 8/24/33 13/28/34
f 8/24/33 9/23/35 13/28/34
f 9/23/35 10/22/36 13/28/34
f 10/22/36 11/21/37 13/28/34
f 11/21/37 12/26/38 13/28/34
f 12/26/38 7/25/32 13/28/34
f 2/2/39 1/1/40 14/30/41 15/29/42
f 3/3/43 2/2/44 15/29/45 17/31/46
f 4/4/47 3/3/48 17/31/49 18/32/50
f 5/5/51 4/4/52 18/32/53 19/33/54
f 6/6/55 5/5/56 19/33/57 20/34/58
f 1/1/59 6/6/60 20/34/61 14/30/62
