# This file uses centimeters as units for non-parametric coordinates.

g default
v 0.118038 0.552829 -0.787130
v 0.000000 0.609522 -0.787130
v -0.118038 0.552829 -0.787130
v -0.166930 0.415958 -0.787130
v -0.118038 0.279087 -0.787130
v 0.000000 0.222393 -0.787130
v 0.118038 0.279087 -0.787130
v 0.166931 0.415958 -0.787130
v 0.217049 0.599024 -0.695092
v 0.000000 0.682522 -0.695092
v -0.217049 0.599024 -0.695092
v -0.306953 0.397442 -0.695092
v -0.217049 0.195860 -0.695092
v 0.000000 0.112362 -0.695092
v 0.217049 0.195860 -0.695092
v 0.306953 0.397442 -0.695092
v 0.319883 0.679320 -0.459310
v -0.000000 0.796895 -0.459310
v -0.319883 0.679320 -0.459310
v -0.452382 0.395470 -0.459310
v -0.319883 0.111619 -0.459311
v -0.000000 -0.005955 -0.459310
v 0.319883 0.111619 -0.459311
v 0.452382 0.395470 -0.459311
v 0.304834 0.637977 -0.124005
v 0.000000 0.755062 -0.124005
v -0.304834 0.637977 -0.124005
v -0.431100 0.355308 -0.124005
v -0.304834 0.072640 -0.124005
v 0.000000 -0.000000 -0.124005
v 0.304834 0.072640 -0.124005
v 0.431100 0.355308 -0.124005
v 0.278697 0.576293 0.170091
v 0.000000 0.689221 0.170091
v -0.278697 0.576293 0.170091
v -0.394137 0.339360 0.170091
v -0.278697 0.066729 0.170091
v 0.000000 0.000000 0.170090
v 0.278697 0.066729 0.170091
v 0.394137 0.339360 0.170091
v 0.207543 0.556674 0.419413
v 0.000000 0.639232 0.419413
v -0.207543 0.556674 0.419413
v -0.293510 0.357360 0.419413
v -0.207543 0.158046 0.419413
v 0.000000 0.075488 0.419413
v 0.207543 0.158046 0.419413
v 0.293510 0.357360 0.419413
v 0.151185 0.495470 0.582950
v -0.000000 0.541173 0.582950
v -0.151185 0.495470 0.582950
v -0.213807 0.385133 0.582950
v -0.151185 0.274796 0.582950
v -0.000000 0.229093 0.582950
v 0.151185 0.274796 0.582950
v 0.213807 0.385133 0.582950
v 0.000000 0.383052 -0.845403
v -0.000000 0.401544 0.660289
vt 0.000000 0.125000
vt 0.125000 0.125000
vt 0.250000 0.125000
vt 0.375000 0.125000
vt 0.500000 0.125000
vt 0.625000 0.125000
vt 0.750000 0.125000
vt 0.875000 0.125000
vt 1.000000 0.125000
vt 0.000000 0.250000
vt 0.125000 0.250000
vt 0.250000 0.250000
vt 0.375000 0.250000
vt 0.500000 0.250000
vt 0.625000 0.250000
vt 0.750000 0.250000
vt 0.875000 0.250000
vt 1.000000 0.250000
vt 0.000000 0.375000
vt 0.125000 0.375000
vt 0.250000 0.375000
vt 0.375000 0.375000
vt 0.500000 0.375000
vt 0.625000 0.375000
vt 0.750000 0.375000
vt 0.875000 0.375000
vt 1.000000 0.375000
vt 0.000000 0.500000
vt 0.125000 0.500000
vt 0.250000 0.500000
vt 0.375000 0.500000
vt 0.500000 0.500000
vt 0.625000 0.500000
vt 0.750000 0.500000
vt 0.875000 0.500000
vt 1.000000 0.500000
vt 0.000000 0.625000
vt 0.125000 0.625000
vt 0.250000 0.625000
vt 0.375000 0.625000
vt 0.500000 0.625000
vt 0.625000 0.625000
vt 0.750000 0.625000
vt 0.875000 0.625000
vt 1.000000 0.625000
vt 0.000000 0.750000
vt 0.125000 0.750000
vt 0.250000 0.750000
vt 0.375000 0.750000
vt 0.500000 0.750000
vt 0.625000 0.750000
vt 0.750000 0.750000
vt 0.875000 0.750000
vt 1.000000 0.750000
vt 0.000000 0.875000
vt 0.125000 0.875000
vt 0.250000 0.875000
vt 0.375000 0.875000
vt 0.500000 0.875000
vt 0.625000 0.875000
vt 0.750000 0.875000
vt 0.875000 0.875000
vt 1.000000 0.875000
vt 0.500000 0.000000
vt 0.500000 1.000000
vn 0.300653 0.718622 -0.627049
vn 0.300653 0.718622 -0.627049
vn 0.300653 0.718622 -0.627049
vn 0.300653 0.718622 -0.627049
vn -0.300653 0.718622 -0.627049
vn -0.300653 0.718622 -0.627049
vn -0.300653 0.718622 -0.627049
vn -0.300653 0.718622 -0.627049
vn -0.575588 0.236045 -0.782931
vn -0.575588 0.236045 -0.782931
vn -0.575588 0.236045 -0.782932
vn -0.575588 0.236045 -0.782932
vn -0.534943 -0.219376 -0.815911
vn -0.534943 -0.219376 -0.815911
vn -0.534943 -0.219376 -0.815911
vn -0.534943 -0.219376 -0.815911
vn -0.250008 -0.597567 -0.761847
vn -0.250008 -0.597567 -0.761847
vn -0.250008 -0.597567 -0.761847
vn -0.250008 -0.597567 -0.761847
vn 0.250008 -0.597567 -0.761847
vn 0.250008 -0.597567 -0.761847
vn 0.250008 -0.597567 -0.761847
vn 0.250008 -0.597567 -0.761847
vn 0.534943 -0.219377 -0.815910
vn 0.534943 -0.219377 -0.815910
vn 0.534943 -0.219377 -0.815910
vn 0.534943 -0.219377 -0.815910
vn 0.575588 0.236045 -0.782932
vn 0.575588 0.236045 -0.782932
vn 0.575588 0.236045 -0.782932
vn 0.575588 0.236045 -0.782932
vn 0.318236 0.849795 -0.420207
vn 0.318236 0.849795 -0.420207
vn 0.318236 0.849795 -0.420207
vn 0.318236 0.849795 -0.420207
vn -0.318236 0.849795 -0.420207
vn -0.318236 0.849795 -0.420207
vn -0.318236 0.849795 -0.420207
vn -0.318236 0.849795 -0.420207
vn -0.797327 0.365301 -0.480442
vn -0.797327 0.365301 -0.480442
vn -0.797327 0.365301 -0.480442
vn -0.797327 0.365301 -0.480442
vn -0.794981 -0.364226 -0.485123
vn -0.794981 -0.364226 -0.485123
vn -0.794981 -0.364226 -0.485123
vn -0.794981 -0.364226 -0.485123
vn -0.316319 -0.844679 -0.431810
vn -0.316319 -0.844679 -0.431810
vn -0.316319 -0.844679 -0.431810
vn -0.316319 -0.844679 -0.431810
vn 0.316319 -0.844679 -0.431810
vn 0.316319 -0.844679 -0.431810
vn 0.316319 -0.844679 -0.431810
vn 0.316319 -0.844679 -0.431810
vn 0.794981 -0.364226 -0.485123
vn 0.794981 -0.364226 -0.485123
vn 0.794981 -0.364226 -0.485123
vn 0.794981 -0.364226 -0.485123
vn 0.797327 0.365301 -0.480442
vn 0.797327 0.365301 -0.480442
vn 0.797327 0.365301 -0.480442
vn 0.797327 0.365301 -0.480442
vn 0.348965 0.929021 0.123059
vn 0.348965 0.929021 0.123059
vn 0.348965 0.929021 0.123059
vn 0.348965 0.929021 0.123059
vn -0.348965 0.929021 0.123059
vn -0.348965 0.929021 0.123059
vn -0.348965 0.929021 0.123059
vn -0.348965 0.929021 0.123059
vn -0.905110 0.413423 0.099282
vn -0.905110 0.413423 0.099282
vn -0.905110 0.413423 0.099282
vn -0.905110 0.413423 0.099282
vn -0.909604 -0.415476 0.000247
vn -0.909604 -0.415476 0.000247
vn -0.909604 -0.415476 0.000247
vn -0.909604 -0.415476 0.000247
vn -0.291039 -0.955852 -0.040540
vn -0.291039 -0.955852 -0.040540
vn -0.291039 -0.955852 -0.040540
vn -0.291039 -0.955852 -0.040540
vn 0.291039 -0.955852 -0.040540
vn 0.291039 -0.955852 -0.040540
vn 0.291039 -0.955852 -0.040540
vn 0.291039 -0.955852 -0.040540
vn 0.909604 -0.415476 0.000247
vn 0.909604 -0.415476 0.000247
vn 0.909604 -0.415476 0.000247
vn 0.909604 -0.415476 0.000247
vn 0.905110 0.413423 0.099282
vn 0.905110 0.413423 0.099282
vn 0.905110 0.413423 0.099282
vn 0.905110 0.413423 0.099282
vn 0.358298 0.908986 0.212995
vn 0.358298 0.908986 0.212995
vn 0.358298 0.908986 0.212995
vn 0.358298 0.908986 0.212995
vn -0.358298 0.908986 0.212995
vn -0.358298 0.908986 0.212995
vn -0.358298 0.908986 0.212995
vn -0.358298 0.908986 0.212996
vn -0.896279 0.416928 0.151178
vn -0.896279 0.416928 0.151178
vn -0.896279 0.416928 0.151178
vn -0.896279 0.416928 0.151178
vn -0.913724 -0.397719 0.083241
vn -0.913724 -0.397719 0.083241
vn -0.913724 -0.397719 0.083241
vn -0.913724 -0.397719 0.083241
vn -0.232303 -0.972643 0.000548
vn -0.232303 -0.972643 0.000548
vn -0.232303 -0.972643 0.000548
vn -0.232303 -0.972643 0.000548
vn 0.232303 -0.972643 0.000547
vn 0.232303 -0.972643 0.000547
vn 0.232303 -0.972643 0.000547
vn 0.232303 -0.972643 0.000547
vn 0.913724 -0.397719 0.083241
vn 0.913724 -0.397719 0.083241
vn 0.913724 -0.397719 0.083241
vn 0.913724 -0.397719 0.083241
vn 0.896279 0.416928 0.151179
vn 0.896279 0.416928 0.151179
vn 0.896279 0.416928 0.151179
vn 0.896279 0.416928 0.151179
vn 0.366941 0.912709 0.179770
vn 0.366941 0.912709 0.179770
vn 0.366941 0.912708 0.179770
vn 0.366941 0.912709 0.179770
vn -0.366941 0.912709 0.179770
vn -0.366941 0.912709 0.179770
vn -0.366941 0.912709 0.179770
vn -0.366941 0.912708 0.179770
vn -0.866179 0.399898 0.299693
vn -0.866179 0.399898 0.299693
vn -0.866179 0.399898 0.299693
vn -0.866179 0.399898 0.299693
vn -0.853108 -0.364073 0.373707
vn -0.853108 -0.364073 0.373707
vn -0.853108 -0.364073 0.373707
vn -0.853108 -0.364073 0.373707
vn -0.276005 -0.898972 0.340105
vn -0.276005 -0.898972 0.340105
vn -0.276005 -0.898971 0.340105
vn -0.276005 -0.898971 0.340105
vn 0.276005 -0.898971 0.340105
vn 0.276005 -0.898971 0.340105
vn 0.276005 -0.898971 0.340105
vn 0.276005 -0.898971 0.340105
vn 0.853108 -0.364073 0.373707
vn 0.853108 -0.364073 0.373707
vn 0.853108 -0.364073 0.373707
vn 0.853108 -0.364073 0.373707
vn 0.866179 0.399898 0.299693
vn 0.866179 0.399898 0.299693
vn 0.866179 0.399898 0.299693
vn 0.866179 0.399898 0.299693
vn 0.299127 0.836611 0.458917
vn 0.299127 0.836611 0.458917
vn 0.299127 0.836611 0.458917
vn 0.299127 0.836611 0.458917
vn -0.299127 0.836611 0.458917
vn -0.299127 0.836611 0.458917
vn -0.299127 0.836611 0.458917
vn -0.299127 0.836611 0.458917
vn -0.831449 0.398982 0.386660
vn -0.831449 0.398982 0.386660
vn -0.831449 0.398982 0.386660
vn -0.831449 0.398982 0.386660
vn -0.784539 -0.376471 0.492715
vn -0.784539 -0.376471 0.492715
vn -0.784539 -0.376471 0.492715
vn -0.784539 -0.376471 0.492715
vn -0.258256 -0.722303 0.641547
vn -0.258256 -0.722303 0.641547
vn -0.258256 -0.722303 0.641547
vn -0.258256 -0.722303 0.641547
vn 0.258256 -0.722303 0.641547
vn 0.258256 -0.722303 0.641547
vn 0.258256 -0.722303 0.641547
vn 0.258256 -0.722303 0.641547
vn 0.784539 -0.376471 0.492715
vn 0.784539 -0.376471 0.492715
vn 0.784539 -0.376471 0.492715
vn 0.784539 -0.376471 0.492715
vn 0.831449 0.398982 0.386660
vn 0.831449 0.398982 0.386660
vn 0.831449 0.398982 0.386660
vn 0.831449 0.398982 0.386660
vn 0.118840 0.247427 -0.961591
vn 0.118840 0.247427 -0.961591
vn 0.118840 0.247427 -0.961591
vn -0.118840 0.247427 -0.961591
vn -0.118840 0.247427 -0.961591
vn -0.118840 0.247427 -0.961591
vn -0.308166 0.110083 -0.944942
vn -0.308166 0.110083 -0.944942
vn -0.308166 0.110083 -0.944942
vn -0.348817 -0.124604 -0.928871
vn -0.348817 -0.124604 -0.928870
vn -0.348817 -0.124604 -0.928870
vn -0.161619 -0.336492 -0.927714
vn -0.161619 -0.336492 -0.927714
vn -0.161619 -0.336492 -0.927714
vn 0.161620 -0.336492 -0.927714
vn 0.161620 -0.336492 -0.927714
vn 0.161620 -0.336492 -0.927714
vn 0.348817 -0.124604 -0.928871
vn 0.348817 -0.124604 -0.928871
vn 0.348817 -0.124604 -0.928871
vn 0.308166 0.110083 -0.944942
vn 0.308166 0.110083 -0.944942
vn 0.308166 0.110083 -0.944942
vn 0.144928 0.479415 0.865539
vn 0.144928 0.479415 0.865539
vn 0.144928 0.479415 0.865539
vn -0.144928 0.479415 0.865539
vn -0.144928 0.479415 0.865539
vn -0.144928 0.479415 0.865539
vn -0.346824 0.196843 0.917042
vn -0.346824 0.196843 0.917042
vn -0.346824 0.196843 0.917042
vn -0.321991 -0.182749 0.928937
vn -0.321991 -0.182749 0.928937
vn -0.321991 -0.182749 0.928937
vn -0.122766 -0.406108 0.905541
vn -0.122766 -0.406108 0.905541
vn -0.122766 -0.406108 0.905541
vn 0.122766 -0.406108 0.905541
vn 0.122766 -0.406108 0.905541
vn 0.122766 -0.406108 0.905541
vn 0.321991 -0.182749 0.928937
vn 0.321991 -0.182749 0.928937
vn 0.321991 -0.182749 0.928937
vn 0.346824 0.196843 0.917042
vn 0.346824 0.196844 0.917042
vn 0.346824 0.196843 0.917042
g pSphere23
f 1/1/1 2/2/2 10/11/3 9/10/4
f 2/2/5 3/3/6 11/12/7 10/11/8
f 3/3/9 4/4/10 12/13/11 11/12/12
f 4/4/13 5/5/14 13/14/15 12/13/16
f 5/5/17 6/6/18 14/15/19 13/14/20
f 6/6/21 7/7/22 15/16/23 14/15/24
f 7/7/25 8/8/26 16/17/27 15/16/28
f 8/8/29 1/9/30 9/18/31 16/17/32
f 9/10/33 10/11/34 18/20/35 17/19/36
f 10/11/37 11/12/38 19/21/39 18/20/40
f 11/12/41 12/13/42 20/22/43 19/21/44
f 12/13/45 13/14/46 21/23/47 20/22/48
f 13/14/49 14/15/50 22/24/51 21/23/52
f 14/15/53 15/16/54 23/25/55 22/24/56
f 15/16/57 16/17/58 24/26/59 23/25/60
f 16/17/61 9/18/62 17/27/63 24/26/64
f 17/19/65 18/20/66 26/29/67 25/28/68
f 18/20/69 19/21/70 27/30/71 26/29/72
f 19/21/73 20/22/74 28/31/75 27/30/76
f 20/22/77 21/23/78 29/32/79 28/31/80
f 21/23/81 22/24/82 30/33/83 29/32/84
f 22/24/85 23/25/86 31/34/87 30/33/88
f 23/25/89 24/26/90 32/35/91 31/34/92
f 24/26/93 17/27/94 25/36/95 32/35/96
f 25/28/97 26/29/98 34/38/99 33/37/100
f 26/29/101 27/30/102 35/39/103 34/38/104
f 27/30/105 28/31/106 36/40/107 35/39/108
f 28/31/109 29/32/110 37/41/111 36/40/112
f 29/32/113 30/33/114 38/42/115 37/41/116
f 30/33/117 31/34/118 39/43/119 38/42/120
f 31/34/121 32/35/122 40/44/123 39/43/124
f 32/35/125 25/36/126 33/45/127 40/44/128
f 33/37/129 34/38/130 42/47/131 41/46/132
f 34/38/133 35/39/134 43/48/135 42/47/136
f 35/39/137 36/40/138 44/49/139 43/48/140
f 36/40/141 37/41/142 45/50/143 44/49/144
f 37/41/145 38/42/146 46/51/147 45/50/148
f 38/42/149 39/43/150 47/52/151 46/51/152
f 39/43/153 40/44/154 48/53/155 47/52/156
f 40/44/157 33/45/158 41/54/159 48/53/160
f 41/46/161 42/47/162 50/56/163 49/55/164
f 42/47/165 43/48/166 51/57/167 50/56/168
f 43/48/169 44/49/170 52/58/171 51/57/172
f 44/49/173 45/50/174 53/59/175 52/58/176
f 45/50/177 46/51/178 54/60/179 53/59/180
f 46/51/181 47/52/182 55/61/183 54/60/184
f 47/52/185 48/53/186 56/62/187 55/61/188
f 48/53/189 41/54/190 49/63/191 56/62/192
f 2/2/193 1/1/194 57/64/195
f 3/3/196 2/2/197 57/64/198
f 4/4/199 3/3/200 57/64/201
f 5/5/202 4/4/203 57/64/204
f 6/6/205 5/5/206 57/64/207
f 7/7/208 6/6/209 57/64/210
f 8/8/211 7/7/212 57/64/213
f 1/9/214 8/8/215 57/64/216
f 49/55/217 50/56/218 58/65/219
f 50/56/220 51/57/221 58/65/222
f 51/57/223 52/58/224 58/65/225
f 52/58/226 53/59/227 58/65/228
f 53/59/229 54/60/230 58/65/231
f 54/60/232 55/61/233 58/65/234
f 55/61/235 56/62/236 58/65/237
f 56/62/238 49/63/239 58/65/240
