# This file uses centimeters as units for non-parametric coordinates.

g default
v -0.268591 -0.027583 1.997992
v 0.268592 -0.027583 1.997992
v -0.268592 0.027583 1.997992
v 0.268591 0.027583 1.997992
v -0.110667 0.027583 -1.995547
v 0.110667 0.027583 -1.995547
v -0.110667 -0.027583 -1.995547
v 0.110667 -0.027583 -1.995547
v -0.052361 0.027583 0.184366
v -0.052361 -0.027583 0.184366
v 0.052361 -0.027583 0.184366
v 0.052361 0.027583 0.184366
v -0.235069 0.027583 0.772249
v -0.235069 -0.027583 0.772249
v 0.235069 -0.027583 0.772249
v 0.235069 0.027583 0.772249
v -0.052869 0.027583 -1.839918
v -0.052869 -0.027583 -1.839918
v 0.052869 -0.027583 -1.839918
v 0.052869 0.027583 -1.839918
vt 0.375000 0.000000
vt 0.625000 0.000000
vt 0.375000 0.250000
vt 0.625000 0.250000
vt 0.375000 0.500000
vt 0.625000 0.500000
vt 0.375000 0.750000
vt 0.625000 0.750000
vt 0.375000 1.000000
vt 0.625000 1.000000
vt 0.875000 0.000000
vt 0.875000 0.250000
vt 0.125000 0.000000
vt 0.125000 0.250000
vt 0.261639 0.250000
vt 0.375000 0.363361
vt 0.261639 0.000000
vt 0.375000 0.886639
vt 0.625000 0.886639
vt 0.738361 0.000000
vt 0.625000 0.363361
vt 0.738361 0.250000
vt 0.298753 0.250000
vt 0.375000 0.326247
vt 0.298753 0.000000
vt 0.375000 0.923753
vt 0.625000 0.923753
vt 0.701247 0.000000
vt 0.625000 0.326247
vt 0.701247 0.250000
vt 0.134100 0.250000
vt 0.375000 0.490900
vt 0.134100 0.000000
vt 0.375000 0.759100
vt 0.625000 0.759100
vt 0.865900 0.000000
vt 0.625000 0.490900
vt 0.865900 0.250000
vn 0.000000 0.000000 1.000000
vn 0.000000 0.000000 1.000000
vn 0.000000 0.000000 1.000000
vn 0.000000 0.000000 1.000000
vn 0.000000 1.000000 -0.000000
vn 0.000000 1.000000 -0.000000
vn 0.000000 1.000000 -0.000000
vn 0.000000 1.000000 -0.000000
vn 0.000000 0.000000 -1.000000
vn 0.000000 0.000000 -1.000000
vn 0.000000 0.000000 -1.000000
vn 0.000000 0.000000 -1.000000
vn 0.000000 -1.000000 -0.000000
vn 0.000000 -1.000000 -0.000000
vn 0.000000 -1.000000 -0.000000
vn 0.000000 -1.000000 -0.000000
vn 0.999626 0.000007 -0.027338
vn 0.992968 0.000005 -0.118387
vn 0.992968 0.000005 -0.118387
vn 0.999626 0.000007 -0.027338
vn -0.992968 -0.000006 -0.118387
vn -0.999626 -0.000007 -0.027338
vn -0.999626 -0.000007 -0.027338
vn -0.992968 -0.000006 -0.118387
vn -0.999642 -0.000002 0.026737
vn -0.997576 -0.000002 -0.069581
vn -0.997576 -0.000002 -0.069581
vn -0.999642 -0.000002 0.026737
vn 0.000000 -1.000000 -0.000000
vn 0.000000 -1.000000 -0.000000
vn 0.000000 -1.000000 -0.000000
vn 0.000000 -1.000000 -0.000000
vn 0.997576 0.000002 -0.069581
vn 0.997576 0.000002 -0.069581
vn 0.999642 0.000002 0.026737
vn 0.999642 0.000002 0.026737
vn 0.000000 1.000000 0.000000
vn 0.000000 1.000000 0.000000
vn 0.000000 1.000000 -0.000000
vn 0.000000 1.000000 -0.000000
vn -0.937441 -0.000002 0.348146
vn -0.937441 -0.000002 0.348146
vn 0.000000 -1.000000 -0.000000
vn 0.000000 -1.000000 -0.000000
vn 0.937441 0.000002 0.348146
vn 0.937441 0.000002 0.348146
vn 0.000000 1.000000 -0.000000
vn 0.000000 1.000000 -0.000000
g pCube9
f 1/1/1 2/2/2 4/4/3 3/3/4
f 3/3/5 4/4/6 16/29/7 13/24/8
f 5/5/9 6/6/10 8/8/11 7/7/12
f 14/26/13 15/27/14 2/10/15 1/9/16
f 2/2/17 15/28/18 16/30/19 4/4/20
f 14/25/21 1/1/22 3/3/23 13/23/24
f 18/33/25 10/17/26 9/15/27 17/31/28
f 18/34/29 19/35/30 11/19/31 10/18/32
f 12/22/33 11/20/34 19/36/35 20/38/36
f 9/16/37 12/21/38 20/37/39 17/32/40
f 10/17/26 14/25/21 13/23/24 9/15/27
f 10/18/32 11/19/31 15/27/14 14/26/13
f 16/30/19 15/28/18 11/20/34 12/22/33
f 13/24/8 16/29/7 12/21/38 9/16/37
f 7/13/41 18/33/25 17/31/28 5/14/42
f 7/7/43 8/8/44 19/35/30 18/34/29
f 20/38/36 19/36/35 8/11/45 6/12/46
f 17/32/40 20/37/39 6/6/47 5/5/48
