# This file uses centimeters as units for non-parametric coordinates.

g default
v 0.439630 -0.000000 -0.439630
v -0.000000 -0.000000 -0.621731
v -0.439630 -0.000000 -0.439630
v -0.621731 -0.000000 -0.000000
v -0.439630 -0.000000 0.439630
v -0.000000 -0.000000 0.621731
v 0.439630 -0.000000 0.439630
v 0.621731 -0.000000 -0.000000
v 0.263793 0.945356 -0.263793
v -0.000000 0.945356 -0.373060
v -0.263793 0.945356 -0.263793
v -0.373060 0.945356 -0.000000
v -0.263793 0.945356 0.263793
v -0.000000 0.945356 0.373060
v 0.263793 0.945356 0.263793
v 0.373060 0.945356 -0.000000
v -0.000000 -0.000000 -0.000000
v 0.463765 1.711101 -0.463765
v -0.000000 1.711101 -0.655863
v -0.000000 1.385370 0.000000
v -0.463765 1.711101 -0.463765
v -0.655863 1.711101 -0.000000
v -0.463765 1.711101 0.463765
v -0.000000 1.711101 0.655863
v 0.463765 1.711101 0.463765
v 0.655863 1.711101 -0.000000
vt 0.610485 0.045765
vt 0.500000 0.000000
vt 0.389515 0.045765
vt 0.343750 0.156250
vt 0.389515 0.266735
vt 0.500000 0.312500
vt 0.610485 0.266735
vt 0.656250 0.156250
vt 0.375000 0.312500
vt 0.406250 0.312500
vt 0.437500 0.312500
vt 0.468750 0.312500
vt 0.500000 0.312500
vt 0.531250 0.312500
vt 0.562500 0.312500
vt 0.593750 0.312500
vt 0.625000 0.312500
vt 0.375000 0.688440
vt 0.406250 0.688440
vt 0.437500 0.688440
vt 0.468750 0.688440
vt 0.500000 0.688440
vt 0.531250 0.688440
vt 0.562500 0.688440
vt 0.593750 0.688440
vt 0.625000 0.688440
vt 0.610485 0.733265
vt 0.500000 0.687500
vt 0.389515 0.733265
vt 0.343750 0.843750
vt 0.389515 0.954235
vt 0.500000 1.000000
vt 0.610485 0.954235
vt 0.656250 0.843750
vt 0.500000 0.150000
vt 0.500000 0.837500
vt 0.610485 0.954235
vt 0.500000 1.000000
vt 0.389515 0.954235
vt 0.343750 0.843750
vt 0.389515 0.733265
vt 0.500000 0.687500
vt 0.610485 0.733265
vt 0.656250 0.843750
vn 0.371860 0.236148 -0.897750
vn 0.371860 0.236148 -0.897750
vn 0.371860 0.236148 -0.897750
vn 0.371860 0.236148 -0.897750
vn -0.371860 0.236148 -0.897750
vn -0.371860 0.236148 -0.897750
vn -0.371860 0.236148 -0.897750
vn -0.371860 0.236148 -0.897750
vn -0.897749 0.236148 -0.371860
vn -0.897749 0.236148 -0.371860
vn -0.897750 0.236148 -0.371860
vn -0.897750 0.236148 -0.371860
vn -0.897749 0.236148 0.371860
vn -0.897749 0.236148 0.371860
vn -0.897750 0.236148 0.371860
vn -0.897750 0.236148 0.371860
vn -0.371860 0.236148 0.897750
vn -0.371860 0.236148 0.897750
vn -0.371860 0.236148 0.897749
vn -0.371860 0.236148 0.897749
vn 0.371860 0.236148 0.897750
vn 0.371860 0.236148 0.897750
vn 0.371860 0.236148 0.897750
vn 0.371860 0.236148 0.897750
vn 0.897750 0.236148 0.371860
vn 0.897750 0.236148 0.371860
vn 0.897750 0.236148 0.371860
vn 0.897750 0.236148 0.371860
vn 0.897750 0.236148 -0.371860
vn 0.897750 0.236148 -0.371860
vn 0.897750 0.236148 -0.371860
vn 0.897750 0.236148 -0.371860
vn 0.000000 -1.000000 -0.000000
vn 0.000000 -1.000000 -0.000000
vn 0.000000 -1.000000 -0.000000
vn 0.000000 -1.000000 0.000000
vn 0.000000 -1.000000 0.000000
vn 0.000000 -1.000000 0.000000
vn 0.000000 -1.000000 -0.000000
vn 0.000000 -1.000000 -0.000000
vn 0.000000 -1.000000 -0.000000
vn 0.000000 -1.000000 0.000000
vn 0.000000 -1.000000 0.000000
vn 0.000000 -1.000000 0.000000
vn 0.000000 -1.000000 -0.000000
vn 0.000000 -1.000000 -0.000000
vn 0.000000 -1.000000 -0.000000
vn 0.000000 -1.000000 0.000000
vn 0.000000 -1.000000 0.000000
vn 0.000000 -1.000000 0.000000
vn 0.000000 -1.000000 0.000000
vn 0.000000 -1.000000 0.000000
vn 0.000000 -1.000000 0.000000
vn 0.000000 -1.000000 -0.000000
vn 0.000000 -1.000000 -0.000000
vn 0.000000 -1.000000 -0.000000
vn -0.181195 0.880801 0.437446
vn -0.181195 0.880801 0.437446
vn -0.181195 0.880801 0.437446
vn 0.181195 0.880801 0.437445
vn 0.181195 0.880801 0.437445
vn 0.181195 0.880801 0.437445
vn 0.437445 0.880801 0.181196
vn 0.437445 0.880801 0.181196
vn 0.437445 0.880801 0.181196
vn 0.437445 0.880801 -0.181195
vn 0.437445 0.880801 -0.181195
vn 0.437445 0.880801 -0.181195
vn 0.181195 0.880801 -0.437445
vn 0.181195 0.880801 -0.437445
vn 0.181195 0.880801 -0.437445
vn -0.181195 0.880801 -0.437446
vn -0.181195 0.880801 -0.437446
vn -0.181195 0.880801 -0.437446
vn -0.437445 0.880801 -0.181195
vn -0.437445 0.880801 -0.181195
vn -0.437445 0.880801 -0.181195
vn -0.437445 0.880801 0.181195
vn -0.437445 0.880801 0.181195
vn -0.437445 0.880801 0.181195
vn 0.362181 -0.322925 -0.874383
vn 0.362181 -0.322925 -0.874383
vn 0.362181 -0.322925 -0.874383
vn 0.362181 -0.322925 -0.874383
vn -0.362181 -0.322925 -0.874382
vn -0.362181 -0.322925 -0.874383
vn -0.362181 -0.322925 -0.874383
vn -0.362181 -0.322925 -0.874383
vn -0.874383 -0.322925 -0.362181
vn -0.874383 -0.322925 -0.362181
vn -0.874383 -0.322925 -0.362181
vn -0.874383 -0.322925 -0.362181
vn -0.874383 -0.322925 0.362181
vn -0.874383 -0.322925 0.362181
vn -0.874383 -0.322925 0.362181
vn -0.874383 -0.322925 0.362181
vn -0.362181 -0.322925 0.874383
vn -0.362181 -0.322925 0.874383
vn -0.362181 -0.322925 0.874383
vn -0.362181 -0.322925 0.874383
vn 0.362181 -0.322925 0.874383
vn 0.362181 -0.322925 0.874383
vn 0.362181 -0.322925 0.874383
vn 0.362181 -0.322925 0.874383
vn 0.874383 -0.322925 0.362180
vn 0.874383 -0.322925 0.362180
vn 0.874383 -0.322925 0.362180
vn 0.874383 -0.322925 0.362180
vn 0.874383 -0.322925 -0.362180
vn 0.874383 -0.322925 -0.362180
vn 0.874383 -0.322925 -0.362180
vn 0.874383 -0.322925 -0.362180
g pCylinder15
f 1/9/1 2/10/2 10/19/3 9/18/4
f 2/10/5 3/11/6 11/20/7 10/19/8
f 3/11/9 4/12/10 12/21/11 11/20/12
f 4/12/13 5/13/14 13/22/15 12/21/16
f 5/13/17 6/14/18 14/23/19 13/22/20
f 6/14/21 7/15/22 15/24/23 14/23/24
f 7/15/25 8/16/26 16/25/27 15/24/28
f 8/16/29 1/17/30 9/26/31 16/25/32
f 2/2/33 1/1/34 17/35/35
f 3/3/36 2/2/37 17/35/38
f 4/4/39 3/3/40 17/35/41
f 5/5/42 4/4/43 17/35/44
f 6/6/45 5/5/46 17/35/47
f 7/7/48 6/6/49 17/35/50
f 8/8/51 7/7/52 17/35/53
f 1/1/54 8/8/55 17/35/56
f 18/37/57 19/38/58 20/36/59
f 19/38/60 21/39/61 20/36/62
f 21/39/63 22/40/64 20/36/65
f 22/40/66 23/41/67 20/36/68
f 23/41/69 24/42/70 20/36/71
f 24/42/72 25/43/73 20/36/74
f 25/43/75 26/44/76 20/36/77
f 26/44/78 18/37/79 20/36/80
f 9/33/81 10/32/82 19/38/83 18/37/84
f 10/32/85 11/31/86 21/39/87 19/38/88
f 11/31/89 12/30/90 22/40/91 21/39/92
f 12/30/93 13/29/94 23/41/95 22/40/96
f 13/29/97 14/28/98 24/42/99 23/41/100
f 14/28/101 15/27/102 25/43/103 24/42/104
f 15/27/105 16/34/106 26/44/107 25/43/108
f 16/34/109 9/33/110 18/37/111 26/44/112
