# This file uses centimeters as units for non-parametric coordinates.

g default
v 0.034779 0.582908 -0.025268
v 0.013284 0.582908 -0.040885
v -0.013284 0.582908 -0.040885
v -0.034779 0.582908 -0.025268
v -0.042989 0.582908 0.000000
v -0.034779 0.582908 0.025268
v -0.013284 0.582908 0.040885
v 0.013284 0.582908 0.040885
v 0.034779 0.582908 0.025268
v 0.042989 0.582908 0.000000
v 0.034779 2.056949 -0.025268
v 0.013284 2.056949 -0.040885
v -0.013284 2.056949 -0.040885
v -0.034779 2.056949 -0.025268
v -0.042989 2.056949 0.000000
v -0.034779 2.056949 0.025268
v -0.013284 2.056949 0.040885
v 0.013284 2.056949 0.040885
v 0.034779 2.056949 0.025268
v 0.042989 2.056949 0.000000
v -0.000000 2.056949 0.000000
v 0.146113 0.505898 -0.022617
v 0.055810 0.505898 -0.036595
v -0.055810 0.505898 -0.036595
v -0.146113 0.505898 -0.022617
v -0.180605 0.505898 0.000000
v -0.146113 0.505898 0.022617
v -0.055810 0.505898 0.036595
v 0.055810 0.505898 0.036595
v 0.146113 0.505898 0.022617
v 0.180605 0.505898 0.000000
v 0.377769 0.000000 -0.048118
v 0.144295 0.000000 -0.077856
v -0.000000 0.000000 0.000000
v -0.144295 0.000000 -0.077856
v -0.377769 0.000000 -0.048118
v -0.466948 0.000000 0.000000
v -0.377769 0.000000 0.048118
v -0.144295 0.000000 0.077856
v 0.144295 0.000000 0.077856
v 0.377769 0.000000 0.048118
v 0.466948 0.000000 0.000000
vt 0.213664 0.651527
vt 0.201953 0.651527
vt 0.201953 0.001813
vt 0.213664 0.001813
vt 0.232408 0.685470
vt 0.183209 0.685470
vt 0.192479 0.651527
vt 0.192479 0.001813
vt 0.223138 0.651527
vt 0.223138 0.001813
vt 0.272211 0.685470
vt 0.271409 0.908455
vt 0.144208 0.908455
vt 0.143406 0.685470
vt 0.374318 0.908455
vt 0.041299 0.908455
vt 0.287414 0.685470
vt 0.413625 0.908455
vt 0.128203 0.685470
vt 0.001992 0.908455
vt 0.840236 0.001813
vt 0.851374 0.001813
vt 0.851374 0.651527
vt 0.840236 0.651527
vt 0.862511 0.001813
vt 0.862511 0.651527
vt 0.869395 0.001813
vt 0.869395 0.651527
vt 0.621173 0.258742
vt 0.632884 0.258742
vt 0.632884 0.908455
vt 0.621173 0.908455
vt 0.602429 0.224798
vt 0.651628 0.224798
vt 0.642358 0.258742
vt 0.642358 0.908455
vt 0.611699 0.258742
vt 0.562626 0.224798
vt 0.563427 0.001813
vt 0.690629 0.001813
vt 0.691430 0.224798
vt 0.460519 0.001813
vt 0.793537 0.001813
vt 0.547423 0.224798
vt 0.421212 0.001813
vt 0.706634 0.224798
vt 0.832845 0.001813
vt 0.877266 0.001813
vt 0.888404 0.001813
vt 0.888404 0.651527
vt 0.877266 0.651527
vt 0.899541 0.001813
vt 0.899541 0.651527
vt 0.906501 0.144029
vt 0.919609 0.041121
vt 0.940817 0.207630
vt 0.940817 0.001813
vt 0.906501 0.271231
vt 0.962026 0.041121
vt 0.919609 0.374139
vt 0.975134 0.144029
vt 0.940817 0.413447
vt 0.975134 0.271231
vt 0.962026 0.374139
vt 0.934304 0.421057
vt 0.941188 0.430531
vt 0.923167 0.436386
vt 0.941188 0.442242
vt 0.923167 0.417438
vt 0.934304 0.451716
vt 0.912029 0.421057
vt 0.923167 0.455334
vt 0.905146 0.430531
vt 0.912029 0.451716
vt 0.905146 0.442242
vt 0.986871 0.421057
vt 0.998008 0.417438
vt 0.996839 0.466511
vt 0.986871 0.481714
vt 0.975733 0.417438
vt 0.976902 0.466511
vt 0.958460 0.478095
vt 0.947323 0.481714
vt 0.948492 0.432641
vt 0.958460 0.417438
vt 0.969598 0.481714
vt 0.968429 0.432641
vn 0.587785 0.000000 -0.809017
vn 0.587785 0.000000 -0.809017
vn 0.587785 0.000000 -0.809017
vn 0.587785 0.000000 -0.809017
vn 0.000000 0.000000 -1.000000
vn 0.000000 0.000000 -1.000000
vn 0.000000 0.000000 -1.000000
vn 0.000000 0.000000 -1.000000
vn -0.587785 0.000000 -0.809017
vn -0.587785 0.000000 -0.809017
vn -0.587785 0.000000 -0.809017
vn -0.587785 0.000000 -0.809017
vn -0.951057 0.000000 -0.309017
vn -0.951057 0.000000 -0.309017
vn -0.951057 0.000000 -0.309017
vn -0.951057 0.000000 -0.309017
vn -0.951057 0.000000 0.309017
vn -0.951057 0.000000 0.309017
vn -0.951057 0.000000 0.309017
vn -0.951057 0.000000 0.309017
vn -0.587785 0.000000 0.809017
vn -0.587785 0.000000 0.809017
vn -0.587785 0.000000 0.809017
vn -0.587785 0.000000 0.809017
vn 0.000000 0.000000 1.000000
vn 0.000000 0.000000 1.000000
vn 0.000000 0.000000 1.000000
vn 0.000000 0.000000 1.000000
vn 0.587785 0.000000 0.809017
vn 0.587785 0.000000 0.809017
vn 0.587785 0.000000 0.809017
vn 0.587785 0.000000 0.809017
vn 0.951056 0.000000 0.309017
vn 0.951056 0.000000 0.309017
vn 0.951056 0.000000 0.309017
vn 0.951056 0.000000 0.309017
vn 0.951057 0.000000 -0.309017
vn 0.951057 0.000000 -0.309017
vn 0.951057 0.000000 -0.309017
vn 0.951057 0.000000 -0.309017
vn 0.000000 -1.000000 0.000000
vn 0.000000 -1.000000 0.000000
vn 0.000000 -1.000000 0.000000
vn 0.000000 -1.000000 0.000000
vn 0.000000 -1.000000 0.000000
vn 0.000000 -1.000000 0.000000
vn 0.000000 -1.000000 0.000000
vn 0.000000 -1.000000 0.000000
vn 0.000000 -1.000000 0.000000
vn 0.000000 -1.000000 0.000000
vn 0.000000 -1.000000 0.000000
vn 0.000000 1.000000 0.000000
vn 0.000000 1.000000 0.000000
vn 0.000000 1.000000 -0.000001
vn 0.000000 1.000000 0.000000
vn 0.000000 1.000000 0.000000
vn 0.000000 1.000000 0.000000
vn 0.000000 1.000000 0.000000
vn 0.000000 1.000000 -0.000002
vn 0.000000 1.000000 -0.000003
vn 0.000000 1.000000 -0.000002
vn 0.000000 1.000000 0.000000
vn 0.250335 0.207453 -0.945672
vn 0.250335 0.207453 -0.945672
vn 0.250335 0.207453 -0.945672
vn 0.250335 0.207453 -0.945672
vn 0.000000 -0.055621 -0.998452
vn 0.000000 -0.055621 -0.998452
vn 0.000000 -0.055621 -0.998452
vn 0.000000 -0.055621 -0.998452
vn -0.250335 0.207454 -0.945672
vn -0.250335 0.207454 -0.945672
vn -0.250335 0.207454 -0.945672
vn -0.250335 0.207454 -0.945672
vn -0.478999 0.766873 -0.427159
vn -0.478999 0.766873 -0.427159
vn -0.478999 0.766873 -0.427159
vn -0.478999 0.766873 -0.427159
vn -0.478999 0.766873 0.427160
vn -0.478999 0.766873 0.427160
vn -0.478999 0.766873 0.427160
vn -0.478999 0.766873 0.427160
vn -0.250335 0.207453 0.945672
vn -0.250335 0.207453 0.945672
vn -0.250335 0.207453 0.945672
vn -0.250335 0.207453 0.945672
vn 0.000000 -0.055621 0.998452
vn 0.000000 -0.055621 0.998452
vn 0.000000 -0.055621 0.998452
vn 0.000000 -0.055621 0.998452
vn 0.250335 0.207453 0.945672
vn 0.250335 0.207453 0.945672
vn 0.250335 0.207453 0.945672
vn 0.250335 0.207453 0.945672
vn 0.478999 0.766873 0.427159
vn 0.478999 0.766873 0.427159
vn 0.478999 0.766873 0.427159
vn 0.478999 0.766873 0.427159
vn 0.479000 0.766874 -0.427159
vn 0.479000 0.766874 -0.427159
vn 0.479000 0.766874 -0.427159
vn 0.479000 0.766874 -0.427159
vn 0.133036 0.107108 -0.985307
vn 0.133036 0.107108 -0.985307
vn 0.133036 0.107108 -0.985307
vn 0.133036 0.107108 -0.985307
vn 0.000000 0.081291 -0.996690
vn 0.000000 0.081291 -0.996690
vn 0.000000 0.081291 -0.996690
vn 0.000000 0.081291 -0.996690
vn -0.133036 0.107108 -0.985307
vn -0.133036 0.107108 -0.985307
vn -0.133036 0.107108 -0.985307
vn -0.133036 0.107108 -0.985307
vn -0.478582 0.266104 -0.836749
vn -0.478582 0.266104 -0.836749
vn -0.478582 0.266104 -0.836749
vn -0.478582 0.266104 -0.836749
vn -0.478581 0.266103 0.836749
vn -0.478581 0.266103 0.836749
vn -0.478581 0.266103 0.836749
vn -0.478581 0.266103 0.836749
vn -0.133036 0.107108 0.985307
vn -0.133036 0.107108 0.985307
vn -0.133036 0.107108 0.985307
vn -0.133036 0.107108 0.985307
vn 0.000000 0.081291 0.996690
vn 0.000000 0.081291 0.996690
vn 0.000000 0.081291 0.996690
vn 0.000000 0.081291 0.996691
vn 0.133036 0.107108 0.985307
vn 0.133036 0.107108 0.985307
vn 0.133036 0.107108 0.985307
vn 0.133036 0.107108 0.985307
vn 0.478581 0.266103 0.836749
vn 0.478581 0.266103 0.836749
vn 0.478581 0.266104 0.836749
vn 0.478581 0.266103 0.836749
vn 0.478582 0.266104 -0.836749
vn 0.478582 0.266104 -0.836749
vn 0.478582 0.266104 -0.836748
vn 0.478582 0.266104 -0.836748
s off
g pCylinder7
f 1/9/1 2/1/2 12/4/3 11/10/4
f 2/1/5 3/2/6 13/3/7 12/4/8
f 3/2/9 4/7/10 14/8/11 13/3/12
f 4/21/13 5/22/14 15/23/15 14/24/16
f 5/22/17 6/25/18 16/26/19 15/23/20
f 6/25/21 7/27/22 17/28/23 16/26/24
f 7/29/25 8/30/26 18/31/27 17/32/28
f 8/30/29 9/35/30 19/36/31 18/31/32
f 9/48/33 10/49/34 20/50/35 19/51/36
f 10/49/37 1/52/38 11/53/39 20/50/40
s 1
f 33/54/41 32/55/42 34/56/43
f 35/58/44 33/54/41 34/56/43
f 36/60/45 35/58/44 34/56/43
f 37/62/46 36/60/45 34/56/43
f 38/64/47 37/62/46 34/56/43
f 39/63/48 38/64/47 34/56/43
f 40/61/49 39/63/48 34/56/43
f 41/59/50 40/61/49 34/56/43
f 42/57/51 41/59/50 34/56/43
f 32/55/42 42/57/51 34/56/43
s 2
f 11/65/52 12/66/53 21/67/54
f 12/66/53 13/68/55 21/67/54
f 13/68/55 14/70/56 21/67/54
f 14/70/56 15/72/57 21/67/54
f 15/72/57 16/74/58 21/67/54
f 16/74/58 17/75/59 21/67/54
f 17/75/59 18/73/60 21/67/54
f 18/73/60 19/71/61 21/67/54
f 19/71/61 20/69/62 21/67/54
f 20/69/62 11/65/52 21/67/54
s off
f 2/1/63 1/9/64 22/11/65 23/5/66
f 3/2/67 2/1/68 23/5/69 24/6/70
f 4/7/71 3/2/72 24/6/73 25/14/74
f 5/76/75 4/77/76 25/78/77 26/79/78
f 6/80/79 5/76/80 26/79/81 27/81/82
f 7/29/83 6/37/84 27/38/85 28/33/86
f 8/30/87 7/29/88 28/33/89 29/34/90
f 9/35/91 8/30/92 29/34/93 30/41/94
f 10/82/95 9/83/96 30/84/97 31/85/98
f 1/86/99 10/82/100 31/85/101 22/87/102
f 23/5/103 22/11/104 32/15/105 33/12/106
f 24/6/107 23/5/108 33/12/109 35/13/110
f 25/14/111 24/6/112 35/13/113 36/16/114
f 26/19/115 25/14/116 36/16/117 37/20/118
f 27/38/119 26/44/120 37/45/121 38/42/122
f 28/33/123 27/38/124 38/42/125 39/39/126
f 29/34/127 28/33/128 39/39/129 40/40/130
f 30/41/131 29/34/132 40/40/133 41/43/134
f 31/46/135 30/41/136 41/43/137 42/47/138
f 22/11/139 31/17/140 42/18/141 32/15/142
