# This file uses centimeters as units for non-parametric coordinates.

mtllib DirectionArrow.mtl
g default
v 0.000000 -0.100000 0.300000
v 0.000000 0.100000 0.300000
v -0.100000 0.100000 -0.300000
v 0.100000 0.100000 -0.300000
v -0.100000 -0.100000 -0.300000
v 0.100000 -0.100000 -0.300000
v 0.100000 0.100000 0.055129
v -0.100000 0.100000 0.055129
v -0.100000 -0.100000 0.055129
v 0.100000 -0.100000 0.055129
v 0.241245 -0.100000 0.108405
v 0.241245 0.100000 0.108405
v -0.241245 -0.100000 0.108405
v -0.241245 0.100000 0.108405
v 0.000000 0.100000 -0.300000
v 0.000000 -0.100000 -0.300000
v 0.000000 0.100000 0.055129
v 0.000000 -0.100000 0.055129
vt 0.500000 0.000000
vt 0.500000 0.250000
vt 0.375000 0.500000
vt 0.625000 0.500000
vt 0.375000 0.750000
vt 0.625000 0.750000
vt 0.875000 0.000000
vt 0.875000 0.250000
vt 0.125000 0.000000
vt 0.125000 0.250000
vt 0.625000 0.375000
vt 0.750000 0.250000
vt 0.250000 0.250000
vt 0.250000 0.000000
vt 0.375000 0.875000
vt 0.750000 0.000000
vt 0.687500 0.000000
vt 0.687500 0.250000
vt 0.312500 0.000000
vt 0.312500 0.250000
vt 0.500000 0.500000
vt 0.500000 0.750000
vt 0.500000 0.329831
vt 0.500000 0.239494
vn 0.000000 1.000000 0.000000
vn 0.000000 1.000000 0.000000
vn 0.000000 1.000000 0.000000
vn 0.000000 1.000000 0.000000
vn 0.000000 1.000000 -0.000000
vn 0.000000 1.000000 -0.000000
vn 0.000000 1.000000 -0.000000
vn 0.000000 1.000000 -0.000000
vn 0.000000 0.000000 -1.000000
vn 0.000000 0.000000 -1.000000
vn 0.000000 0.000000 -1.000000
vn 0.000000 0.000000 -1.000000
vn -1.000000 0.000000 0.000000
vn -1.000000 0.000000 0.000000
vn -1.000000 0.000000 0.000000
vn -1.000000 0.000000 0.000000
vn 1.000000 0.000000 0.000000
vn 1.000000 0.000000 0.000000
vn 1.000000 0.000000 0.000000
vn 1.000000 0.000000 0.000000
vn 0.352915 0.000000 -0.935656
vn 0.352915 0.000000 -0.935656
vn 0.352915 0.000000 -0.935656
vn 0.352915 0.000000 -0.935656
vn 0.621918 0.000000 0.783083
vn 0.621918 0.000000 0.783083
vn 0.621918 0.000000 0.783083
vn 0.621918 0.000000 0.783083
vn -0.621918 0.000000 0.783083
vn -0.621918 0.000000 0.783083
vn -0.621918 0.000000 0.783083
vn -0.621918 0.000000 0.783083
vn -0.352915 0.000000 -0.935655
vn -0.352915 0.000000 -0.935655
vn -0.352915 0.000000 -0.935655
vn -0.352915 0.000000 -0.935655
vn 0.000000 -1.000000 -0.000000
vn 0.000000 -1.000000 -0.000000
vn 0.000000 -1.000000 -0.000000
vn 0.000000 -1.000000 -0.000000
vn 0.000000 1.000000 0.000000
vn 0.000000 1.000000 0.000000
vn 0.000000 1.000000 0.000000
vn 0.000000 1.000000 0.000000
vn -0.000000 -0.000000 -1.000000
vn -0.000000 -0.000000 -1.000000
vn -0.000000 -0.000000 -1.000000
vn -0.000000 -0.000000 -1.000000
vn 0.000000 -1.000000 0.000000
vn 0.000000 -1.000000 0.000000
vn 0.000000 -1.000000 0.000000
vn 0.000000 -1.000000 0.000000
vn 0.000000 1.000000 -0.000000
vn 0.000000 1.000000 -0.000000
vn 0.000000 1.000000 -0.000000
vn 0.000000 1.000000 -0.000000
vn 0.000000 -1.000000 0.000000
vn 0.000000 -1.000000 0.000000
vn 0.000000 -1.000000 0.000000
vn 0.000000 -1.000000 0.000000
vn 0.000000 -1.000000 0.000000
vn 0.000000 -1.000000 0.000000
vn 0.000000 -1.000000 0.000000
vn 0.000000 -1.000000 0.000000
s off
g pCube1
usemtl initialShadingGroup
f 2/2/1 12/18/2 7/11/3 17/23/4
f 17/23/5 7/11/6 4/4/7 15/21/8
f 5/5/9 3/3/10 15/21/11 16/22/12
f 9/14/13 8/13/14 3/10/15 5/9/16
f 10/16/17 6/7/18 4/8/19 7/12/20
f 7/12/21 12/18/22 11/17/23 10/16/24
f 1/1/25 11/17/26 12/18/27 2/2/28
f 2/2/29 14/20/30 13/19/31 1/1/32
f 9/14/33 13/19/34 14/20/35 8/13/36
f 1/1/37 13/19/38 9/15/39 18/24/40
f 8/13/41 14/20/42 2/2/43 17/23/44
f 4/4/45 6/6/46 16/22/47 15/21/48
f 10/16/49 11/17/50 1/1/51 18/24/52
f 3/3/53 8/13/54 17/23/55 15/21/56
f 18/24/57 9/15/58 5/5/59 16/22/60
f 10/16/61 18/24/62 16/22/63 6/6/64
