# This file uses centimeters as units for non-parametric coordinates.

mtllib DragonCrate.mtl
g default
v -0.500000 -0.001579 0.500000
v 0.500000 -0.001579 0.500000
v -0.500000 0.998421 0.500000
v 0.500000 0.998421 0.500000
v -0.500000 0.998421 -0.500000
v 0.500000 0.998421 -0.500000
v -0.500000 -0.001579 -0.500000
v 0.500000 -0.001579 -0.500000
v 0.409899 0.998421 -0.500000
v 0.409899 -0.001579 -0.500000
v 0.409899 -0.001579 0.500000
v 0.409899 0.998421 0.500000
v -0.425425 0.998421 -0.500000
v -0.425425 -0.001579 -0.500000
v -0.425425 -0.001579 0.500000
v -0.425425 0.998421 0.500000
v -0.425425 0.998421 -0.423965
v -0.500000 0.998421 -0.423965
v -0.500000 -0.001579 -0.423965
v -0.425425 -0.001579 -0.423965
v 0.409899 -0.001579 -0.423965
v 0.500000 -0.001579 -0.423965
v 0.500000 0.998421 -0.423965
v 0.409899 0.998421 -0.423965
v 0.409899 0.998421 0.418673
v -0.425425 0.998421 0.418673
v -0.500000 0.998421 0.418673
v -0.500000 -0.001579 0.418673
v -0.425425 -0.001579 0.418673
v 0.409899 -0.001579 0.418673
v 0.500000 -0.001579 0.418673
v 0.500000 0.998421 0.418673
v 0.500000 0.935533 -0.423965
v 0.500000 0.935533 0.418673
v 0.500000 0.935533 0.500000
v 0.409899 0.935533 0.500000
v -0.425425 0.935533 0.500000
v -0.500000 0.935533 0.500000
v -0.500000 0.935533 0.418673
v -0.500000 0.935533 -0.423965
v -0.500000 0.935533 -0.500000
v -0.425425 0.935533 -0.500000
v 0.409899 0.935533 -0.500000
v 0.500000 0.935533 -0.500000
v 0.500000 0.073556 -0.423965
v 0.500000 0.073556 0.418673
v 0.500000 0.073556 0.500000
v 0.409899 0.073556 0.500000
v -0.425425 0.073556 0.500000
v -0.500000 0.073556 0.500000
v -0.500000 0.073556 0.418673
v -0.500000 0.073556 -0.423965
v -0.500000 0.073556 -0.500000
v -0.425425 0.073556 -0.500000
v 0.409899 0.073556 -0.500000
v 0.500000 0.073556 -0.500000
v 0.398831 0.953702 -0.412800
v -0.414357 0.953702 -0.412800
v -0.414357 0.953702 0.407508
v 0.398831 0.953702 0.407508
v -0.414357 0.043140 0.407508
v 0.398831 0.043140 0.407508
v -0.414357 0.043140 -0.412800
v 0.398831 0.043140 -0.412800
v -0.425425 0.073556 0.451381
v -0.425425 0.935533 0.451381
v 0.409899 0.073556 0.451381
v 0.409899 0.935533 0.451381
v -0.425425 0.935533 -0.451381
v 0.409899 0.935533 -0.451381
v 0.409899 0.073556 -0.451381
v -0.425425 0.073556 -0.451381
v 0.470792 0.080687 0.411701
v 0.470792 0.928402 0.411701
v 0.470792 0.080687 -0.416993
v 0.470792 0.928402 -0.416993
v -0.470792 0.080687 0.411701
v -0.470792 0.080687 -0.416993
v -0.470792 0.928402 0.411701
v -0.470792 0.928402 -0.416993
vt 0.001992 0.001916
vt 0.021105 0.001916
vt 0.021105 0.021172
vt 0.001992 0.021172
vt 0.235189 0.001916
vt 0.235189 0.021172
vt 0.021105 0.242087
vt 0.001992 0.242087
vt 0.258281 0.001916
vt 0.258281 0.021172
vt 0.021105 0.258205
vt 0.001992 0.258205
vt 0.235189 0.242087
vt 0.258281 0.242087
vt 0.235189 0.258205
vt 0.258281 0.258205
vt 0.265296 0.001916
vt 0.284408 0.001916
vt 0.284408 0.022759
vt 0.265296 0.022759
vt 0.498493 0.022759
vt 0.498493 0.001916
vt 0.284408 0.238718
vt 0.265296 0.238718
vt 0.521585 0.022759
vt 0.521585 0.001916
vt 0.284408 0.258205
vt 0.265296 0.258205
vt 0.498493 0.238718
vt 0.521585 0.238718
vt 0.498493 0.258205
vt 0.521585 0.258205
vt 0.528404 0.238949
vt 0.547517 0.238949
vt 0.547517 0.258205
vt 0.528404 0.258205
vt 0.528404 0.018033
vt 0.547517 0.018033
vt 0.761601 0.238949
vt 0.761601 0.258205
vt 0.528404 0.001916
vt 0.547517 0.001916
vt 0.784693 0.238949
vt 0.784693 0.258205
vt 0.761601 0.001916
vt 0.761601 0.018033
vt 0.784693 0.018033
vt 0.784693 0.001916
vt 0.741719 0.497642
vt 0.760832 0.497642
vt 0.760832 0.518485
vt 0.741719 0.518485
vt 0.741719 0.281683
vt 0.760832 0.281683
vt 0.974916 0.497642
vt 0.974916 0.518485
vt 0.741719 0.262196
vt 0.760832 0.262196
vt 0.998008 0.497642
vt 0.998008 0.518485
vt 0.974916 0.281683
vt 0.974916 0.262196
vt 0.998008 0.281683
vt 0.998008 0.262196
vt 0.479294 0.262196
vt 0.500138 0.262196
vt 0.500138 0.281452
vt 0.479294 0.281452
vt 0.716097 0.262196
vt 0.716096 0.281452
vt 0.500138 0.502368
vt 0.479294 0.502368
vt 0.735583 0.281452
vt 0.735583 0.262196
vt 0.500138 0.518485
vt 0.479294 0.518485
vt 0.735583 0.502368
vt 0.716097 0.502368
vt 0.716097 0.518485
vt 0.735583 0.518485
vt 0.452316 0.262196
vt 0.473159 0.262196
vt 0.473159 0.281452
vt 0.452316 0.281452
vt 0.473159 0.502368
vt 0.452316 0.502368
vt 0.236357 0.262196
vt 0.236357 0.281452
vt 0.473159 0.518485
vt 0.452316 0.518485
vt 0.216870 0.262196
vt 0.216870 0.281452
vt 0.236357 0.502368
vt 0.236357 0.518485
vt 0.216870 0.502368
vt 0.216870 0.518485
vt 0.728371 0.957620
vt 0.519960 0.957620
vt 0.519960 0.747384
vt 0.728371 0.747384
vt 0.513825 0.957620
vt 0.305414 0.957620
vt 0.305414 0.747384
vt 0.513825 0.747384
vt 0.561536 0.739737
vt 0.561536 0.522477
vt 0.773922 0.522477
vt 0.773922 0.739737
vt 0.001992 0.743392
vt 0.001992 0.522477
vt 0.216077 0.522477
vt 0.216077 0.743392
vt 0.781768 0.522477
vt 0.994153 0.522477
vt 0.994153 0.739737
vt 0.781768 0.739737
vt 0.327662 0.522477
vt 0.541746 0.522477
vt 0.541746 0.743392
vt 0.327662 0.743392
vt 0.819351 0.743728
vt 0.819351 0.957813
vt 0.807890 0.954976
vt 0.807890 0.746565
vt 0.998008 0.743728
vt 0.998008 0.959687
vt 0.986547 0.956826
vt 0.986547 0.746590
vt 0.844082 0.957813
vt 0.844082 0.743728
vt 0.855543 0.746565
vt 0.855543 0.954976
vt 0.980412 0.743728
vt 0.980412 0.959687
vt 0.968951 0.956826
vt 0.968951 0.746590
vt 0.873139 0.743728
vt 0.873139 0.957813
vt 0.861678 0.954976
vt 0.861678 0.746565
vt 0.951355 0.959687
vt 0.951355 0.743728
vt 0.962816 0.746590
vt 0.962816 0.956826
vt 0.790294 0.957813
vt 0.790294 0.743728
vt 0.801755 0.746565
vt 0.801755 0.954976
vt 0.933758 0.959687
vt 0.933758 0.743728
vt 0.945219 0.746590
vt 0.945219 0.956826
vt 0.222419 0.743392
vt 0.222419 0.522477
vt 0.234879 0.522477
vt 0.234879 0.743392
vt 0.771698 0.957813
vt 0.771698 0.743728
vt 0.784159 0.743728
vt 0.784159 0.957813
vt 0.254368 0.522477
vt 0.254368 0.743392
vt 0.241908 0.743392
vt 0.241908 0.522477
vt 0.765563 0.743728
vt 0.765563 0.957813
vt 0.753102 0.957813
vt 0.753102 0.743728
vt 0.825486 0.957813
vt 0.825486 0.743728
vt 0.837947 0.743728
vt 0.837947 0.957813
vt 0.275040 0.743392
vt 0.275040 0.522477
vt 0.287501 0.522477
vt 0.287501 0.743392
vt 0.746967 0.743728
vt 0.746967 0.957813
vt 0.734507 0.957813
vt 0.734507 0.743728
vt 0.306990 0.522477
vt 0.306990 0.743392
vt 0.294530 0.743392
vt 0.294530 0.522477
vt 0.210735 0.262196
vt 0.210735 0.483112
vt 0.203249 0.481284
vt 0.203249 0.264024
vt 0.886760 0.743728
vt 0.886760 0.959687
vt 0.879275 0.957900
vt 0.879275 0.745515
vt 0.268883 0.522477
vt 0.268883 0.743392
vt 0.261398 0.741565
vt 0.261398 0.524305
vt 0.927623 0.743728
vt 0.927623 0.959687
vt 0.920137 0.957901
vt 0.920137 0.745515
vt 0.906516 0.959687
vt 0.906516 0.743728
vt 0.914002 0.745515
vt 0.914002 0.957900
vt 0.547894 0.743392
vt 0.547894 0.522477
vt 0.555379 0.524305
vt 0.555379 0.741565
vt 0.892896 0.959687
vt 0.892896 0.743728
vt 0.900381 0.745515
vt 0.900381 0.957901
vt 0.314019 0.743392
vt 0.314019 0.522477
vt 0.321505 0.524305
vt 0.321505 0.741565
vn 0.000000 0.000000 1.000000
vn 0.000000 0.000000 1.000000
vn 0.000000 0.000000 1.000000
vn 0.000000 0.000000 1.000000
vn 0.000000 1.000000 0.000000
vn 0.000000 1.000000 -0.000000
vn 0.000000 1.000000 -0.000000
vn 0.000000 1.000000 0.000000
vn 0.000000 0.000000 -1.000000
vn 0.000000 0.000000 -1.000000
vn 0.000000 0.000000 -1.000000
vn 0.000000 0.000000 -1.000000
vn 0.000000 -1.000000 0.000000
vn 0.000000 -1.000000 0.000000
vn 0.000000 -1.000000 0.000000
vn 0.000000 -1.000000 0.000000
vn 1.000000 0.000000 0.000000
vn 1.000000 0.000000 0.000000
vn 1.000000 0.000000 0.000000
vn 1.000000 0.000000 0.000000
vn -1.000000 0.000000 0.000000
vn -1.000000 0.000000 0.000000
vn -1.000000 0.000000 0.000000
vn -1.000000 0.000000 0.000000
vn 0.000000 0.000000 -1.000000
vn 0.000000 0.000000 -1.000000
vn 0.000000 0.000000 -1.000000
vn 0.000000 0.000000 -1.000000
vn 0.000000 -1.000000 0.000000
vn 0.000000 -1.000000 0.000000
vn 0.000000 -1.000000 0.000000
vn 0.000000 -1.000000 0.000000
vn 0.000000 0.000000 1.000000
vn 0.000000 0.000000 1.000000
vn 0.000000 0.000000 1.000000
vn 0.000000 0.000000 1.000000
vn 0.000000 1.000000 0.000000
vn 0.000000 1.000000 -0.000000
vn 0.000000 1.000000 -0.000000
vn 0.000000 1.000000 0.000000
vn 0.000000 1.000000 0.000000
vn 0.000000 1.000000 0.000000
vn 0.000000 1.000000 0.000000
vn 0.000000 1.000000 0.000000
vn -1.000000 0.000000 0.000000
vn -1.000000 0.000000 0.000000
vn -1.000000 0.000000 0.000000
vn -1.000000 0.000000 0.000000
vn 0.000000 -1.000000 0.000000
vn 0.000000 -1.000000 0.000000
vn 0.000000 -1.000000 0.000000
vn 0.000000 -1.000000 0.000000
vn 0.000000 -1.000000 0.000000
vn 0.000000 -1.000000 0.000000
vn 0.000000 -1.000000 0.000000
vn 0.000000 -1.000000 0.000000
vn 1.000000 0.000000 0.000000
vn 1.000000 0.000000 0.000000
vn 1.000000 0.000000 0.000000
vn 1.000000 0.000000 0.000000
vn 0.000000 1.000000 0.000000
vn 0.000000 1.000000 0.000000
vn 0.000000 1.000000 0.000000
vn 0.000000 1.000000 0.000000
vn 0.000000 1.000000 -0.000000
vn 0.000000 1.000000 -0.000000
vn 0.000000 1.000000 -0.000000
vn 0.000000 1.000000 -0.000000
vn 0.000000 -1.000000 0.000000
vn 0.000000 -1.000000 0.000000
vn 0.000000 -1.000000 0.000000
vn 0.000000 -1.000000 0.000000
vn 1.000000 0.000000 0.000000
vn 1.000000 0.000000 0.000000
vn 1.000000 0.000000 0.000000
vn 1.000000 0.000000 0.000000
vn 1.000000 0.000000 0.000000
vn 1.000000 0.000000 0.000000
vn 0.000000 0.000000 1.000000
vn 0.000000 0.000000 1.000000
vn 0.000000 0.000000 1.000000
vn 0.000000 0.000000 1.000000
vn 0.000000 0.000000 1.000000
vn 0.000000 0.000000 1.000000
vn 0.000000 0.000000 1.000000
vn 0.000000 0.000000 1.000000
vn -1.000000 0.000000 0.000000
vn -1.000000 0.000000 0.000000
vn -1.000000 0.000000 0.000000
vn -1.000000 0.000000 0.000000
vn -1.000000 0.000000 0.000000
vn -1.000000 0.000000 0.000000
vn -1.000000 0.000000 0.000000
vn -1.000000 0.000000 0.000000
vn 0.000000 0.000000 -1.000000
vn 0.000000 0.000000 -1.000000
vn 0.000000 0.000000 -1.000000
vn 0.000000 0.000000 -1.000000
vn 0.000000 0.000000 -1.000000
vn 0.000000 0.000000 -1.000000
vn 0.000000 0.000000 -1.000000
vn 0.000000 0.000000 -1.000000
vn 1.000000 0.000000 0.000000
vn 1.000000 0.000000 0.000000
vn 1.000000 -0.000000 0.000000
vn 1.000000 -0.000000 0.000000
vn 1.000000 -0.000000 0.000000
vn 1.000000 -0.000000 0.000000
vn 0.000000 0.000000 1.000000
vn 0.000000 0.000000 1.000000
vn 0.000000 0.000000 1.000000
vn 0.000000 0.000000 1.000000
vn -1.000000 0.000000 0.000000
vn -1.000000 0.000000 0.000000
vn -1.000000 0.000000 0.000000
vn -1.000000 0.000000 0.000000
vn 0.000000 0.000000 -1.000000
vn 0.000000 0.000000 -1.000000
vn 0.000000 0.000000 -1.000000
vn 0.000000 0.000000 -1.000000
vn 0.000000 0.242236 0.970217
vn 0.000000 0.242236 0.970217
vn 0.000000 0.242236 0.970217
vn 0.000000 0.242236 0.970217
vn 0.970709 0.240256 0.000000
vn 0.970709 0.240256 0.000000
vn 0.970710 0.240256 0.000000
vn 0.970710 0.240256 0.000000
vn 0.000000 0.242236 -0.970217
vn 0.000000 0.242236 -0.970217
vn 0.000000 0.242236 -0.970217
vn 0.000000 0.242236 -0.970217
vn -0.970710 0.240256 -0.000000
vn -0.970710 0.240256 -0.000000
vn -0.970710 0.240256 -0.000000
vn -0.970710 0.240256 -0.000000
vn 0.000000 -0.242236 -0.970217
vn 0.000000 -0.242236 -0.970217
vn 0.000000 -0.242236 -0.970217
vn 0.000000 -0.242236 -0.970217
vn 0.970709 -0.240256 0.000000
vn 0.970709 -0.240256 0.000000
vn 0.970710 -0.240256 0.000000
vn 0.970710 -0.240256 0.000000
vn 0.000000 -0.242236 0.970217
vn 0.000000 -0.242236 0.970217
vn 0.000000 -0.242236 0.970217
vn 0.000000 -0.242236 0.970217
vn -0.970710 -0.240256 0.000000
vn -0.970710 -0.240256 0.000000
vn -0.970710 -0.240256 0.000000
vn -0.970710 -0.240256 0.000000
vn 1.000000 0.000000 0.000000
vn 1.000000 0.000000 0.000000
vn 1.000000 0.000000 0.000000
vn 1.000000 0.000000 0.000000
vn 0.000000 1.000000 0.000000
vn 0.000000 1.000000 0.000000
vn 0.000000 1.000000 0.000000
vn 0.000000 1.000000 0.000000
vn -1.000000 0.000000 0.000000
vn -1.000000 0.000000 0.000000
vn -1.000000 0.000000 0.000000
vn -1.000000 0.000000 0.000000
vn 0.000000 -1.000000 0.000000
vn 0.000000 -1.000000 0.000000
vn 0.000000 -1.000000 0.000000
vn 0.000000 -1.000000 0.000000
vn 0.000000 -1.000000 0.000000
vn 0.000000 -1.000000 0.000000
vn 0.000000 -1.000000 0.000000
vn 0.000000 -1.000000 0.000000
vn -1.000000 0.000000 0.000000
vn -1.000000 0.000000 0.000000
vn -1.000000 0.000000 0.000000
vn -1.000000 0.000000 0.000000
vn 0.000000 1.000000 0.000000
vn 0.000000 1.000000 0.000000
vn 0.000000 1.000000 0.000000
vn 0.000000 1.000000 0.000000
vn 1.000000 0.000000 0.000000
vn 1.000000 0.000000 0.000000
vn 1.000000 0.000000 0.000000
vn 1.000000 0.000000 0.000000
vn 0.232164 0.000000 -0.972677
vn 0.232164 0.000000 -0.972677
vn 0.232164 0.000000 -0.972677
vn 0.232164 0.000000 -0.972677
vn 0.237197 0.971462 0.000000
vn 0.237197 0.971462 0.000000
vn 0.237197 0.971462 0.000000
vn 0.237197 0.971462 0.000000
vn 0.232164 0.000000 0.972677
vn 0.232164 0.000000 0.972677
vn 0.232164 0.000000 0.972677
vn 0.232164 0.000000 0.972677
vn 0.237197 -0.971462 0.000000
vn 0.237197 -0.971462 0.000000
vn 0.237197 -0.971462 0.000000
vn 0.237197 -0.971462 0.000000
vn -0.237197 0.971462 0.000000
vn -0.237197 0.971462 0.000000
vn -0.237197 0.971462 0.000000
vn -0.237197 0.971462 0.000000
vn -0.232164 0.000000 -0.972677
vn -0.232164 0.000000 -0.972677
vn -0.232164 0.000000 -0.972677
vn -0.232164 0.000000 -0.972677
vn -0.237197 -0.971462 0.000000
vn -0.237197 -0.971462 0.000000
vn -0.237197 -0.971462 0.000000
vn -0.237197 -0.971462 0.000000
vn -0.232164 0.000000 0.972677
vn -0.232164 0.000000 0.972677
vn -0.232164 0.000000 0.972677
vn -0.232164 0.000000 0.972677
s 1
g pCube1
usemtl initialShadingGroup
f 1/1/1 15/2/2 49/3/3 50/4/4
s 2
f 3/17/5 16/18/6 26/19/7 27/20/8
s 3
f 53/33/9 54/34/10 14/35/11 7/36/12
s 4
f 28/49/13 29/50/14 15/51/15 1/52/16
s 5
f 2/65/17 31/66/18 46/67/19 47/68/20
s 6
f 28/81/21 1/82/22 50/83/23 51/84/24
s 3
f 55/39/25 56/43/26 8/44/27 10/40/28
s 4
f 11/56/29 30/55/30 31/59/31 2/60/32
s 1
f 48/6/33 11/5/34 2/9/35 47/10/36
s 2
f 32/25/37 25/21/38 12/22/39 4/26/40
s 3
f 54/34/10 55/39/25 10/40/28 14/35/11
s 4
f 15/51/15 29/50/14 30/55/30 11/56/29
s 1
f 49/3/3 15/2/2 11/5/34 48/6/33
s 2
f 25/21/38 26/19/7 16/18/6 12/22/39
f 18/24/41 17/23/42 13/27/43 5/28/44
s 6
f 7/91/45 19/87/46 52/88/47 53/92/48
s 4
f 7/57/49 14/58/50 20/54/51 19/53/52
f 21/61/53 20/54/51 14/58/50 10/62/54
f 22/63/55 21/61/53 10/62/54 8/64/56
s 5
f 56/73/57 45/70/58 22/69/59 8/74/60
s 2
f 9/31/61 24/29/62 23/30/63 6/32/64
f 13/27/43 17/23/42 24/29/62 9/31/61
s off
f 57/97/65 58/98/66 59/99/67 60/100/68
s 2
f 27/20/8 26/19/7 17/23/42 18/24/41
s 6
f 19/87/46 28/81/21 51/84/24 52/88/47
s 4
f 19/53/52 20/54/51 29/50/14 28/49/13
s off
f 62/101/69 61/102/70 63/103/71 64/104/72
s 4
f 31/59/31 30/55/30 21/61/53 22/63/55
s 5
f 46/67/19 31/66/18 22/69/59 45/70/58
s 2
f 24/29/62 25/21/38 32/25/37 23/30/63
s 5
f 32/75/73 34/71/74 33/78/75 23/79/76
f 35/72/77 34/71/74 32/75/73 4/76/78
s 1
f 12/15/79 36/13/80 35/14/81 4/16/82
f 16/11/83 37/7/84 36/13/80 12/15/79
f 38/8/85 37/7/84 16/11/83 3/12/86
s 6
f 39/86/87 38/85/88 3/89/89 27/90/90
f 40/93/91 39/86/87 27/90/90 18/94/92
f 41/95/93 40/93/91 18/94/92 5/96/94
s 3
f 5/41/95 13/42/96 42/38/97 41/37/98
f 13/42/96 9/45/99 43/46/100 42/38/97
f 9/45/99 6/48/101 44/47/102 43/46/100
s 5
f 23/79/76 33/78/75 44/77/103 6/80/104
s off
f 74/105/105 73/106/106 75/107/107 76/108/108
s 5
f 47/68/20 46/67/19 34/71/74 35/72/77
s 1
f 36/13/80 48/6/33 47/10/36 35/14/81
s off
f 66/109/109 65/110/110 67/111/111 68/112/112
s 1
f 50/4/4 49/3/3 37/7/84 38/8/85
s 6
f 51/84/24 50/83/23 38/85/88 39/86/87
s off
f 78/113/113 77/114/114 79/115/115 80/116/116
s 6
f 53/92/48 52/88/47 40/93/91 41/95/93
s 3
f 41/37/98 42/38/97 54/34/10 53/33/9
s off
f 69/117/117 70/118/118 71/119/119 72/120/120
s 3
f 43/46/100 44/47/102 56/43/26 55/39/25
s 5
f 44/77/103 33/78/75 45/70/58 56/73/57
s off
f 24/121/121 17/122/122 58/123/123 57/124/124
f 17/125/125 26/126/126 59/127/127 58/128/128
f 26/129/129 25/130/130 60/131/131 59/132/132
f 25/133/133 24/134/134 57/135/135 60/136/136
f 30/137/137 29/138/138 61/139/139 62/140/140
f 29/141/141 20/142/142 63/143/143 61/144/144
f 20/145/145 21/146/146 64/147/147 63/148/148
f 21/149/149 30/150/150 62/151/151 64/152/152
f 37/153/153 49/154/154 65/155/155 66/156/156
f 49/157/157 48/158/158 67/159/159 65/160/160
f 48/161/161 36/162/162 68/163/163 67/164/164
f 36/165/165 37/166/166 66/167/167 68/168/168
f 42/169/169 43/170/170 70/171/171 69/172/172
f 43/173/173 55/174/174 71/175/175 70/176/176
f 55/177/177 54/178/178 72/179/179 71/180/180
f 54/181/181 42/182/182 69/183/183 72/184/184
f 34/185/185 46/186/186 73/187/187 74/188/188
f 46/189/189 45/190/190 75/191/191 73/192/192
f 45/193/193 33/194/194 76/195/195 75/196/196
f 33/197/197 34/198/198 74/199/199 76/200/200
f 52/201/201 51/202/202 77/203/203 78/204/204
f 51/205/205 39/206/206 79/207/207 77/208/208
f 39/209/209 40/210/210 80/211/211 79/212/212
f 40/213/213 52/214/214 78/215/215 80/216/216
