# This file uses centimeters as units for non-parametric coordinates.

mtllib Dragon_Table.mtl
g default
v 1.366020 0.435760 0.683010
v 1.366020 0.572362 0.683010
v 1.366020 0.572362 -0.683010
v 1.366020 0.435760 -0.683010
v 1.229418 0.435760 -0.683010
v 1.229418 0.435760 0.683010
v 1.229418 0.572362 0.683010
v 1.229418 0.572362 -0.683010
v 1.229418 0.435760 -0.341505
v 1.366020 0.435760 -0.341505
v 1.366020 0.572362 -0.341505
v 1.229418 0.572362 -0.341505
v 1.229418 0.435760 0.341505
v 1.366020 0.435760 0.341505
v 1.366020 0.572362 0.341505
v 1.229418 0.572362 0.341505
v 0.068301 0.572362 0.683010
v 0.068301 0.572362 0.341505
v 0.068301 0.572362 -0.341505
v 0.068301 0.572362 -0.683010
v 0.068301 0.435760 -0.683010
v 0.068301 0.435760 -0.341505
v 0.068301 0.435760 0.341505
v 0.068301 0.435760 0.683010
v 0.068301 -0.572362 0.341505
v 0.068301 -0.572362 -0.341505
v 0.068301 -0.440015 0.341505
v 0.068301 -0.440015 -0.341505
v 0.068301 -0.572362 0.683010
v 0.068301 -0.440015 0.683010
v 0.068301 -0.440015 -0.683010
v 0.068301 -0.572362 -0.683010
v 1.366020 -0.572362 0.341505
v 1.229418 -0.572362 0.341505
v 1.366020 -0.572362 -0.341505
v 1.229418 -0.572362 -0.341505
v 1.366020 -0.440015 0.341505
v 1.366020 -0.440015 -0.341505
v 1.229418 -0.440015 -0.341505
v 1.229418 -0.440015 0.341505
v 1.366020 -0.572362 0.683010
v 1.229418 -0.572362 0.683010
v 1.229418 -0.440015 0.683010
v 1.366020 -0.440015 0.683010
v 1.366020 -0.440015 -0.683010
v 1.229418 -0.440015 -0.683010
v 1.229418 -0.572362 -0.683010
v 1.366020 -0.572362 -0.683010
v -1.366020 0.435760 0.683010
v -1.366020 0.572362 0.683010
v -1.366020 0.572362 -0.683010
v -1.366020 0.435760 -0.683010
v -1.229418 0.435760 -0.683010
v -1.229418 0.435760 0.683010
v -1.229418 0.572362 0.683010
v -1.229418 0.572362 -0.683010
v -1.229418 0.435760 -0.341505
v -1.366020 0.435760 -0.341505
v -1.366020 0.572362 -0.341505
v -1.229418 0.572362 -0.341505
v -1.229418 0.435760 0.341505
v -1.366020 0.435760 0.341505
v -1.366020 0.572362 0.341505
v -1.229418 0.572362 0.341505
v -0.068301 0.572362 0.683010
v -0.068301 0.572362 0.341505
v -0.068301 0.572362 -0.341505
v -0.068301 0.572362 -0.683010
v -0.068301 0.435760 -0.683010
v -0.068301 0.435760 -0.341505
v -0.068301 0.435760 0.341505
v -0.068301 0.435760 0.683010
v -0.068301 -0.572362 0.341505
v -0.068301 -0.572362 -0.341505
v -0.068301 -0.440015 0.341505
v -0.068301 -0.440015 -0.341505
v -0.068301 -0.572362 0.683010
v -0.068301 -0.440015 0.683010
v -0.068301 -0.440015 -0.683010
v -0.068301 -0.572362 -0.683010
v -1.366020 -0.572362 0.341505
v -1.229418 -0.572362 0.341505
v -1.366020 -0.572362 -0.341505
v -1.229418 -0.572362 -0.341505
v -1.366020 -0.440015 0.341505
v -1.366020 -0.440015 -0.341505
v -1.229418 -0.440015 -0.341505
v -1.229418 -0.440015 0.341505
v -1.366020 -0.572362 0.683010
v -1.229418 -0.572362 0.683010
v -1.229418 -0.440015 0.683010
v -1.366020 -0.440015 0.683010
v -1.366020 -0.440015 -0.683010
v -1.229418 -0.440015 -0.683010
v -1.229418 -0.572362 -0.683010
v -1.366020 -0.572362 -0.683010
vt 0.028790 0.365799
vt 0.058663 0.365799
vt 0.058663 0.394943
vt 0.048555 0.037502
vt 0.058663 0.642669
vt 0.028790 0.642669
vt 0.058663 0.671813
vt 0.028790 0.671813
vt 0.058662 0.919539
vt 0.534554 0.037502
vt 0.028790 0.948683
vt 0.058662 0.948683
vt 0.277608 0.365799
vt 0.350105 0.365799
vt 0.350105 0.394943
vt 0.277608 0.394943
vt 0.350105 0.642669
vt 0.277608 0.642669
vt 0.131887 0.365799
vt 0.131887 0.394943
vt 0.350105 0.671813
vt 0.277608 0.671813
vt 0.131887 0.642669
vt 0.454533 0.560570
vt 0.576683 0.151122
vt 0.350105 0.919539
vt 0.277608 0.919539
vt 0.131887 0.671813
vt 0.820983 0.511710
vt 0.277608 0.948683
vt 0.350105 0.948683
vt 0.131887 0.919539
vt 0.868810 0.984612
vt 0.131887 0.948683
vt 0.820983 0.151122
vt 0.943135 0.560570
vt 0.943135 0.511710
vt 0.378521 0.365799
vt 0.378521 0.394943
vt 0.943135 0.464371
vt 0.378521 0.642669
vt 0.526789 0.671362
vt 0.378521 0.671813
vt 0.526789 0.984612
vt 0.378521 0.919539
vt 0.454533 0.560570
vt 0.454533 0.607917
vt 0.378521 0.948683
vt 0.350105 0.336654
vt 0.277608 0.336654
vt 0.048555 0.240339
vt 0.048555 0.307502
vt 0.278055 0.240339
vt 0.278055 0.307502
vt 0.048555 0.105339
vt 0.278055 0.105339
vt 0.305055 0.240339
vt 0.305055 0.307502
vt 0.820983 0.560570
vt 0.819950 0.984612
vt 0.534554 0.307502
vt 0.534554 0.240339
vt 0.021555 0.105339
vt 0.021555 0.037502
vt 0.943135 0.560570
vt 0.305055 0.105339
vt 0.534554 0.105339
vt 0.561554 0.307502
vt 0.561554 0.240339
vt 0.943135 0.607917
vt 0.561554 0.105339
vt 0.561554 0.037502
vt 0.028790 0.394943
vt 0.576683 0.560570
vt 0.058662 0.977828
vt 0.576683 0.151122
vt 0.820983 0.607917
vt 0.028790 0.919539
vt 0.575649 0.671362
vt 0.278055 0.037502
vt 0.576683 0.464371
vt 0.820983 0.464371
vt 0.576683 0.511710
vt 0.820983 0.511710
vt 0.454533 0.511710
vt 0.454533 0.464371
vt 0.943135 0.464371
vt 0.943135 0.511710
vt 0.576683 0.511710
vt 0.576683 0.464371
vt 0.820983 0.464371
vt 0.820983 0.511710
vt 0.454533 0.511710
vt 0.454533 0.464371
vt 0.576683 0.151122
vt 0.820983 0.151122
vt 0.943135 0.464371
vt 0.943135 0.511710
vt 0.868810 0.671362
vt 0.868810 0.984612
vt 0.819950 0.984612
vt 0.819950 0.671362
vt 0.943135 0.656777
vt 0.820983 0.656777
vt 0.820983 0.607917
vt 0.943135 0.607917
vt 0.990476 0.656777
vt 0.454533 0.464371
vt 0.575649 0.984612
vt 0.990476 0.607917
vt 0.576683 0.607917
vt 0.943135 0.511710
vt 0.943135 0.560570
vt 0.820983 0.560570
vt 0.454533 0.511710
vt 0.576683 0.560570
vt 0.454533 0.511710
vt 0.454533 0.560570
vt 0.454533 0.656777
vt 0.407196 0.656777
vt 0.407196 0.607917
vt 0.454533 0.607917
vt 0.576683 0.656777
vt 0.576683 0.656777
vt 0.820983 0.656777
vt 0.131887 0.977828
vt 0.526789 0.984612
vt 0.526789 0.671362
vt 0.575649 0.671362
vt 0.575649 0.984612
vt 0.990476 0.656777
vt 0.943135 0.656777
vt 0.943135 0.607917
vt 0.990476 0.607917
vt 0.454533 0.656777
vt 0.407196 0.656777
vt 0.407196 0.607917
vt 0.454533 0.607917
vt 0.820983 0.464371
vt 0.819950 0.671362
vt 0.820983 0.560570
vt 0.576683 0.560570
vt 0.943135 0.511710
vt 0.943135 0.560570
vt 0.454533 0.560570
vt 0.454533 0.511710
vt 0.576683 0.511710
vt 0.820983 0.607917
vt 0.575649 0.671362
vt 0.576683 0.607917
vt 0.943135 0.560570
vt 0.868810 0.671362
vt 0.819950 0.984612
vt 0.575649 0.984612
vt 0.943135 0.656777
vt 0.454533 0.560570
vt 0.526789 0.984612
vt 0.526789 0.671362
vt 0.820983 0.151122
vt 0.305055 0.037502
vt 0.868810 0.671362
vt 0.868810 0.984612
vt 0.576683 0.464371
vt 0.819950 0.671362
vt 0.407196 0.607917
vt 0.407196 0.656777
vt 0.990476 0.656777
vt 0.820983 0.656777
vt 0.576683 0.656777
vt 0.990476 0.607917
vt 0.454533 0.656777
vt 0.576683 0.607917
vt 0.350105 0.977827
vt 0.277608 0.977827
vt 0.131887 0.336655
vt 0.058663 0.336655
vt 0.021556 0.307502
vt 0.021555 0.240339
vn 0.000000 0.000000 1.000000
vn 0.000000 0.000000 1.000000
vn 0.000000 0.000000 1.000000
vn 0.000000 0.000000 1.000000
vn 0.000000 1.000000 0.000000
vn 0.000000 1.000000 0.000000
vn 0.000000 1.000000 0.000000
vn 0.000000 1.000000 0.000000
vn 0.000000 0.000000 -1.000000
vn 0.000000 0.000000 -1.000000
vn 0.000000 0.000000 -1.000000
vn 0.000000 0.000000 -1.000000
vn 0.000000 -1.000000 0.000000
vn 0.000000 -1.000000 0.000000
vn 0.000000 -1.000000 0.000000
vn 0.000000 -1.000000 0.000000
vn 1.000000 0.000000 0.000000
vn 1.000000 0.000000 0.000000
vn 1.000000 0.000000 0.000000
vn 1.000000 0.000000 0.000000
vn 0.000000 -1.000000 -0.000000
vn 0.000000 -1.000000 -0.000000
vn 0.000000 0.000000 1.000000
vn 0.000000 0.000000 1.000000
vn 0.000000 1.000000 0.000000
vn 0.000000 1.000000 0.000000
vn 0.000000 0.000000 -1.000000
vn 0.000000 0.000000 -1.000000
vn 0.000000 -1.000000 0.000000
vn 0.000000 -1.000000 0.000000
vn 1.000000 0.000000 0.000000
vn 1.000000 0.000000 0.000000
vn 0.000000 1.000000 0.000000
vn 0.000000 1.000000 0.000000
vn 0.000000 1.000000 0.000000
vn 0.000000 -1.000000 0.000000
vn 0.000000 -1.000000 0.000000
vn 0.000000 -1.000000 0.000000
vn 0.000000 -1.000000 0.000000
vn 1.000000 0.000000 0.000000
vn 1.000000 0.000000 0.000000
vn 0.000000 1.000000 0.000000
vn 0.000000 1.000000 0.000000
vn 0.000000 1.000000 0.000000
vn 1.000000 0.000000 0.000000
vn 1.000000 -0.000000 0.000000
vn 1.000000 -0.000000 0.000000
vn 1.000000 0.000000 0.000000
vn 1.000000 -0.000000 0.000000
vn 1.000000 -0.000000 0.000000
vn 1.000000 0.000000 0.000000
vn 1.000000 0.000000 0.000000
vn 1.000000 0.000000 0.000000
vn 1.000000 0.000000 0.000000
vn 1.000000 0.000000 0.000000
vn 1.000000 0.000000 0.000000
vn 1.000000 0.000000 0.000000
vn 1.000000 0.000000 0.000000
vn 0.000000 0.000000 1.000000
vn 0.000000 0.000000 1.000000
vn 0.000000 0.000000 1.000000
vn 0.000000 0.000000 1.000000
vn 0.000000 1.000000 0.000000
vn 0.000000 1.000000 0.000000
vn 0.000000 1.000000 0.000000
vn 0.000000 1.000000 0.000000
vn 0.000000 0.000000 1.000000
vn 0.000000 0.000000 1.000000
vn 0.000000 0.000000 1.000000
vn 0.000000 0.000000 1.000000
vn 0.000000 -1.000000 0.000000
vn 0.000000 -1.000000 0.000000
vn 0.000000 -1.000000 0.000000
vn 0.000000 -1.000000 0.000000
vn 0.000000 -1.000000 0.000000
vn 0.000000 -1.000000 0.000000
vn 0.000000 -1.000000 0.000000
vn 0.000000 -1.000000 0.000000
vn 0.000000 -1.000000 0.000000
vn 0.000000 -1.000000 0.000000
vn 0.000000 -1.000000 0.000000
vn 0.000000 -1.000000 0.000000
vn 0.000000 0.000000 -1.000000
vn 0.000000 0.000000 -1.000000
vn 0.000000 0.000000 -1.000000
vn 0.000000 0.000000 -1.000000
vn 0.000000 1.000000 0.000000
vn 0.000000 1.000000 0.000000
vn 0.000000 1.000000 0.000000
vn 0.000000 1.000000 0.000000
vn 0.000000 0.000000 -1.000000
vn 0.000000 0.000000 -1.000000
vn 0.000000 0.000000 -1.000000
vn 0.000000 0.000000 -1.000000
vn 0.000000 0.000000 1.000000
vn 0.000000 0.000000 1.000000
vn 0.000000 0.000000 1.000000
vn 0.000000 0.000000 1.000000
vn 0.000000 0.000000 -1.000000
vn 0.000000 0.000000 -1.000000
vn 0.000000 0.000000 -1.000000
vn 0.000000 0.000000 -1.000000
vn 0.000000 -1.000000 0.000000
vn 0.000000 -1.000000 0.000000
vn 0.000000 -1.000000 0.000000
vn 0.000000 -1.000000 0.000000
vn -1.000000 0.000000 0.000000
vn -1.000000 -0.000000 0.000000
vn -1.000000 -0.000000 0.000000
vn -1.000000 0.000000 0.000000
vn 1.000000 0.000000 0.000000
vn 1.000000 0.000000 0.000000
vn 1.000000 0.000000 0.000000
vn 1.000000 0.000000 0.000000
vn 1.000000 0.000000 0.000000
vn 1.000000 0.000000 0.000000
vn 0.000000 0.000000 -1.000000
vn 0.000000 0.000000 -1.000000
vn 0.000000 0.000000 -1.000000
vn 0.000000 0.000000 -1.000000
vn -1.000000 -0.000000 0.000000
vn -1.000000 -0.000000 0.000000
vn 0.000000 0.000000 1.000000
vn 0.000000 0.000000 1.000000
vn 0.000000 0.000000 1.000000
vn 0.000000 0.000000 1.000000
vn 0.000000 -1.000000 0.000000
vn 0.000000 -1.000000 0.000000
vn 0.000000 -1.000000 0.000000
vn 0.000000 -1.000000 0.000000
vn -1.000000 0.000000 0.000000
vn -1.000000 0.000000 0.000000
vn -1.000000 0.000000 0.000000
vn -1.000000 0.000000 0.000000
vn 0.000000 1.000000 0.000000
vn 0.000000 1.000000 0.000000
vn 0.000000 1.000000 0.000000
vn 0.000000 1.000000 0.000000
vn 1.000000 0.000000 0.000000
vn 1.000000 0.000000 0.000000
vn 1.000000 0.000000 0.000000
vn 1.000000 0.000000 0.000000
vn 0.000000 1.000000 0.000000
vn 0.000000 1.000000 0.000000
vn 0.000000 1.000000 0.000000
vn 0.000000 1.000000 0.000000
vn -1.000000 0.000000 0.000000
vn -1.000000 0.000000 0.000000
vn -1.000000 0.000000 0.000000
vn -1.000000 0.000000 0.000000
vn 0.000000 -1.000000 0.000000
vn 0.000000 -1.000000 0.000000
vn 0.000000 -1.000000 0.000000
vn 0.000000 -1.000000 0.000000
vn 1.000000 0.000000 0.000000
vn 1.000000 0.000000 0.000000
vn 1.000000 0.000000 0.000000
vn 1.000000 0.000000 0.000000
vn 0.000000 0.000000 1.000000
vn 0.000000 0.000000 1.000000
vn 0.000000 0.000000 1.000000
vn 0.000000 0.000000 1.000000
vn 0.000000 1.000000 0.000000
vn 0.000000 1.000000 0.000000
vn 0.000000 1.000000 0.000000
vn 0.000000 1.000000 0.000000
vn 0.000000 0.000000 -1.000000
vn 0.000000 0.000000 -1.000000
vn 0.000000 0.000000 -1.000000
vn 0.000000 0.000000 -1.000000
vn 0.000000 -1.000000 0.000000
vn 0.000000 -1.000000 0.000000
vn 0.000000 -1.000000 0.000000
vn 0.000000 -1.000000 0.000000
vn -1.000000 0.000000 0.000000
vn -1.000000 0.000000 0.000000
vn -1.000000 0.000000 0.000000
vn -1.000000 0.000000 0.000000
vn 0.000000 -1.000000 -0.000000
vn 0.000000 -1.000000 -0.000000
vn 0.000000 0.000000 1.000000
vn 0.000000 0.000000 1.000000
vn 0.000000 1.000000 0.000000
vn 0.000000 1.000000 0.000000
vn 0.000000 0.000000 -1.000000
vn 0.000000 0.000000 -1.000000
vn 0.000000 -1.000000 0.000000
vn 0.000000 -1.000000 0.000000
vn -1.000000 0.000000 0.000000
vn -1.000000 0.000000 0.000000
vn 0.000000 1.000000 0.000000
vn 0.000000 1.000000 0.000000
vn 0.000000 1.000000 0.000000
vn 0.000000 -1.000000 0.000000
vn 0.000000 -1.000000 0.000000
vn 0.000000 -1.000000 0.000000
vn 0.000000 -1.000000 0.000000
vn -1.000000 0.000000 0.000000
vn -1.000000 0.000000 0.000000
vn 0.000000 1.000000 0.000000
vn 0.000000 1.000000 0.000000
vn 0.000000 1.000000 0.000000
vn -1.000000 0.000000 0.000000
vn -1.000000 0.000000 0.000000
vn -1.000000 -0.000000 0.000000
vn -1.000000 -0.000000 0.000000
vn -1.000000 -0.000000 0.000000
vn -1.000000 -0.000000 0.000000
vn -1.000000 0.000000 0.000000
vn -1.000000 0.000000 0.000000
vn -1.000000 0.000000 0.000000
vn -1.000000 0.000000 0.000000
vn -1.000000 0.000000 0.000000
vn -1.000000 0.000000 0.000000
vn -1.000000 0.000000 0.000000
vn -1.000000 0.000000 0.000000
vn 0.000000 0.000000 1.000000
vn 0.000000 0.000000 1.000000
vn 0.000000 0.000000 1.000000
vn 0.000000 0.000000 1.000000
vn 0.000000 0.000000 -1.000000
vn 0.000000 0.000000 -1.000000
vn 0.000000 0.000000 -1.000000
vn 0.000000 0.000000 -1.000000
vn 0.000000 -1.000000 0.000000
vn 0.000000 -1.000000 0.000000
vn 0.000000 -1.000000 0.000000
vn 0.000000 -1.000000 0.000000
vn 1.000000 0.000000 0.000000
vn 1.000000 0.000000 0.000000
vn 1.000000 -0.000000 0.000000
vn 1.000000 -0.000000 0.000000
vn -1.000000 0.000000 0.000000
vn -1.000000 0.000000 0.000000
vn -1.000000 0.000000 0.000000
vn -1.000000 0.000000 0.000000
vn -1.000000 0.000000 0.000000
vn -1.000000 0.000000 0.000000
vn 0.000000 0.000000 -1.000000
vn 0.000000 0.000000 -1.000000
vn 0.000000 0.000000 -1.000000
vn 0.000000 0.000000 -1.000000
vn 1.000000 -0.000000 0.000000
vn 1.000000 -0.000000 0.000000
vn 0.000000 0.000000 1.000000
vn 0.000000 0.000000 1.000000
vn 0.000000 0.000000 1.000000
vn 0.000000 0.000000 1.000000
vn 0.000000 -1.000000 0.000000
vn 0.000000 -1.000000 0.000000
vn 0.000000 -1.000000 0.000000
vn 0.000000 -1.000000 0.000000
vn 1.000000 0.000000 0.000000
vn 1.000000 0.000000 0.000000
vn 1.000000 0.000000 0.000000
vn 1.000000 0.000000 0.000000
vn 0.000000 1.000000 0.000000
vn 0.000000 1.000000 0.000000
vn 0.000000 1.000000 0.000000
vn 0.000000 1.000000 0.000000
vn -1.000000 0.000000 0.000000
vn -1.000000 0.000000 0.000000
vn -1.000000 0.000000 0.000000
vn -1.000000 0.000000 0.000000
vn 0.000000 1.000000 0.000000
vn 0.000000 1.000000 0.000000
vn 0.000000 1.000000 0.000000
vn 0.000000 1.000000 0.000000
vn 1.000000 0.000000 0.000000
vn 1.000000 0.000000 0.000000
vn 1.000000 0.000000 0.000000
vn 1.000000 0.000000 0.000000
vn 0.000000 -1.000000 0.000000
vn 0.000000 -1.000000 0.000000
vn 0.000000 -1.000000 0.000000
vn 0.000000 -1.000000 0.000000
vn -1.000000 0.000000 0.000000
vn -1.000000 0.000000 0.000000
vn -1.000000 0.000000 0.000000
vn -1.000000 0.000000 0.000000
s 1
g polySurface3
usemtl initialShadingGroup
f 1/1/1 2/2/2 7/3/3 6/73/4
s 2
f 11/13/5 3/14/6 8/15/7 12/16/8
s 3
f 3/14/9 4/38/10 5/39/11 8/15/12
s 4
f 4/177/13 10/178/14 9/51/15 5/52/16
s 5
f 4/49/17 3/14/18 11/13/19 10/50/20
s 4
f 5/52/16 9/51/15 22/53/21 21/54/22
s 1
f 7/3/3 17/5/23 24/6/24 6/73/4
s 2
f 8/15/7 20/17/25 19/18/26 12/16/8
s 3
f 5/39/11 21/41/27 20/17/28 8/15/12
s 4
f 9/51/15 13/55/29 23/56/30 22/53/21
s 5
f 11/13/19 15/19/31 14/175/32 10/50/20
s 2
f 15/19/33 11/13/5 12/16/8 16/20/34
f 19/18/26 18/23/35 16/20/34 12/16/8
s 4
f 13/55/29 6/4/36 24/80/37 23/56/30
f 14/63/38 1/64/39 6/4/36 13/55/29
s 5
f 15/19/31 2/2/40 1/176/41 14/175/32
s 2
f 2/2/42 15/19/33 16/20/34 7/3/43
f 18/23/35 17/5/44 7/3/43 16/20/34
s 6
f 26/89/45 28/90/46 27/91/47 25/92/48
f 28/90/46 22/95/49 23/96/50 27/91/47
s off
f 27/91/51 30/97/52 29/98/53 25/92/54
f 26/89/55 32/93/56 31/94/57 28/90/58
f 27/99/59 23/100/60 71/101/61 75/102/62
f 30/103/63 27/104/64 75/105/65 78/106/66
f 29/107/67 30/103/68 78/106/69 77/110/70
f 25/92/71 29/112/72 77/113/73 73/114/74
f 26/89/75 25/92/76 73/114/77 74/116/78
f 32/117/79 26/89/80 74/116/81 80/118/82
f 31/119/83 32/120/84 80/121/85 79/122/86
f 28/123/87 31/119/88 79/122/89 76/111/90
f 22/127/91 28/128/92 76/129/93 70/130/94
f 41/131/95 44/132/96 43/133/97 42/134/98
f 45/135/99 48/136/100 47/137/101 46/138/102
f 35/83/103 33/84/104 34/141/105 36/142/106
s 7
f 34/141/107 40/148/108 39/172/109 36/142/110
s 8
f 35/83/111 38/81/112 37/82/113 33/84/114
f 38/81/112 10/76/115 14/159/116 37/82/113
s off
f 10/157/117 38/158/118 39/149/119 9/154/120
s 7
f 40/164/108 13/153/121 9/154/122 39/149/109
s off
f 37/161/123 14/162/124 13/153/125 40/164/126
f 33/84/127 41/143/128 42/144/129 34/141/130
f 34/141/131 42/151/132 43/133/133 40/148/134
f 40/148/135 43/133/136 44/132/137 37/168/138
f 37/82/139 44/87/140 41/88/141 33/84/142
f 38/169/143 45/135/144 46/138/145 39/172/146
f 39/172/147 46/138/148 47/156/149 36/142/150
f 36/142/151 47/145/152 48/146/153 35/83/154
f 35/83/155 48/85/156 45/86/157 38/81/158
s 1
f 49/11/159 54/78/160 55/9/161 50/12/162
s 2
f 59/30/163 60/27/164 56/26/165 51/31/166
s 3
f 51/31/167 56/26/168 53/45/169 52/48/170
s 4
f 52/68/171 53/61/172 57/62/173 58/69/174
s 13
f 52/173/175 58/174/176 59/30/177 51/31/178
s 4
f 53/61/172 69/58/179 70/57/180 57/62/173
s 1
f 55/9/161 54/78/160 72/8/181 65/7/182
s 2
f 56/26/165 60/27/164 67/22/183 68/21/184
s 3
f 53/45/169 56/26/168 68/21/185 69/43/186
s 4
f 57/62/173 70/57/180 71/66/187 61/67/188
s 13
f 59/30/177 58/174/176 62/126/189 63/34/190
s 2
f 63/34/191 64/32/192 60/27/164 59/30/163
f 67/22/183 60/27/164 64/32/192 66/28/193
s 4
f 61/67/188 71/66/187 72/160/194 54/10/195
f 62/71/196 61/67/188 54/10/195 49/72/197
s 13
f 63/34/190 62/126/189 49/75/198 50/12/199
s 2
f 50/12/200 55/9/201 64/32/192 63/34/191
f 66/28/193 64/32/192 55/9/201 65/7/202
f 18/23/35 66/28/193 65/7/202 17/5/44
f 19/18/26 67/22/183 66/28/193 18/23/35
f 20/17/25 68/21/184 67/22/183 19/18/26
s 3
f 21/41/27 69/43/186 68/21/185 20/17/28
s 4
f 22/53/21 70/57/180 69/58/179 21/54/22
f 24/80/37 72/160/194 71/66/187 23/56/30
s 1
f 17/5/23 65/7/182 72/8/181 24/6/24
s 14
f 74/116/203 73/114/204 75/105/205 76/111/206
f 76/129/206 75/102/205 71/101/207 70/130/208
s off
f 75/105/209 73/114/210 77/36/211 78/106/212
f 74/116/213 76/111/214 79/122/215 80/24/216
f 89/170/217 90/167/218 91/155/219 92/70/220
f 93/47/221 94/171/222 95/166/223 96/165/224
f 83/74/225 84/147/226 82/29/227 81/59/228
s 15
f 82/29/229 84/147/230 87/163/231 88/139/232
s 16
f 83/74/233 81/59/234 85/77/235 86/150/236
f 86/79/236 85/140/235 62/60/237 58/109/238
s off
f 58/109/239 57/44/240 87/42/241 86/79/242
s 15
f 88/139/232 87/163/231 57/25/243 61/35/244
s off
f 85/140/245 88/152/246 61/33/247 62/60/248
f 81/59/249 82/29/250 90/37/251 89/65/252
f 82/29/253 88/139/254 91/40/255 90/37/256
f 88/125/257 85/77/258 92/70/259 91/155/260
f 85/77/261 81/59/262 89/65/263 92/70/264
f 86/150/265 87/124/266 94/171/267 93/47/268
f 87/163/269 84/147/270 95/115/271 94/108/272
f 84/147/273 83/74/274 96/46/275 95/115/276
f 83/74/277 86/150/278 93/47/279 96/46/280
