# This file uses centimeters as units for non-parametric coordinates.

v -0.108738 0.000000 0.434005
v 0.095448 0.000000 0.434005
v -0.108738 1.035445 0.434005
v 0.095448 1.035445 0.434005
v -0.108738 1.035445 -0.448370
v 0.095448 1.035445 -0.448370
v -0.108738 0.000000 -0.448370
v 0.095448 0.000000 -0.448370
v 0.095448 1.389962 0.008300
v -0.108738 1.389962 0.008300
v -0.108738 0.000000 0.008300
v 0.095448 0.000000 0.008300
v 0.095448 1.348281 -0.230216
v -0.108738 1.348281 -0.230216
v -0.108738 0.000000 -0.230216
v 0.095448 0.000000 -0.230216
v 0.095448 1.348281 0.232455
v -0.108738 1.348281 0.232455
v -0.108738 0.000000 0.232455
v 0.095448 0.000000 0.232455
v 0.095448 1.265289 -0.345831
v -0.108738 1.265289 -0.345831
v -0.108738 0.000000 -0.345831
v 0.095448 0.000000 -0.345831
v 0.095448 1.265289 0.340940
v -0.108738 1.265289 0.340940
v -0.108738 0.000000 0.340940
v 0.095448 0.000000 0.340940
v 0.095448 0.185571 0.232455
v 0.095448 0.179440 0.340940
v 0.095448 0.162460 0.434005
v -0.108738 0.162460 0.434005
v -0.108738 0.179440 0.340940
v -0.108738 0.185571 0.232455
v -0.108738 0.188650 0.008300
v -0.108738 0.185571 -0.230216
v -0.108738 0.179440 -0.345831
v -0.108738 0.162460 -0.448370
v 0.095448 0.162460 -0.448370
v 0.095448 0.179440 -0.345831
v 0.095448 0.185571 -0.230216
v 0.095448 0.188650 0.008300
v -0.161127 0.000000 0.511074
v 0.147837 0.000000 0.511074
v 0.147837 0.162460 0.511074
v -0.161127 0.162460 0.511074
v -0.161127 0.162460 -0.525440
v 0.147837 0.162460 -0.525440
v 0.147837 0.000000 -0.525440
v -0.161127 0.000000 -0.525440
v 0.200225 0.000000 0.340940
v 0.200225 0.179440 0.340940
v -0.213515 0.000000 0.340940
v -0.213515 0.179440 0.340940
v -0.213515 0.000000 -0.230216
v -0.213515 0.000000 0.008300
v -0.213515 0.188650 0.008300
v -0.213515 0.185571 -0.230216
v 0.200225 0.000000 0.008300
v 0.200225 0.188650 0.008300
v 0.200225 0.000000 -0.230216
v 0.200225 0.185571 -0.230216
v -0.213515 0.000000 -0.345831
v -0.213515 0.179440 -0.345831
v 0.200225 0.000000 -0.345831
v 0.200225 0.179440 -0.345831
v -0.213515 0.000000 0.232455
v -0.213515 0.185571 0.232455
v 0.200225 0.185571 0.232455
v 0.200225 0.000000 0.232455
vt 0.132418 0.671890
vt 0.132418 0.537936
vt 0.202855 0.537936
vt 0.202855 0.671890
vt 0.781395 0.380484
vt 0.869922 0.380484
vt 0.869922 0.480136
vt 0.781395 0.480136
vt 0.781395 0.001992
vt 0.869922 0.001992
vt 0.869922 0.516118
vt 0.781395 0.516118
vt 0.056223 0.671890
vt 0.056223 0.537936
vt 0.126659 0.537936
vt 0.126659 0.671890
vt 0.435878 0.913564
vt 0.524405 0.913564
vt 0.524405 0.953914
vt 0.435878 0.953914
vt 0.435878 0.866530
vt 0.524405 0.866530
vt 0.569832 0.913564
vt 0.547118 0.987328
vt 0.413164 0.987328
vt 0.390450 0.913564
vt 0.435878 0.769345
vt 0.524405 0.769345
vt 0.569832 0.866530
vt 0.390450 0.866530
vt 0.435878 0.665934
vt 0.524405 0.665934
vt 0.569832 0.769345
vt 0.390450 0.769345
vt 0.435878 0.615807
vt 0.524405 0.615807
vt 0.569832 0.665934
vt 0.390450 0.665934
vt 0.435878 0.571350
vt 0.524405 0.571350
vt 0.569832 0.615807
vt 0.390450 0.615807
vt 0.413164 0.537936
vt 0.547118 0.537936
vt 0.760732 0.987328
vt 0.760732 0.913564
vt 0.838530 0.913564
vt 0.831168 0.987328
vt 0.760732 0.866530
vt 0.841188 0.866530
vt 0.842523 0.769345
vt 0.760732 0.769345
vt 0.760732 0.665933
vt 0.841188 0.665933
vt 0.760732 0.615807
vt 0.838530 0.615807
vt 0.760732 0.537936
vt 0.831168 0.537936
vt 0.302900 0.611700
vt 0.302900 0.537936
vt 0.373336 0.537936
vt 0.380698 0.611700
vt 0.302900 0.658734
vt 0.383356 0.658734
vt 0.302900 0.755919
vt 0.384691 0.755919
vt 0.302900 0.859330
vt 0.383356 0.859330
vt 0.302900 0.909457
vt 0.380698 0.909457
vt 0.302900 0.987328
vt 0.373336 0.987328
vt 0.208614 0.635121
vt 0.297141 0.635121
vt 0.297141 0.738532
vt 0.208614 0.738532
vt 0.208614 0.537936
vt 0.297141 0.537936
vt 0.297141 0.788658
vt 0.208614 0.788658
vt 0.848282 0.519865
vt 0.936809 0.519865
vt 0.936809 0.619516
vt 0.848282 0.619516
vt 0.936809 0.998008
vt 0.848282 0.998008
vt 0.042219 0.480136
vt 0.042219 0.009354
vt 0.089254 0.012012
vt 0.089254 0.516118
vt 0.001870 0.001992
vt 0.001870 0.380484
vt 0.186439 0.013347
vt 0.186439 0.534189
vt 0.289850 0.012012
vt 0.289850 0.516118
vt 0.339976 0.009354
vt 0.339976 0.480136
vt 0.384433 0.001992
vt 0.384433 0.380484
vt 0.733938 0.009354
vt 0.774287 0.001992
vt 0.774287 0.380484
vt 0.733938 0.480136
vt 0.686903 0.012012
vt 0.686903 0.516118
vt 0.589718 0.013347
vt 0.589718 0.534189
vt 0.486307 0.012012
vt 0.486307 0.516118
vt 0.436180 0.009354
vt 0.436180 0.480136
vt 0.391724 0.001992
vt 0.391724 0.380484
vt 0.709545 0.571350
vt 0.621018 0.571350
vt 0.598305 0.537936
vt 0.732259 0.537936
vt 0.621018 0.611700
vt 0.575591 0.611700
vt 0.709545 0.611700
vt 0.754973 0.611700
vt 0.621018 0.658734
vt 0.575591 0.658734
vt 0.709545 0.658734
vt 0.754973 0.658734
vt 0.621018 0.755919
vt 0.575591 0.755919
vt 0.709545 0.755919
vt 0.754973 0.755919
vt 0.621018 0.859330
vt 0.575591 0.859330
vt 0.709545 0.859330
vt 0.754973 0.859330
vt 0.621018 0.909457
vt 0.575591 0.909457
vt 0.709545 0.909457
vt 0.754973 0.909457
vt 0.621018 0.953914
vt 0.598305 0.987328
vt 0.709545 0.953914
vt 0.732259 0.987328
vn 0.000000 0.000000 1.000000
vn 0.000000 0.000000 1.000000
vn 0.000000 0.000000 1.000000
vn 0.000000 0.000000 1.000000
vn 0.000000 0.084089 0.996458
vn 0.000000 0.084089 0.996458
vn 0.000000 0.541595 0.840639
vn 0.000000 0.541595 0.840639
vn 0.000000 0.000000 -1.000000
vn 0.000000 0.000000 -1.000000
vn 0.000000 0.000000 -1.000000
vn 0.000000 0.000000 -1.000000
vn 0.000000 -1.000000 0.000000
vn 0.000000 -1.000000 0.000000
vn 0.000000 -1.000000 0.000000
vn 0.000000 -1.000000 0.000000
vn 0.955716 0.000000 0.294289
vn 0.983372 0.000000 0.181605
vn 0.955717 0.000000 0.294289
vn 0.984334 0.000000 0.176312
vn -0.955716 0.000000 0.294289
vn -0.955717 0.000000 0.294289
vn -0.983372 0.000000 0.181605
vn -0.984334 0.000000 0.176312
vn 0.000000 1.000000 -0.000000
vn 0.000000 1.000000 0.000000
vn 0.000000 0.943253 -0.332075
vn 0.000000 0.943253 -0.332074
vn -1.000000 0.000000 0.000000
vn -1.000000 0.000000 0.000000
vn -1.000000 0.000000 0.000000
vn -1.000000 0.000000 0.000000
vn 0.000000 -1.000000 0.000000
vn 0.000000 -1.000000 0.000000
vn 0.000000 -1.000000 0.000000
vn 0.000000 -1.000000 0.000000
vn 1.000000 0.000000 0.000000
vn 1.000000 -0.000000 0.000000
vn 1.000000 -0.000000 0.000000
vn 1.000000 -0.000000 0.000000
vn 0.000000 0.571999 -0.820254
vn 0.000000 0.571999 -0.820254
vn -0.985134 0.000000 -0.171788
vn -0.985951 0.000000 -0.167033
vn 0.000000 -1.000000 0.000000
vn 0.000000 -1.000000 0.000000
vn 0.985951 0.000000 -0.167033
vn 0.985134 0.000000 -0.171788
vn 0.000000 0.936391 0.350958
vn 0.000000 0.936391 0.350958
vn -1.000000 0.000000 0.000000
vn -1.000000 0.000000 0.000000
vn 0.000000 -1.000000 0.000000
vn 0.000000 -1.000000 0.000000
vn 1.000000 0.000000 0.000000
vn 1.000000 0.000000 0.000000
vn 0.000000 0.092579 -0.995705
vn 0.000000 0.092579 -0.995705
vn -0.959996 0.000000 -0.280014
vn -0.959996 0.000000 -0.280014
vn 0.000000 -1.000000 0.000000
vn 0.000000 -1.000000 0.000000
vn 0.959996 0.000000 -0.280014
vn 0.959996 0.000000 -0.280014
vn 1.000000 -0.000000 0.000000
vn 1.000000 -0.000000 0.000000
vn 1.000000 -0.000000 0.000000
vn 1.000000 0.000000 0.000000
vn 1.000000 0.000000 0.000000
vn 1.000000 0.000000 0.000000
vn 0.000000 0.000000 1.000000
vn 0.000000 0.000000 1.000000
vn -1.000000 0.000000 0.000000
vn -1.000000 0.000000 0.000000
vn -1.000000 0.000000 0.000000
vn -1.000000 0.000000 0.000000
vn -1.000000 0.000000 0.000000
vn -1.000000 0.000000 0.000000
vn -1.000000 -0.000000 0.000000
vn -1.000000 0.000000 0.000000
vn -1.000000 -0.000000 0.000000
vn -1.000000 -0.000000 0.000000
vn -1.000000 0.000000 0.000000
vn -1.000000 -0.000000 0.000000
vn -1.000000 0.000000 0.000000
vn -1.000000 0.000000 0.000000
vn 0.000000 0.000000 -1.000000
vn 0.000000 0.000000 -1.000000
vn 1.000000 0.000000 0.000000
vn 1.000000 0.000000 0.000000
vn 1.000000 0.000000 0.000000
vn 1.000000 0.000000 0.000000
vn 1.000000 0.000000 0.000000
vn 1.000000 -0.000000 0.000000
vn 1.000000 0.000000 0.000000
vn 1.000000 -0.000000 0.000000
vn 0.000000 -1.000000 0.000000
vn 0.000000 -1.000000 0.000000
vn -0.034536 0.998317 0.046588
vn 0.027964 0.998897 0.037724
vn -0.040082 0.998825 0.027246
vn 0.033757 0.999167 0.022946
vn 0.034540 0.998403 -0.044696
vn -0.028115 0.998942 -0.036381
vn 0.039086 0.998883 -0.026569
vn -0.032960 0.999206 -0.022405
vn 0.000000 -1.000000 0.000000
vn 0.000000 -1.000000 0.000000
vn 0.000000 -1.000000 0.000000
vn 0.000000 0.993490 0.113918
vn -0.022088 0.995966 0.086973
vn 0.000000 -1.000000 0.000000
vn 0.000000 0.993490 0.113919
vn 0.022087 0.995966 0.086973
vn 0.000000 -1.000000 0.000000
vn 0.000000 -1.000000 0.000000
vn 0.000000 1.000000 -0.000000
vn 0.000000 0.999662 -0.025999
vn 0.000000 1.000000 0.000000
vn 0.000000 0.999662 -0.025999
vn 0.000000 -1.000000 0.000000
vn 0.000000 -1.000000 0.000000
vn 0.000000 0.999662 -0.025999
vn 0.000000 1.000000 -0.000000
vn 0.000000 0.999662 -0.025999
vn 0.000000 1.000000 0.000000
vn 0.000000 -1.000000 0.000000
vn 0.000000 0.994436 -0.105348
vn 0.019404 0.996368 -0.082915
vn 0.000000 -1.000000 0.000000
vn 0.000000 0.994436 -0.105348
vn -0.019404 0.996368 -0.082915
vn 0.000000 -1.000000 0.000000
vn 0.000000 0.999617 0.027678
vn 0.000000 0.999617 0.027678
vn 0.000000 0.999617 0.027678
vn 0.000000 0.999617 0.027678
vn 0.000000 -1.000000 0.000000
g pCube1
f 43/1/1 44/2/2 46/4/3
f 46/4/3 44/2/2 45/3/4
f 3/5/5 4/6/6 26/8/7
f 26/8/7 4/6/6 25/7/8
f 47/13/9 48/14/10 50/16/11
f 50/16/11 48/14/10 49/15/12
f 27/17/13 28/18/14 1/20/15
f 1/20/15 28/18/14 2/19/16
f 44/45/17 51/46/18 45/48/19
f 45/48/19 51/46/18 52/47/20
f 43/60/21 46/61/22 53/59/23
f 53/59/23 46/61/22 54/62/24
f 10/73/25 9/74/26 14/76/27
f 14/76/27 9/74/26 13/75/28
f 55/67/29 56/65/30 58/68/31
f 58/68/31 56/65/30 57/66/32
f 15/31/33 16/32/34 11/27/35
f 11/27/35 16/32/34 12/28/36
f 60/51/37 59/52/38 62/54/39
f 62/54/39 59/52/38 61/53/40
f 14/76/27 13/75/28 22/80/41
f 22/80/41 13/75/28 21/79/42
f 63/69/43 55/67/29 64/70/44
f 64/70/44 55/67/29 58/68/31
f 23/35/45 24/36/46 15/31/33
f 15/31/33 24/36/46 16/32/34
f 62/54/39 61/53/40 66/56/47
f 66/56/47 61/53/40 65/55/48
f 18/77/49 17/78/50 10/73/25
f 10/73/25 17/78/50 9/74/26
f 67/63/51 68/64/52 56/65/30
f 56/65/30 68/64/52 57/66/32
f 11/27/35 12/28/36 19/21/53
f 19/21/53 12/28/36 20/22/54
f 60/51/37 69/50/55 59/52/38
f 59/52/38 69/50/55 70/49/56
f 22/81/41 21/82/42 5/84/57
f 5/84/57 21/82/42 6/83/58
f 50/71/59 63/69/43 47/72/60
f 47/72/60 63/69/43 64/70/44
f 7/39/61 8/40/62 23/35/45
f 23/35/45 8/40/62 24/36/46
f 66/56/47 65/55/48 48/58/63
f 48/58/63 65/55/48 49/57/64
f 26/8/7 25/7/8 18/12/49
f 18/12/49 25/7/8 17/11/50
f 53/59/23 54/62/24 67/63/51
f 67/63/51 54/62/24 68/64/52
f 19/21/53 20/22/54 27/17/13
f 27/17/13 20/22/54 28/18/14
f 51/46/18 70/49/56 52/47/20
f 52/47/20 70/49/56 69/50/55
f 30/88/65 29/89/66 25/87/67
f 25/87/67 29/89/66 17/90/68
f 31/91/69 30/88/65 4/92/70
f 4/92/70 30/88/65 25/87/67
f 32/9/71 31/10/72 3/5/5
f 3/5/5 31/10/72 4/6/6
f 32/102/73 3/103/74 33/101/75
f 33/101/75 3/103/74 26/104/76
f 33/101/75 26/104/76 34/105/77
f 34/105/77 26/104/76 18/106/78
f 34/105/77 18/106/78 35/107/79
f 35/107/79 18/106/78 10/108/80
f 36/109/81 35/107/79 14/110/82
f 14/110/82 35/107/79 10/108/80
f 37/111/83 36/109/81 22/112/84
f 22/112/84 36/109/81 14/110/82
f 38/113/85 37/111/83 5/114/86
f 5/114/86 37/111/83 22/112/84
f 5/84/57 6/83/58 38/86/87
f 38/86/87 6/83/58 39/85/88
f 21/98/89 40/97/90 6/100/91
f 6/100/91 40/97/90 39/99/92
f 13/96/93 41/95/94 21/98/89
f 21/98/89 41/95/94 40/97/90
f 9/94/95 42/93/96 13/96/93
f 13/96/93 42/93/96 41/95/94
f 29/89/66 42/93/96 17/90/68
f 17/90/68 42/93/96 9/94/95
f 1/20/15 2/19/16 43/25/97
f 43/25/97 2/19/16 44/24/98
f 31/115/99 32/116/100 45/118/101
f 45/118/101 32/116/100 46/117/102
f 38/139/103 39/141/104 47/140/105
f 47/140/105 39/141/104 48/142/106
f 8/40/62 7/39/61 49/44/107
f 49/44/107 7/39/61 50/43/108
f 28/18/14 51/23/109 2/19/16
f 2/19/16 51/23/109 44/24/98
f 30/121/110 31/115/99 52/122/111
f 52/122/111 31/115/99 45/118/101
f 27/17/13 1/20/15 53/26/112
f 53/26/112 1/20/15 43/25/97
f 33/119/113 54/120/114 32/116/100
f 32/116/100 54/120/114 46/117/102
f 15/31/33 11/27/35 55/38/115
f 55/38/115 11/27/35 56/34/116
f 35/127/117 36/131/118 57/128/119
f 57/128/119 36/131/118 58/132/120
f 12/28/36 16/32/34 59/33/121
f 59/33/121 16/32/34 61/37/122
f 41/133/123 42/129/124 62/134/125
f 62/134/125 42/129/124 60/130/126
f 23/35/45 15/31/33 63/42/127
f 63/42/127 15/31/33 55/38/115
f 36/131/118 37/135/128 58/132/120
f 58/132/120 37/135/128 64/136/129
f 16/32/34 24/36/46 61/37/122
f 61/37/122 24/36/46 65/41/130
f 40/137/131 41/133/123 66/138/132
f 66/138/132 41/133/123 62/134/125
f 11/27/35 19/21/53 56/34/116
f 56/34/116 19/21/53 67/30/133
f 34/123/134 35/127/117 68/124/135
f 68/124/135 35/127/117 57/128/119
f 42/129/124 29/125/136 60/130/126
f 60/130/126 29/125/136 69/126/137
f 20/22/54 12/28/36 70/29/138
f 70/29/138 12/28/36 59/33/121
f 23/35/45 63/42/127 7/39/61
f 7/39/61 63/42/127 50/43/108
f 37/135/128 38/139/103 64/136/129
f 64/136/129 38/139/103 47/140/105
f 24/36/46 8/40/62 65/41/130
f 65/41/130 8/40/62 49/44/107
f 40/137/131 66/138/132 39/141/104
f 39/141/104 66/138/132 48/142/106
f 19/21/53 27/17/13 67/30/133
f 67/30/133 27/17/13 53/26/112
f 33/119/113 34/123/134 54/120/114
f 54/120/114 34/123/134 68/124/135
f 28/18/14 20/22/54 51/23/109
f 51/23/109 20/22/54 70/29/138
f 29/125/136 30/121/110 69/126/137
f 69/126/137 30/121/110 52/122/111
