# This file uses centimeters as units for non-parametric coordinates.

v -0.018165 3.903507 0.077648
v -0.018165 -0.012325 0.077648
v 0.087693 3.903507 0.077648
v 0.087693 -0.012325 0.077648
v 0.087693 3.903507 -0.098433
v 0.087693 -0.012325 -0.098433
v -0.018165 3.903507 -0.098433
v -0.018165 -0.012325 -0.098433
v 0.087693 3.737590 0.077648
v 0.087693 3.737590 -0.098433
v -0.018165 3.737590 -0.098433
v -0.018165 3.737590 0.077648
v 0.087693 3.403721 0.077648
v 0.087693 3.403721 -0.098433
v -0.018165 3.403721 -0.098433
v -0.018165 3.403721 0.077648
v 0.150036 3.737590 0.470476
v 0.150036 3.403721 0.470476
v 0.150036 3.403721 -0.491260
v 0.127330 3.737590 -0.491260
v -0.057803 3.737590 -0.491260
v -0.080509 3.403721 -0.491260
v -0.080509 3.737590 0.470476
v -0.080509 3.403721 0.470476
v 0.092327 3.545376 -1.147473
v -0.022799 3.545375 -1.147473
v 0.092327 3.359935 -1.147473
v -0.022799 3.359934 -1.147473
v -0.057760 3.512835 1.132568
v 0.127288 3.512836 1.132568
v -0.057760 3.316911 1.132568
v 0.127288 3.316911 1.132568
v 0.041403 3.321448 -1.605459
v 0.028124 3.321448 -1.605459
v 0.041230 3.304541 -1.605710
v 0.028298 3.304541 -1.605710
v -0.052200 3.305548 1.503456
v 0.121721 3.305548 1.503456
v -0.053392 3.211660 1.597664
v 0.122920 3.211661 1.597664
vt 0.906193 0.001992
vt 0.936217 0.001992
vt 0.906193 0.038002
vt 0.936217 0.038002
vt 0.711426 0.001992
vt 0.741449 0.001992
vt 0.711426 0.056524
vt 0.741449 0.056524
vt 0.868658 0.001992
vt 0.898681 0.001992
vt 0.868658 0.038002
vt 0.898681 0.038002
vt 0.790042 0.001992
vt 0.820065 0.001992
vt 0.790042 0.056523
vt 0.820065 0.056523
vt 0.747992 0.056524
vt 0.747992 0.001992
vt 0.784001 0.056524
vt 0.784001 0.001992
vt 0.826607 0.056524
vt 0.826607 0.001992
vt 0.862617 0.056524
vt 0.862617 0.001992
vt 0.254355 0.351077
vt 0.340384 0.351077
vt 0.254355 0.648923
vt 0.340384 0.648923
vt 0.184012 0.928390
vt 0.231263 0.928390
vt 0.201982 0.998008
vt 0.213293 0.998008
vt 0.001869 0.648923
vt 0.001869 0.351077
vt 0.087898 0.648923
vt 0.087898 0.351077
vt 0.231263 0.071610
vt 0.184012 0.071610
vt 0.213293 0.001992
vt 0.201982 0.001992
vt 0.506658 0.594522
vt 0.506658 0.001992
vt 0.561189 0.594522
vt 0.561189 0.001992
vt 0.705385 0.594522
vt 0.669375 0.594522
vt 0.705385 0.001992
vt 0.669375 0.001992
vt 0.621523 0.594522
vt 0.566991 0.594522
vt 0.621523 0.001992
vt 0.566991 0.001992
vt 0.663334 0.594522
vt 0.627325 0.594522
vt 0.663334 0.001992
vt 0.627325 0.001992
vt 0.477946 0.527266
vt 0.477946 0.472734
vt 0.499153 0.648923
vt 0.499153 0.351077
vt 0.225642 0.527266
vt 0.225642 0.472734
vt 0.246850 0.648923
vt 0.246850 0.351077
vt 0.189633 0.527266
vt 0.168425 0.648923
vt 0.441936 0.472734
vt 0.420729 0.351077
vt 0.189633 0.472734
vt 0.168425 0.351077
vt 0.441936 0.527266
vt 0.420729 0.648923
vt 0.176164 0.853970
vt 0.239111 0.853970
vt 0.315157 0.853970
vt 0.376368 0.853970
vt 0.491415 0.146030
vt 0.428467 0.146030
vt 0.062671 0.146030
vt 0.123882 0.146030
vt 0.239111 0.146030
vt 0.176164 0.146030
vt 0.062671 0.853970
vt 0.123882 0.853970
vt 0.428467 0.853970
vt 0.491415 0.853970
vt 0.315157 0.146030
vt 0.376368 0.146030
vt 0.349536 0.928390
vt 0.414416 0.998008
vt 0.465596 0.001992
vt 0.454286 0.001992
vt 0.097050 0.071610
vt 0.161930 0.001992
vt 0.097050 0.928390
vt 0.161930 0.998008
vt 0.454286 0.998008
vt 0.465596 0.998008
vt 0.349536 0.071610
vt 0.414416 0.001992
vn 0.000000 0.000000 1.000000
vn 0.000000 0.000000 1.000000
vn 0.000000 0.000000 1.000000
vn 0.000000 0.000000 1.000000
vn 0.000000 0.000000 1.000000
vn 0.000000 0.000000 1.000000
vn 1.000000 -0.000000 0.000000
vn 1.000000 -0.000000 0.000000
vn 1.000000 -0.000000 0.000000
vn 1.000000 -0.000000 0.000000
vn 1.000000 -0.000000 0.000000
vn 1.000000 -0.000000 0.000000
vn 0.000000 0.000000 -1.000000
vn 0.000000 0.000000 -1.000000
vn 0.000000 0.000000 -1.000000
vn 0.000000 0.000000 -1.000000
vn 0.000000 0.000000 -1.000000
vn 0.000000 0.000000 -1.000000
vn -1.000000 0.000000 0.000000
vn -1.000000 0.000000 0.000000
vn -1.000000 0.000000 0.000000
vn -1.000000 0.000000 0.000000
vn -1.000000 0.000000 0.000000
vn -1.000000 0.000000 0.000000
vn -0.000000 -1.000000 0.000000
vn -0.000000 -1.000000 0.000000
vn -0.000000 -1.000000 0.000000
vn -0.000000 -1.000000 0.000000
vn -0.000000 -1.000000 0.000000
vn -0.000000 -1.000000 0.000000
vn 0.000000 1.000000 0.000000
vn 0.000000 1.000000 0.000000
vn 0.000000 1.000000 0.000000
vn 0.000000 1.000000 0.000000
vn 0.000000 1.000000 0.000000
vn 0.000000 1.000000 0.000000
vn 0.999938 -0.000000 0.011185
vn 0.999891 -0.000000 0.014759
vn 0.999938 -0.000000 -0.011185
vn 0.999938 -0.000000 -0.011185
vn 0.999891 -0.000000 0.014759
vn 0.999891 -0.000000 -0.014759
vn 0.000000 0.531194 -0.847250
vn 0.000000 0.531194 -0.847250
vn 0.000000 0.531194 -0.847250
vn 0.000000 0.531194 -0.847250
vn 0.000000 0.531194 -0.847250
vn 0.000000 0.531194 -0.847250
vn -0.999938 0.000000 0.011185
vn -0.999938 0.000000 -0.011185
vn -0.999891 0.000000 0.014759
vn -0.999891 0.000000 0.014759
vn -0.999938 0.000000 -0.011185
vn -0.999891 0.000000 -0.014759
vn 0.000000 0.531194 0.847250
vn 0.000000 0.531194 0.847250
vn 0.000000 0.531194 0.847250
vn 0.000000 0.531194 0.847250
vn 0.000000 0.531194 0.847250
vn 0.000000 0.531193 0.847251
vn 1.000000 -0.000000 0.000000
vn 1.000000 -0.000000 0.000000
vn 1.000000 -0.000000 0.000000
vn 1.000000 -0.000000 0.000000
vn 1.000000 -0.000000 0.000000
vn 1.000000 -0.000000 0.000000
vn 0.000000 0.000000 -1.000000
vn 0.000000 0.000000 -1.000000
vn 0.000000 0.000000 -1.000000
vn 0.000000 0.000000 -1.000000
vn 0.000000 0.000000 -1.000000
vn 0.000000 0.000000 -1.000000
vn -1.000000 0.000000 0.000000
vn -1.000000 0.000000 0.000000
vn -1.000000 0.000000 0.000000
vn -1.000000 0.000000 0.000000
vn -1.000000 0.000000 0.000000
vn -1.000000 0.000000 0.000000
vn 0.000000 0.000000 1.000000
vn 0.000000 0.000000 1.000000
vn 0.000000 0.000000 1.000000
vn 0.000000 0.000000 1.000000
vn 0.000000 0.000000 1.000000
vn 0.000000 0.000000 1.000000
vn 0.000003 -1.000000 0.000000
vn 0.000003 -1.000000 0.000000
vn -0.000000 -0.982733 -0.185031
vn -0.000000 -0.982733 -0.185031
vn 0.000003 -1.000000 0.000000
vn -0.000000 -0.981364 0.192157
vn 0.000003 1.000000 0.000000
vn 0.000000 1.000000 0.000000
vn 0.000000 0.952814 -0.303554
vn 0.000000 0.952814 -0.303554
vn 0.000000 1.000000 0.000000
vn 0.000000 0.949339 0.314255
vn -0.000003 1.000000 0.000000
vn 0.000003 1.000000 0.000000
vn 0.000000 0.949339 -0.314254
vn 0.000000 0.949339 -0.314254
vn 0.000003 1.000000 0.000000
vn 0.000000 0.952814 -0.303554
vn 0.000003 -1.000000 0.000000
vn 0.000003 -1.000000 0.000000
vn -0.000000 -0.981364 0.192157
vn -0.000000 -0.981364 0.192157
vn 0.000003 -1.000000 0.000000
vn -0.000000 -0.982733 0.185031
vn 0.000000 1.000000 0.000000
vn -0.000003 1.000000 0.000000
vn 0.000000 0.952814 0.303554
vn 0.000000 0.952814 0.303554
vn -0.000003 1.000000 0.000000
vn 0.000000 0.949339 -0.314254
vn 0.000003 -1.000000 0.000000
vn -0.000003 -1.000000 0.000000
vn -0.000000 -0.982733 0.185031
vn -0.000000 -0.982733 0.185031
vn -0.000003 -1.000000 0.000000
vn -0.000000 -0.981364 -0.192157
vn 0.000000 1.000000 0.000000
vn 0.000000 1.000000 0.000000
vn 0.000000 0.949339 0.314255
vn 0.000000 0.949339 0.314255
vn 0.000000 1.000000 0.000000
vn 0.000000 0.952814 0.303554
vn -0.000003 -1.000000 0.000000
vn 0.000003 -1.000000 0.000000
vn -0.000000 -0.981364 -0.192157
vn -0.000000 -0.981364 -0.192157
vn 0.000003 -1.000000 0.000000
vn -0.000000 -0.982733 -0.185031
vn 0.000000 0.949339 -0.314254
vn 0.000000 0.952814 -0.303554
vn 0.000000 0.866245 -0.499620
vn 0.000000 0.866245 -0.499620
vn 0.000000 0.952814 -0.303554
vn 0.000000 0.866741 -0.498758
vn 0.999938 -0.000000 -0.011185
vn 0.999891 -0.000000 -0.014759
vn 0.999119 -0.000000 -0.041976
vn 0.999119 -0.000000 -0.041976
vn 0.999891 -0.000000 -0.014759
vn 0.997521 -0.015000 -0.068747
vn -0.000000 -0.981364 0.192157
vn -0.000000 -0.982733 0.185031
vn -0.000000 -0.941819 0.336121
vn -0.000000 -0.941819 0.336121
vn -0.000000 -0.982733 0.185031
vn -0.000000 -0.941696 0.336464
vn -0.999938 0.000000 -0.011185
vn -0.999119 0.000000 -0.041976
vn -0.999891 0.000000 -0.014759
vn -0.999891 0.000000 -0.014759
vn -0.999119 0.000000 -0.041976
vn -0.997521 -0.015000 -0.068747
vn 0.000000 0.949339 0.314255
vn 0.000000 0.952814 0.303554
vn 0.000000 0.866245 0.499620
vn 0.000000 0.866245 0.499620
vn 0.000000 0.952814 0.303554
vn 0.000000 0.866741 0.498758
vn -0.999938 0.000000 0.011185
vn -0.999891 0.000000 0.014759
vn -0.999119 0.000000 0.041976
vn -0.999119 0.000000 0.041976
vn -0.999891 0.000000 0.014759
vn -0.997521 -0.015000 0.068747
vn -0.000000 -0.981364 -0.192157
vn -0.000000 -0.982733 -0.185031
vn -0.000000 -0.941819 -0.336120
vn -0.000000 -0.941819 -0.336120
vn -0.000000 -0.982733 -0.185031
vn -0.000000 -0.941696 -0.336464
vn 0.999938 -0.000000 0.011185
vn 0.999119 -0.000000 0.041976
vn 0.999891 -0.000000 0.014759
vn 0.999891 -0.000000 0.014759
vn 0.999119 -0.000000 0.041976
vn 0.997521 -0.015000 0.068747
vn 0.000000 0.866245 -0.499620
vn 0.000000 0.866741 -0.498758
vn 0.000000 0.784443 -0.620201
vn 0.000000 0.784443 -0.620201
vn 0.000000 0.866741 -0.498758
vn 0.000000 0.784443 -0.620201
vn 0.999119 -0.000000 -0.041976
vn 0.997521 -0.015000 -0.068747
vn 0.991868 -0.040958 -0.120504
vn 0.991868 -0.040958 -0.120504
vn 0.997521 -0.015000 -0.068747
vn 0.989123 -0.062150 -0.133318
vn -0.000000 -0.941819 0.336121
vn -0.000000 -0.941696 0.336464
vn -0.000000 -0.911207 0.411948
vn -0.000000 -0.911207 0.411948
vn -0.000000 -0.941696 0.336464
vn -0.000000 -0.911207 0.411949
vn -0.999119 0.000000 -0.041976
vn -0.991868 -0.040958 -0.120504
vn -0.997521 -0.015000 -0.068747
vn -0.997521 -0.015000 -0.068747
vn -0.991868 -0.040958 -0.120504
vn -0.989123 -0.062150 -0.133318
vn 0.000000 0.866245 0.499620
vn 0.000000 0.866741 0.498758
vn 0.000000 0.784443 0.620201
vn 0.000000 0.784443 0.620201
vn 0.000000 0.866741 0.498758
vn 0.000000 0.784443 0.620201
vn -0.999119 0.000000 0.041976
vn -0.997521 -0.015000 0.068747
vn -0.991868 -0.040958 0.120504
vn -0.991868 -0.040958 0.120504
vn -0.997521 -0.015000 0.068747
vn -0.989123 -0.062150 0.133317
vn -0.000000 -0.941819 -0.336120
vn -0.000000 -0.941696 -0.336464
vn -0.000000 -0.911207 -0.411948
vn -0.000000 -0.911207 -0.411948
vn -0.000000 -0.941696 -0.336464
vn -0.000000 -0.911207 -0.411948
vn 0.999119 -0.000000 0.041976
vn 0.991868 -0.040958 0.120504
vn 0.997521 -0.015000 0.068747
vn 0.997521 -0.015000 0.068747
vn 0.991868 -0.040958 0.120504
vn 0.989123 -0.062150 0.133317
s off
g Dragon_Pick:pCube2
f 1/1/1 12/2/2 3/3/3
f 3/3/4 12/2/5 9/4/6
f 3/5/7 9/6/8 5/7/9
f 5/7/10 9/6/11 10/8/12
f 5/9/13 10/10/14 7/11/15
f 7/11/16 10/10/17 11/12/18
f 7/13/19 11/14/20 1/15/21
f 1/15/22 11/14/23 12/16/24
f 2/17/25 8/18/26 4/19/27
f 4/19/28 8/18/29 6/20/30
f 7/21/31 1/22/32 5/23/33
f 5/23/34 1/22/35 3/24/36
f 17/25/37 18/26/38 20/27/39
f 20/27/40 18/26/41 19/28/42
f 34/29/43 33/30/44 36/31/45
f 36/31/46 33/30/47 35/32/48
f 23/33/49 21/34/50 24/35/51
f 24/35/52 21/34/53 22/36/54
f 38/37/55 37/38/56 40/39/57
f 40/39/58 37/38/59 39/40/60
f 13/41/61 4/42/62 14/43/63
f 14/43/64 4/42/65 6/44/66
f 15/45/67 14/46/68 8/47/69
f 8/47/70 14/46/71 6/48/72
f 16/49/73 15/50/74 2/51/75
f 2/51/76 15/50/77 8/52/78
f 13/53/79 16/54/80 4/55/81
f 4/55/82 16/54/83 2/56/84
f 13/57/85 14/58/86 18/59/87
f 18/59/88 14/58/89 19/60/90
f 10/61/91 9/62/92 20/63/93
f 20/63/94 9/62/95 17/64/96
f 11/65/97 10/61/98 21/66/99
f 21/66/100 10/61/101 20/63/102
f 14/58/103 15/67/104 19/60/105
f 19/60/106 15/67/107 22/68/108
f 12/69/109 11/65/110 23/70/111
f 23/70/112 11/65/113 21/66/114
f 15/67/115 16/71/116 22/68/117
f 22/68/118 16/71/119 24/72/120
f 9/62/121 12/69/122 17/64/123
f 17/64/124 12/69/125 23/70/126
f 16/71/127 13/57/128 24/72/129
f 24/72/130 13/57/131 18/59/132
f 21/66/133 20/63/134 26/73/135
f 26/73/136 20/63/137 25/74/138
f 20/27/139 19/28/140 25/75/141
f 25/75/142 19/28/143 27/76/144
f 19/60/145 22/68/146 27/77/147
f 27/77/148 22/68/149 28/78/150
f 21/34/151 26/79/152 22/36/153
f 22/36/154 26/79/155 28/80/156
f 17/64/157 23/70/158 30/81/159
f 30/81/160 23/70/161 29/82/162
f 23/33/163 24/35/164 29/83/165
f 29/83/166 24/35/167 31/84/168
f 24/72/169 18/59/170 31/85/171
f 31/85/172 18/59/173 32/86/174
f 17/25/175 30/87/176 18/26/177
f 18/26/178 30/87/179 32/88/180
f 26/73/181 25/74/182 34/29/183
f 34/29/184 25/74/185 33/30/186
f 25/75/187 27/76/188 33/89/189
f 33/89/190 27/76/191 35/90/192
f 27/77/193 28/78/194 35/91/195
f 35/91/196 28/78/197 36/92/198
f 26/79/199 34/93/200 28/80/201
f 28/80/202 34/93/203 36/94/204
f 30/81/205 29/82/206 38/37/207
f 38/37/208 29/82/209 37/38/210
f 29/83/211 31/84/212 37/95/213
f 37/95/214 31/84/215 39/96/216
f 31/85/217 32/86/218 39/97/219
f 39/97/220 32/86/221 40/98/222
f 30/87/223 38/99/224 32/88/225
f 32/88/226 38/99/227 40/100/228
