# This file uses centimeters as units for non-parametric coordinates.

v 0.092839 0.000000 -0.000000
v 0.085772 0.000000 -0.035528
v 0.065647 0.000000 -0.065647
v 0.035528 0.000000 -0.085772
v -0.000000 0.000000 -0.092839
v -0.035528 0.000000 -0.085772
v -0.065647 0.000000 -0.065647
v -0.085772 0.000000 -0.035528
v -0.092839 0.000000 0.000000
v -0.085772 0.000000 0.035528
v -0.065647 0.000000 0.065647
v -0.035528 0.000000 0.085772
v 0.000000 0.000000 0.092839
v 0.035528 0.000000 0.085772
v 0.065647 0.000000 0.065647
v 0.085772 0.000000 0.035528
v 0.092839 0.150912 0.000000
v 0.085772 0.150912 -0.035528
v 0.065647 0.150912 -0.065647
v 0.035528 0.150912 -0.085772
v -0.000000 0.150912 -0.092839
v -0.035528 0.150912 -0.085772
v -0.065647 0.150912 -0.065647
v -0.085772 0.150912 -0.035528
v -0.092839 0.150912 0.000000
v -0.085772 0.150912 0.035528
v -0.065647 0.150912 0.065647
v -0.035528 0.150912 0.085772
v 0.000000 0.150912 0.092839
v 0.035528 0.150912 0.085772
v 0.065647 0.150912 0.065647
v 0.085772 0.150912 0.035528
v 0.138093 0.150912 -0.000000
v 0.127582 0.150912 -0.052846
v 0.097647 0.150912 -0.097647
v 0.052846 0.150912 -0.127582
v -0.000000 0.150912 -0.138093
v -0.052846 0.150912 -0.127582
v -0.097647 0.150912 -0.097647
v -0.127582 0.150912 -0.052846
v -0.138093 0.150912 0.000000
v -0.127582 0.150912 0.052846
v -0.097647 0.150912 0.097647
v -0.052846 0.150912 0.127582
v 0.000000 0.150912 0.138093
v 0.052846 0.150912 0.127582
v 0.097647 0.150912 0.097647
v 0.127582 0.150912 0.052846
v 0.138093 0.000000 -0.000000
v 0.127582 0.000000 -0.052846
v 0.097647 0.000000 -0.097647
v 0.052846 0.000000 -0.127582
v -0.000000 0.000000 -0.138093
v -0.052846 0.000000 -0.127582
v -0.097647 0.000000 -0.097647
v -0.127582 0.000000 -0.052846
v -0.138093 0.000000 0.000000
v -0.127582 0.000000 0.052846
v -0.097647 0.000000 0.097647
v -0.052846 0.000000 0.127582
v 0.000000 0.000000 0.138093
v 0.052846 0.000000 0.127582
v 0.097647 0.000000 0.097647
v 0.127582 0.000000 0.052846
v -0.126741 0.279918 0.133983
v 0.001566 0.350325 0.133983
v 0.123595 0.279918 0.133983
v -0.126741 0.279918 -0.135225
v -0.006274 0.350325 -0.135225
v 0.123595 0.279918 -0.135225
v 0.001566 0.312934 0.133983
v -0.006274 0.312934 -0.135225
v -0.028842 0.150912 0.124956
v 0.019516 0.150912 0.124956
v -0.028842 0.279918 0.124956
v 0.019516 0.279918 0.124956
v -0.028842 0.279918 0.098306
v 0.019516 0.279918 0.098306
v -0.028842 0.150912 0.098306
v 0.019516 0.150912 0.098306
v -0.028842 0.150912 -0.098730
v 0.019516 0.150912 -0.098730
v -0.028842 0.279918 -0.098730
v 0.019516 0.279918 -0.098730
v -0.028842 0.279918 -0.125380
v 0.019516 0.279918 -0.125380
v -0.028842 0.150912 -0.125380
v 0.019516 0.150912 -0.125380
vt 0.007388 0.277275
vt 0.068753 0.277275
vt 0.130117 0.277275
vt 0.191481 0.277275
vt 0.252846 0.277275
vt 0.314210 0.277275
vt 0.375574 0.277275
vt 0.436939 0.277275
vt 0.498303 0.277275
vt 0.559667 0.277275
vt 0.621032 0.277275
vt 0.682396 0.277275
vt 0.743760 0.277275
vt 0.805125 0.277275
vt 0.866489 0.277275
vt 0.927853 0.277275
vt 0.989217 0.277275
vt 0.007388 0.078306
vt 0.068753 0.078306
vt 0.130117 0.078306
vt 0.191481 0.078306
vt 0.252846 0.078306
vt 0.314210 0.078306
vt 0.375574 0.078306
vt 0.436939 0.078306
vt 0.498303 0.078306
vt 0.559667 0.078306
vt 0.621031 0.078306
vt 0.682396 0.078306
vt 0.743760 0.078306
vt 0.805124 0.078306
vt 0.866489 0.078306
vt 0.927853 0.078306
vt 0.989218 0.078306
vt 0.007388 0.021330
vt 0.074036 0.483024
vt 0.135400 0.483024
vt 0.196765 0.483024
vt 0.258129 0.483024
vt 0.319493 0.483024
vt 0.380857 0.483024
vt 0.442222 0.483024
vt 0.503586 0.483024
vt 0.564950 0.483024
vt 0.626315 0.483024
vt 0.687679 0.483024
vt 0.749043 0.483024
vt 0.810408 0.483024
vt 0.871772 0.483024
vt 0.933136 0.483024
vt 0.994501 0.483024
vt 0.012672 0.284055
vt 0.071837 0.558945
vt 0.133201 0.558945
vt 0.194566 0.558945
vt 0.255930 0.558945
vt 0.317294 0.558945
vt 0.378659 0.558945
vt 0.440023 0.558945
vt 0.501387 0.558945
vt 0.562752 0.558945
vt 0.624116 0.558945
vt 0.685480 0.558945
vt 0.746845 0.558945
vt 0.808209 0.558945
vt 0.869573 0.558945
vt 0.930937 0.558945
vt 0.992302 0.558945
vt 0.010473 0.490279
vt 0.071837 0.490279
vt 0.133201 0.490279
vt 0.194566 0.490279
vt 0.255930 0.490279
vt 0.317294 0.490279
vt 0.378659 0.490279
vt 0.440023 0.490279
vt 0.501387 0.490279
vt 0.562752 0.490279
vt 0.624116 0.490279
vt 0.685480 0.490279
vt 0.746845 0.490279
vt 0.808209 0.490279
vt 0.869573 0.490279
vt 0.930937 0.490279
vt 0.992302 0.490279
vt 0.987324 0.607032
vt 0.987324 0.727031
vt 0.544889 0.727031
vt 0.544889 0.607032
vt 0.987324 0.847029
vt 0.544889 0.847029
vt 0.987324 0.967028
vt 0.544889 0.967028
vt 0.004009 0.737468
vt 0.004009 0.582580
vt 0.048721 0.656447
vt 0.138146 0.660024
vt 0.001992 0.739753
vt 0.001992 0.584864
vt 0.046704 0.658731
vt 0.136129 0.662308
vt 0.524325 0.674466
vt 0.524325 0.746332
vt 0.278993 0.747383
vt 0.278993 0.675449
vt 0.253622 0.747384
vt 0.253622 0.675449
vt 0.504206 0.746656
vt 0.156909 0.684713
vt 0.104048 0.737574
vt 0.104048 0.684713
vt 0.524325 0.811828
vt 0.279313 0.811828
vt 0.524325 0.608971
vt 0.279313 0.608971
vt 0.356286 0.990060
vt 0.010360 0.832994
vt 0.168424 0.833632
vt 0.383617 0.858431
vt 0.340711 0.910981
vt 0.340711 0.857429
vt 0.184382 0.910889
vt 0.103550 0.683522
vt 0.156305 0.736277
vt 0.103550 0.736277
vt 0.010649 0.778575
vt 0.167283 0.778575
vt 0.356525 0.941972
vt 0.026899 0.941972
vt 0.933136 0.284055
vt 0.994501 0.284055
vt 0.010473 0.558945
vt 0.871772 0.284055
vt 0.810408 0.284055
vt 0.749043 0.284055
vt 0.687679 0.284055
vt 0.626315 0.284055
vt 0.564950 0.284055
vt 0.503586 0.284055
vt 0.442222 0.284055
vt 0.380857 0.284055
vt 0.319493 0.284055
vt 0.258129 0.284055
vt 0.196765 0.284055
vt 0.135400 0.284055
vt 0.074036 0.284055
vt 0.927853 0.021330
vt 0.989218 0.021330
vt 0.012672 0.483024
vt 0.866489 0.021330
vt 0.805124 0.021330
vt 0.743760 0.021330
vt 0.682396 0.021330
vt 0.621031 0.021330
vt 0.559667 0.021330
vt 0.498303 0.021330
vt 0.436939 0.021330
vt 0.375574 0.021330
vt 0.314210 0.021330
vt 0.252846 0.021330
vt 0.191481 0.021330
vt 0.130117 0.021330
vt 0.068753 0.021330
vt 0.504206 0.674206
vt 0.156909 0.737574
vt 0.184382 0.858134
vt 0.156305 0.683522
vt 0.168424 0.886341
vt 0.383617 0.910981
vt 0.010360 0.885316
vt 0.027715 0.990171
vt 0.253622 0.675449
vt 0.253622 0.747384
vn -0.923879 0.000000 0.382684
vn -1.000000 0.000000 -0.000000
vn -0.923880 0.000000 0.382684
vn -1.000000 0.000000 -0.000000
vn -0.707107 0.000000 0.707107
vn -0.707107 0.000000 0.707107
vn -0.382683 0.000000 0.923880
vn -0.382683 0.000000 0.923880
vn 0.000000 0.000000 1.000000
vn 0.000001 0.000000 1.000000
vn 0.382684 0.000000 0.923879
vn 0.382684 0.000000 0.923879
vn 0.707107 0.000000 0.707107
vn 0.707107 0.000000 0.707107
vn 0.923880 0.000000 0.382683
vn 0.923880 0.000000 0.382683
vn 1.000000 0.000000 -0.000000
vn 1.000000 0.000000 -0.000000
vn 0.923880 0.000000 -0.382684
vn 0.923879 0.000000 -0.382684
vn 0.707107 0.000000 -0.707107
vn 0.707107 0.000000 -0.707107
vn 0.382683 0.000000 -0.923880
vn 0.382683 0.000000 -0.923880
vn -0.000000 0.000000 -1.000000
vn -0.000001 0.000000 -1.000000
vn -0.382684 0.000000 -0.923879
vn -0.382684 0.000000 -0.923879
vn -0.707107 0.000000 -0.707106
vn -0.707107 0.000000 -0.707106
vn -0.923880 0.000000 -0.382684
vn -0.923880 0.000000 -0.382684
vn 0.000000 1.000000 0.000000
vn 0.000000 1.000000 0.000000
vn 0.000000 1.000000 0.000000
vn 0.000000 1.000000 0.000000
vn 0.000000 1.000000 -0.000000
vn 0.000000 1.000000 0.000000
vn 0.000000 1.000000 0.000000
vn 0.000000 1.000000 0.000000
vn 0.000000 1.000000 -0.000000
vn 0.000000 1.000000 -0.000000
vn 0.000000 1.000000 0.000000
vn 0.000000 1.000000 -0.000000
vn 0.000000 1.000000 0.000000
vn 0.000000 1.000000 0.000000
vn 0.000000 1.000000 -0.000000
vn 0.000000 1.000000 -0.000000
vn 0.000000 1.000000 0.000000
vn 0.000000 1.000000 -0.000000
vn 0.000000 1.000000 0.000000
vn 0.000000 1.000000 0.000000
vn 0.000000 1.000000 0.000000
vn 0.000000 1.000000 0.000000
vn 0.000000 1.000000 -0.000000
vn 0.000000 1.000000 0.000000
vn 0.000000 1.000000 0.000000
vn 0.000000 1.000000 0.000000
vn 0.000000 1.000000 0.000000
vn 0.000000 1.000000 0.000000
vn 0.000000 1.000000 -0.000000
vn 0.000000 1.000000 -0.000000
vn 0.000000 1.000000 0.000000
vn 0.000000 1.000000 -0.000000
vn 0.923880 -0.000000 -0.382683
vn 1.000000 -0.000000 0.000000
vn 0.923880 -0.000000 -0.382683
vn 1.000000 -0.000000 0.000000
vn 0.707107 -0.000000 -0.707107
vn 0.707107 -0.000000 -0.707107
vn 0.382683 -0.000000 -0.923880
vn 0.382683 -0.000000 -0.923880
vn -0.000000 -0.000000 -1.000000
vn -0.000000 -0.000000 -1.000000
vn -0.382684 -0.000000 -0.923880
vn -0.382683 -0.000000 -0.923880
vn -0.707107 -0.000000 -0.707106
vn -0.707107 -0.000000 -0.707107
vn -0.923880 -0.000000 -0.382683
vn -0.923880 0.000000 -0.382683
vn -1.000000 -0.000000 0.000001
vn -1.000000 -0.000000 0.000001
vn -0.923880 -0.000000 0.382684
vn -0.923879 -0.000000 0.382684
vn -0.707106 -0.000000 0.707107
vn -0.707106 -0.000000 0.707107
vn -0.382683 -0.000000 0.923880
vn -0.382683 -0.000000 0.923880
vn 0.000001 -0.000000 1.000000
vn 0.000001 -0.000000 1.000000
vn 0.382684 -0.000000 0.923879
vn 0.382684 -0.000000 0.923879
vn 0.707107 -0.000000 0.707106
vn 0.707107 -0.000000 0.707106
vn 0.923880 -0.000000 0.382683
vn 0.923880 -0.000000 0.382683
vn 0.000000 -1.000000 -0.000000
vn 0.000000 -1.000000 0.000000
vn 0.000000 -1.000000 -0.000000
vn 0.000000 -1.000000 0.000000
vn 0.000000 -1.000000 -0.000000
vn 0.000000 -1.000000 -0.000000
vn 0.000000 -1.000000 -0.000000
vn 0.000000 -1.000000 -0.000000
vn 0.000000 -1.000000 -0.000000
vn 0.000000 -1.000000 -0.000000
vn -0.000000 -1.000000 -0.000000
vn -0.000000 -1.000000 -0.000000
vn -0.000000 -1.000000 -0.000000
vn -0.000000 -1.000000 -0.000000
vn -0.000000 -1.000000 -0.000000
vn -0.000000 -1.000000 -0.000000
vn -0.000000 -1.000000 -0.000000
vn -0.000000 -1.000000 -0.000000
vn -0.000000 -1.000000 0.000000
vn -0.000000 -1.000000 0.000000
vn -0.000000 -1.000000 0.000000
vn -0.000000 -1.000000 0.000000
vn -0.000000 -1.000000 0.000000
vn -0.000000 -1.000000 0.000000
vn -0.000000 -1.000000 0.000000
vn -0.000000 -1.000000 0.000000
vn 0.000000 -1.000000 0.000000
vn 0.000000 -1.000000 0.000000
vn 0.000000 -1.000000 0.000000
vn 0.000000 -1.000000 0.000000
vn 0.000000 -1.000000 0.000000
vn 0.000000 -1.000000 0.000000
vn -0.481022 0.876597 0.014008
vn -0.496960 0.867761 0.004566
vn -0.488006 0.872784 0.009886
vn -0.504590 0.863359 0.000000
vn 0.499750 0.866170 0.000000
vn 0.483487 0.875297 -0.009759
vn 0.492183 0.870480 -0.004558
vn 0.476556 0.879035 -0.013878
vn 0.000000 -1.000000 -0.000000
vn 0.000000 -1.000000 -0.000000
vn 0.000000 -1.000000 -0.000000
vn 0.000000 -1.000000 0.000000
vn -0.000000 0.000000 1.000000
vn -0.000000 0.000000 1.000000
vn -0.000000 0.000000 1.000000
vn -0.000000 0.000000 1.000000
vn -0.000000 0.000000 -1.000000
vn -0.000000 -0.000001 -1.000000
vn -0.000000 -0.000000 -1.000000
vn -0.000000 -0.000000 -1.000000
vn 0.000000 0.000000 1.000000
vn 0.000000 0.000000 1.000000
vn 0.000000 0.000000 1.000000
vn 0.000000 0.000000 1.000000
vn 0.000000 1.000000 0.000000
vn 0.000000 1.000000 0.000000
vn 0.000000 1.000000 0.000000
vn 0.000000 1.000000 0.000000
vn 0.000000 0.000000 -1.000000
vn 0.000000 0.000000 -1.000000
vn 0.000000 0.000000 -1.000000
vn 0.000000 0.000000 -1.000000
vn 0.000000 -1.000000 0.000000
vn 0.000000 -1.000000 0.000000
vn 0.000000 -1.000000 0.000000
vn 0.000000 -1.000000 0.000000
vn 1.000000 0.000000 0.000000
vn 1.000000 0.000000 0.000000
vn 1.000000 0.000000 0.000000
vn 1.000000 0.000000 0.000000
vn -1.000000 0.000000 0.000000
vn -1.000000 0.000000 0.000000
vn -1.000000 0.000000 0.000000
vn -1.000000 0.000000 0.000000
vn 0.000000 0.000000 1.000000
vn 0.000000 0.000000 1.000000
vn 0.000000 0.000000 1.000000
vn 0.000000 0.000000 1.000000
vn 0.000000 1.000000 0.000000
vn 0.000000 1.000000 0.000000
vn 0.000000 1.000000 0.000000
vn 0.000000 1.000000 0.000000
vn 0.000000 0.000000 -1.000000
vn 0.000000 0.000000 -1.000000
vn 0.000000 0.000000 -1.000000
vn 0.000000 0.000000 -1.000000
vn 0.000000 -1.000000 0.000000
vn 0.000000 -1.000000 0.000000
vn 0.000000 -1.000000 0.000000
vn 0.000000 -1.000000 0.000000
vn 1.000000 0.000000 -0.000000
vn 1.000000 -0.000000 -0.000000
vn 1.000000 -0.000000 -0.000000
vn 1.000000 -0.000000 0.000000
vn -1.000000 0.000000 0.000000
vn -1.000000 0.000000 0.000000
vn -1.000000 0.000000 0.000000
vn -1.000000 0.000000 0.000000
s 1
g polySurface1
f 2/2/1 1/1/2 18/19/3
f 18/19/3 1/1/2 17/18/4
f 3/3/5 2/2/1 19/20/6
f 19/20/6 2/2/1 18/19/3
f 4/4/7 3/3/5 20/21/8
f 20/21/8 3/3/5 19/20/6
f 5/5/9 4/4/7 21/22/10
f 21/22/10 4/4/7 20/21/8
f 6/6/11 5/5/9 22/23/12
f 22/23/12 5/5/9 21/22/10
f 7/7/13 6/6/11 23/24/14
f 23/24/14 6/6/11 22/23/12
f 8/8/15 7/7/13 24/25/16
f 24/25/16 7/7/13 23/24/14
f 9/9/17 8/8/15 25/26/18
f 25/26/18 8/8/15 24/25/16
f 10/10/19 9/9/17 26/27/20
f 26/27/20 9/9/17 25/26/18
f 11/11/21 10/10/19 27/28/22
f 27/28/22 10/10/19 26/27/20
f 12/12/23 11/11/21 28/29/24
f 28/29/24 11/11/21 27/28/22
f 13/13/25 12/12/23 29/30/26
f 29/30/26 12/12/23 28/29/24
f 14/14/27 13/13/25 30/31/28
f 30/31/28 13/13/25 29/30/26
f 15/15/29 14/14/27 31/32/30
f 31/32/30 14/14/27 30/31/28
f 16/16/31 15/15/29 32/33/32
f 32/33/32 15/15/29 31/32/30
f 1/17/2 16/16/31 17/34/4
f 17/34/4 16/16/31 32/33/32
s 2
f 18/19/33 17/18/34 34/163/35
f 34/163/35 17/18/34 33/35/36
f 19/20/37 18/19/33 35/162/38
f 35/162/38 18/19/33 34/163/35
f 20/21/39 19/20/37 36/161/40
f 36/161/40 19/20/37 35/162/38
f 21/22/41 20/21/39 37/160/42
f 37/160/42 20/21/39 36/161/40
f 22/23/43 21/22/41 38/159/44
f 38/159/44 21/22/41 37/160/42
f 23/24/45 22/23/43 39/158/46
f 39/158/46 22/23/43 38/159/44
f 24/25/47 23/24/45 40/157/48
f 40/157/48 23/24/45 39/158/46
f 25/26/49 24/25/47 41/156/50
f 41/156/50 24/25/47 40/157/48
f 26/27/51 25/26/49 42/155/52
f 42/155/52 25/26/49 41/156/50
f 27/28/53 26/27/51 43/154/54
f 43/154/54 26/27/51 42/155/52
f 28/29/55 27/28/53 44/153/56
f 44/153/56 27/28/53 43/154/54
f 29/30/57 28/29/55 45/152/58
f 45/152/58 28/29/55 44/153/56
f 30/31/59 29/30/57 46/151/60
f 46/151/60 29/30/57 45/152/58
f 31/32/61 30/31/59 47/150/62
f 47/150/62 30/31/59 46/151/60
f 32/33/63 31/32/61 48/147/64
f 48/147/64 31/32/61 47/150/62
f 17/34/34 32/33/63 33/148/36
f 33/148/36 32/33/63 48/147/64
s 3
f 34/36/65 33/149/66 50/146/67
f 50/146/67 33/149/66 49/52/68
f 35/37/69 34/36/65 51/145/70
f 51/145/70 34/36/65 50/146/67
f 36/38/71 35/37/69 52/144/72
f 52/144/72 35/37/69 51/145/70
f 37/39/73 36/38/71 53/143/74
f 53/143/74 36/38/71 52/144/72
f 38/40/75 37/39/73 54/142/76
f 54/142/76 37/39/73 53/143/74
f 39/41/77 38/40/75 55/141/78
f 55/141/78 38/40/75 54/142/76
f 40/42/79 39/41/77 56/140/80
f 56/140/80 39/41/77 55/141/78
f 41/43/81 40/42/79 57/139/82
f 57/139/82 40/42/79 56/140/80
f 42/44/83 41/43/81 58/138/84
f 58/138/84 41/43/81 57/139/82
f 43/45/85 42/44/83 59/137/86
f 59/137/86 42/44/83 58/138/84
f 44/46/87 43/45/85 60/136/88
f 60/136/88 43/45/85 59/137/86
f 45/47/89 44/46/87 61/135/90
f 61/135/90 44/46/87 60/136/88
f 46/48/91 45/47/89 62/134/92
f 62/134/92 45/47/89 61/135/90
f 47/49/93 46/48/91 63/133/94
f 63/133/94 46/48/91 62/134/92
f 48/50/95 47/49/93 64/130/96
f 64/130/96 47/49/93 63/133/94
f 33/51/66 48/50/95 49/131/68
f 49/131/68 48/50/95 64/130/96
s 4
f 50/53/97 49/132/98 2/70/99
f 2/70/99 49/132/98 1/69/100
f 51/54/101 50/53/97 3/71/102
f 3/71/102 50/53/97 2/70/99
f 52/55/103 51/54/101 4/72/104
f 4/72/104 51/54/101 3/71/102
f 53/56/105 52/55/103 5/73/106
f 5/73/106 52/55/103 4/72/104
f 54/57/107 53/56/105 6/74/108
f 6/74/108 53/56/105 5/73/106
f 55/58/109 54/57/107 7/75/110
f 7/75/110 54/57/107 6/74/108
f 56/59/111 55/58/109 8/76/112
f 8/76/112 55/58/109 7/75/110
f 57/60/113 56/59/111 9/77/114
f 9/77/114 56/59/111 8/76/112
f 58/61/115 57/60/113 10/78/116
f 10/78/116 57/60/113 9/77/114
f 59/62/117 58/61/115 11/79/118
f 11/79/118 58/61/115 10/78/116
f 60/63/119 59/62/117 12/80/120
f 12/80/120 59/62/117 11/79/118
f 61/64/121 60/63/119 13/81/122
f 13/81/122 60/63/119 12/80/120
f 62/65/123 61/64/121 14/82/124
f 14/82/124 61/64/121 13/81/122
f 63/66/125 62/65/123 15/83/126
f 15/83/126 62/65/123 14/82/124
f 64/67/127 63/66/125 16/84/128
f 16/84/128 63/66/125 15/83/126
f 49/68/98 64/67/127 1/85/100
f 1/85/100 64/67/127 16/84/128
s 5
f 66/87/129 69/88/130 65/86/131
f 65/86/131 69/88/130 68/89/132
s 6
f 67/90/133 70/91/134 66/87/135
f 66/87/135 70/91/134 69/88/136
s 7
f 67/90/137 65/92/138 70/91/139
f 70/91/139 65/92/138 68/93/140
s 8
f 66/94/141 65/95/142 71/96/143
f 67/97/144 66/94/141 71/96/143
f 65/95/142 67/97/144 71/96/143
s 9
f 68/98/145 69/99/146 72/100/147
f 69/99/146 70/101/148 72/100/147
f 70/101/148 68/98/145 72/100/147
s 10
f 73/102/149 74/103/150 75/105/151
f 75/105/151 74/103/150 76/104/152
s 11
f 75/105/153 76/104/154 77/172/155
f 77/172/155 76/104/154 78/106/156
s 12
f 77/107/157 78/173/158 79/164/159
f 79/164/159 78/173/158 80/108/160
s 13
f 79/109/161 80/165/162 73/111/163
f 73/111/163 80/165/162 74/110/164
s 14
f 74/103/165 80/112/166 76/104/167
f 76/104/167 80/112/166 78/113/168
s 15
f 79/114/169 73/102/170 77/115/171
f 77/115/171 73/102/170 75/105/172
s 16
f 81/170/173 82/117/174 83/168/175
f 83/168/175 82/117/174 84/118/176
s 17
f 83/119/177 84/169/178 85/121/179
f 85/121/179 84/169/178 86/120/180
s 18
f 85/121/181 86/120/182 87/166/183
f 87/166/183 86/120/182 88/122/184
s 19
f 87/123/185 88/167/186 81/125/187
f 81/125/187 88/167/186 82/124/188
s 20
f 82/117/189 88/126/190 84/118/191
f 84/118/191 88/126/190 86/127/192
s 21
f 87/128/193 81/116/194 85/129/195
f 85/129/195 81/116/194 83/171/196
