# This file uses centimeters as units for non-parametric coordinates.

mtllib Dragon_WoodShack_COLLISION.mtl
g default
v -5.544180 0.000005 3.016655
v 5.636450 0.000005 3.016655
v -5.544180 8.084932 0.285501
v -5.544180 8.084932 -0.285501
v -5.544180 0.000005 -3.016655
v 5.636450 0.000005 -3.016655
v -5.544180 5.329217 3.016655
v -5.544180 5.329217 -3.016655
v 5.636450 5.329217 -3.016655
v 5.636450 5.329217 3.016655
v 5.636450 8.084932 -0.285501
v 5.636450 8.084932 0.285501
v 7.618766 7.605392 -0.539897
v 7.618766 7.137827 -0.269949
v 7.618766 7.137827 0.269948
v 7.618766 7.605392 0.539897
v 7.618766 8.072956 0.269949
v 7.618766 8.072956 -0.269949
v 5.636450 7.605392 -0.539897
v 5.636450 7.137827 -0.269949
v 5.636450 7.137827 0.269948
v 5.636450 7.605392 0.539897
v 5.636450 8.072956 0.269949
v 5.636450 8.072956 -0.269949
v 5.000000 7.729765 -0.645464
v 4.374619 8.084932 -0.284400
v 4.374619 8.084932 0.289963
v 5.000000 7.729765 0.651027
v 5.625381 8.084932 0.289963
v 5.625381 8.084932 -0.284400
v 5.000000 8.806557 -0.645464
v 4.374619 8.806557 -0.284400
v 4.374619 8.806557 0.289963
v 5.000000 8.806557 0.651027
v 5.625381 8.806557 0.289963
v 5.625381 8.806557 -0.284400
vt 0.375000 0.182476
vt 0.375000 0.000000
vt 0.625000 0.000000
vt 0.625000 0.182476
vt 0.375000 0.500000
vt 0.375000 0.250000
vt 1.000000 1.000000
vt 0.000000 1.000000
vt 0.375000 0.750000
vt 0.375000 0.567523
vt 0.625000 0.567523
vt 0.625000 0.750000
vt 0.375000 1.000000
vt 0.625000 1.000000
vt 0.875000 0.000000
vt 0.875000 0.182476
vt 0.125000 0.000000
vt 0.125000 0.182476
vt 0.125000 0.250000
vt 1.000000 1.000000
vt 0.000000 1.000000
vt 0.375000 0.312500
vt 0.416667 0.312500
vt 0.416667 0.688440
vt 0.375000 0.688440
vt 0.458333 0.312500
vt 0.458333 0.688440
vt 0.500000 0.312500
vt 0.500000 0.688440
vt 0.541667 0.312500
vt 0.541667 0.688440
vt 0.583333 0.312500
vt 0.583333 0.688440
vt 0.625000 0.312500
vt 0.625000 0.688440
vt 0.375000 0.312500
vt 0.416667 0.312500
vt 0.416667 0.688440
vt 0.375000 0.688440
vt 0.458333 0.312500
vt 0.458333 0.688440
vt 0.500000 0.312500
vt 0.500000 0.688440
vt 0.541667 0.312500
vt 0.541667 0.688440
vt 0.583333 0.312500
vt 0.583333 0.688440
vt 0.625000 0.312500
vt 0.625000 0.688440
vt 0.656250 0.843750
vt 0.578125 0.979066
vt 0.421875 0.979066
vt 0.343750 0.843750
vt 0.421875 0.708434
vt 0.578125 0.708434
vn 0.000000 0.380615 0.924734
vn 0.000000 0.000000 1.000000
vn 0.000000 0.000000 1.000000
vn 0.000000 0.380615 0.924734
vn 0.000000 1.000000 0.000000
vn 0.000000 1.000000 0.000000
vn 0.000000 1.000000 0.000000
vn 0.000000 1.000000 0.000000
vn 0.000000 0.000000 -1.000000
vn 0.000000 0.380615 -0.924734
vn 0.000000 0.380615 -0.924734
vn 0.000000 0.000000 -1.000000
vn 0.000000 -1.000000 0.000000
vn 0.000000 -1.000000 0.000000
vn 0.000000 -1.000000 0.000000
vn 0.000000 -1.000000 0.000000
vn 1.000000 0.000000 0.000000
vn 1.000000 0.000000 0.000000
vn 1.000000 0.000000 0.000000
vn 1.000000 0.000000 0.000000
vn -1.000000 0.000000 0.000000
vn -1.000000 0.000000 0.000000
vn -1.000000 -0.000000 0.000000
vn -1.000000 -0.000000 0.000000
vn -1.000000 -0.000000 0.000000
vn -1.000000 -0.000000 0.000000
vn 0.000000 0.703934 -0.710265
vn 0.000000 0.703934 -0.710265
vn 0.000000 0.703934 0.710265
vn 0.000000 0.703934 0.710265
vn 1.000000 0.000000 0.000000
vn 1.000000 0.000000 0.000000
vn 0.000000 -0.500000 -0.866026
vn 0.000000 -0.500000 -0.866026
vn 0.000000 -0.500000 -0.866026
vn 0.000000 -0.500000 -0.866026
vn 0.000000 -1.000000 0.000000
vn 0.000000 -1.000000 0.000000
vn 0.000000 -1.000000 0.000000
vn 0.000000 -1.000000 0.000000
vn 0.000000 -0.500000 0.866025
vn 0.000000 -0.500000 0.866025
vn 0.000000 -0.500000 0.866025
vn 0.000000 -0.500000 0.866025
vn 0.000000 0.499999 0.866026
vn 0.000000 0.499999 0.866026
vn 0.000000 0.499999 0.866026
vn 0.000000 0.499999 0.866026
vn 0.000000 1.000000 0.000000
vn 0.000000 1.000000 0.000000
vn 0.000000 1.000000 0.000000
vn 0.000000 1.000000 0.000000
vn 0.000000 0.500000 -0.866026
vn 0.000000 0.500000 -0.866026
vn 0.000000 0.500000 -0.866026
vn 0.000000 0.500000 -0.866026
vn 1.000000 0.000000 0.000000
vn 1.000000 0.000000 0.000000
vn 1.000000 0.000000 0.000000
vn 1.000000 0.000000 0.000000
vn 1.000000 0.000001 0.000000
vn 1.000000 0.000001 0.000000
vn 1.000000 0.000001 0.000000
vn 1.000000 0.000001 0.000000
vn -0.500000 0.000000 -0.866025
vn -0.500000 0.000000 -0.866025
vn -0.500000 0.000000 -0.866025
vn -0.500000 0.000000 -0.866025
vn -1.000000 0.000000 0.000000
vn -1.000000 0.000000 0.000000
vn -1.000000 0.000000 0.000000
vn -1.000000 0.000000 0.000000
vn -0.500000 0.000000 0.866025
vn -0.500000 0.000000 0.866025
vn -0.500000 0.000000 0.866025
vn -0.500000 0.000000 0.866025
vn 0.500000 0.000000 0.866025
vn 0.500000 0.000000 0.866025
vn 0.500000 0.000000 0.866025
vn 0.500000 0.000000 0.866025
vn 1.000000 0.000000 0.000000
vn 1.000000 0.000000 0.000000
vn 1.000000 0.000000 0.000000
vn 1.000000 0.000000 0.000000
vn 0.500000 0.000000 -0.866025
vn 0.500000 0.000000 -0.866025
vn 0.500000 0.000000 -0.866025
vn 0.500000 0.000000 -0.866025
vn 0.000000 1.000000 0.000000
vn 0.000000 1.000000 0.000000
vn 0.000000 1.000000 0.000000
vn 0.000000 1.000000 0.000000
vn 0.000000 1.000000 0.000000
vn 0.000000 1.000000 0.000000
vn 0.000000 1.000000 0.000000
vn 0.000000 1.000000 0.000000
s 1
g Dragon_WoodShack_COLLISION
usemtl initialShadingGroup
f 7/1/1 1/2/2 2/3/3 10/4/4
s off
f 4/5/5 3/6/6 12/7/7 11/8/8
s 2
f 5/9/9 8/10/10 9/11/11 6/12/12
s off
f 1/13/13 5/9/14 6/12/15 2/14/16
s 3
f 2/3/17 6/15/18 9/16/19 10/4/20
s 4
f 5/17/21 1/2/22 7/1/23 8/18/24
f 8/18/24 7/1/23 3/6/25 4/19/26
s 2
f 9/11/11 8/10/10 4/5/27 11/20/28
s 1
f 10/4/4 12/21/29 3/6/30 7/1/1
s 3
f 9/16/19 11/8/31 12/21/32 10/4/20
s off
f 13/22/33 14/23/34 20/24/35 19/25/36
f 14/23/37 15/26/38 21/27/39 20/24/40
f 15/26/41 16/28/42 22/29/43 21/27/44
f 16/28/45 17/30/46 23/31/47 22/29/48
f 17/30/49 18/32/50 24/33/51 23/31/52
f 18/32/53 13/34/54 19/35/55 24/33/56
f 14/23/57 13/34/58 18/32/59 17/30/60
f 14/23/61 17/30/62 16/28/63 15/26/64
f 25/36/65 26/37/66 32/38/67 31/39/68
f 26/37/69 27/40/70 33/41/71 32/38/72
f 27/40/73 28/42/74 34/43/75 33/41/76
f 28/42/77 29/44/78 35/45/79 34/43/80
f 29/44/81 30/46/82 36/47/83 35/45/84
f 30/46/85 25/48/86 31/49/87 36/47/88
f 36/50/89 31/51/90 32/52/91 33/53/92
f 36/50/93 33/53/94 34/54/95 35/55/96
