# This file uses centimeters as units for non-parametric coordinates.

mtllib Dragon_Chapel_COL.mtl
g default
v 7.064838 0.000000 0.513148
v 5.941238 0.000000 0.513148
v 7.064838 4.906374 0.513148
v 5.941238 5.686310 0.513148
v 7.064838 4.906374 -0.518791
v 5.941238 5.686310 -0.518791
v 7.064838 0.000000 -0.518791
v 5.941238 0.000000 -0.518791
v 7.064838 0.000000 7.270425
v 5.941238 0.000000 7.270425
v 7.064838 4.906374 7.270425
v 5.941238 5.686310 7.270425
v 7.064838 4.906374 6.238485
v 5.941238 5.686310 6.238485
v 7.064838 0.000000 6.238485
v 5.941238 0.000000 6.238485
v 7.064838 0.000000 -6.249279
v 5.941238 0.000000 -6.249279
v 7.064838 4.906374 -6.249279
v 5.941238 5.686310 -6.249279
v 7.064838 4.906374 -7.281219
v 5.941238 5.686310 -7.281219
v 7.064838 0.000000 -7.281219
v 5.941238 0.000000 -7.281219
v -7.064838 0.000000 0.513148
v -5.941238 0.000000 0.513148
v -7.064838 4.906374 0.513148
v -5.941238 5.686310 0.513148
v -7.064838 4.906374 -0.518791
v -5.941238 5.686310 -0.518791
v -7.064838 0.000000 -0.518791
v -5.941238 0.000000 -0.518791
v -7.064838 0.000000 7.270425
v -5.941238 0.000000 7.270425
v -7.064838 4.906374 7.270425
v -5.941238 5.686310 7.270425
v -7.064838 4.906374 6.238485
v -5.941238 5.686310 6.238485
v -7.064838 0.000000 6.238485
v -5.941238 0.000000 6.238485
v -7.064838 0.000000 -6.249279
v -5.941238 0.000000 -6.249279
v -7.064838 4.906374 -6.249279
v -5.941238 5.686310 -6.249279
v -7.064838 4.906374 -7.281219
v -5.941238 5.686310 -7.281219
v -7.064838 0.000000 -7.281219
v -5.941238 0.000000 -7.281219
v -5.936491 0.000000 12.455575
v 5.936491 0.000000 12.455575
v -5.936491 6.111679 12.455575
v 5.936491 6.111679 12.455575
v -5.936491 6.111679 -12.508209
v 5.936491 6.111679 -12.508209
v -5.936491 0.000000 -12.508209
v 5.936491 0.000000 -12.508209
v 0.000000 10.200194 -12.508209
v 0.000000 0.000000 -12.508209
v 0.000000 -0.000001 12.455575
v 0.000000 10.200193 12.455575
v -2.437327 8.546283 14.873079
v 2.437327 8.546283 14.873079
v -0.186564 21.365017 12.575123
v 0.186564 21.365017 12.575123
v -0.186564 21.365017 12.201996
v 0.186564 21.365017 12.201996
v -2.437327 8.546283 9.951233
v 2.437327 8.546283 9.951233
v -2.261717 15.381519 14.579700
v -2.261717 15.381519 10.197418
v 2.261717 15.381519 10.197418
v 2.261717 15.381519 14.579700
v 0.000000 10.228764 9.951233
v 0.000000 10.228764 14.873079
v 0.000000 15.381519 14.579700
v 0.000000 21.365017 12.575123
v 0.000000 21.365017 12.201996
v 0.000000 15.381519 10.197418
v -2.437327 0.000000 14.873079
v 2.437327 0.000000 14.873079
v -2.437327 8.531400 14.873079
v 2.437327 8.531400 14.873079
v -2.437327 8.531400 12.474790
v -2.437327 0.000000 12.474790
v 2.437327 0.000000 12.474790
v 2.437327 8.531400 12.474790
v 0.000000 0.000000 12.474790
v 0.000000 10.213881 14.873079
v 0.000000 10.213881 12.474790
v -0.958741 0.000000 12.474790
v -0.958741 0.000000 14.873079
v -0.958741 9.552064 14.873079
v -0.958741 9.552064 12.474790
v 0.971937 0.000000 12.474790
v 0.971937 0.000000 14.873080
v 0.971937 9.542954 14.873080
v 0.971937 9.542954 12.474790
v 2.437327 2.456916 12.474790
v 2.437327 2.738347 14.873079
v 0.971937 2.738347 14.873080
v 0.000000 2.738347 14.873079
v -0.958741 2.738347 14.873079
v -2.437327 2.738347 14.873079
v -2.437327 2.456916 12.474790
v -0.958741 0.000000 14.436407
v -2.437327 0.000000 14.436407
v -2.437327 2.456916 14.436407
v -2.437327 8.531400 14.436407
v -0.958741 9.552064 14.436407
v 0.000000 10.213881 14.436407
v 0.971937 9.542954 14.436408
v 2.437327 8.531400 14.436407
v 2.437327 2.456916 14.436407
v 2.437327 0.000000 14.436407
v 0.971937 0.000000 14.436408
v 0.000000 0.000000 14.436407
v 0.971937 2.738347 14.436408
v 0.000000 2.738347 14.436407
v -0.958741 2.738347 14.436407
vt 0.375000 0.000000
vt 0.625000 0.000000
vt 0.375000 0.250000
vt 0.625000 0.250000
vt 0.375000 0.500000
vt 0.625000 0.500000
vt 0.375000 0.750000
vt 0.625000 0.750000
vt 0.375000 1.000000
vt 0.625000 1.000000
vt 0.125000 0.000000
vt 0.125000 0.250000
vt 0.375000 0.000000
vt 0.625000 0.000000
vt 0.625000 0.250000
vt 0.375000 0.250000
vt 0.625000 0.500000
vt 0.375000 0.500000
vt 0.625000 0.750000
vt 0.375000 0.750000
vt 0.625000 1.000000
vt 0.375000 1.000000
vt 0.125000 0.000000
vt 0.125000 0.250000
vt 0.375000 0.000000
vt 0.625000 0.000000
vt 0.625000 0.250000
vt 0.375000 0.250000
vt 0.625000 0.500000
vt 0.375000 0.500000
vt 0.625000 0.750000
vt 0.375000 0.750000
vt 0.625000 1.000000
vt 0.375000 1.000000
vt 0.125000 0.000000
vt 0.125000 0.250000
vt 0.375000 0.000000
vt 0.625000 0.000000
vt 0.625000 0.250000
vt 0.375000 0.250000
vt 0.625000 0.500000
vt 0.375000 0.500000
vt 0.625000 0.750000
vt 0.375000 0.750000
vt 0.625000 1.000000
vt 0.375000 1.000000
vt 0.125000 0.000000
vt 0.125000 0.250000
vt 0.375000 0.000000
vt 0.625000 0.000000
vt 0.625000 0.250000
vt 0.375000 0.250000
vt 0.625000 0.500000
vt 0.375000 0.500000
vt 0.625000 0.750000
vt 0.375000 0.750000
vt 0.625000 1.000000
vt 0.375000 1.000000
vt 0.125000 0.000000
vt 0.125000 0.250000
vt 0.375000 0.000000
vt 0.625000 0.000000
vt 0.625000 0.250000
vt 0.375000 0.250000
vt 0.625000 0.500000
vt 0.375000 0.500000
vt 0.625000 0.750000
vt 0.375000 0.750000
vt 0.625000 1.000000
vt 0.375000 1.000000
vt 0.125000 0.000000
vt 0.125000 0.250000
vt 0.375000 0.000000
vt 0.500000 0.000000
vt 0.500000 0.250000
vt 0.375000 0.250000
vt 0.500000 0.500000
vt 0.375000 0.500000
vt 0.500000 0.750000
vt 0.375000 0.750000
vt 0.500000 1.000000
vt 0.375000 1.000000
vt 0.625000 0.000000
vt 0.875000 0.000000
vt 0.875000 0.250000
vt 0.625000 0.250000
vt 0.125000 0.000000
vt 0.125000 0.250000
vt 0.625000 0.500000
vt 0.625000 0.750000
vt 0.625000 1.000000
vt 0.500000 0.125000
vt 0.375000 0.125000
vt 0.375000 0.000000
vt 0.500000 0.000000
vt 0.375000 0.250000
vt 0.500000 0.250000
vt 0.500000 0.500000
vt 0.375000 0.500000
vt 0.375000 0.750000
vt 0.375000 0.625000
vt 0.500000 0.625000
vt 0.500000 0.750000
vt 0.875000 0.125000
vt 0.625000 0.125000
vt 0.625000 0.000000
vt 0.875000 0.000000
vt 0.125000 0.125000
vt 0.125000 0.000000
vt 0.125000 0.250000
vt 0.875000 0.250000
vt 0.625000 0.250000
vt 0.625000 0.500000
vt 0.625000 0.625000
vt 0.625000 0.750000
vt 0.375000 0.000000
vt 0.450830 0.000000
vt 0.450830 0.071996
vt 0.375000 0.071996
vt 0.375000 0.270707
vt 0.450830 0.270707
vt 0.450830 0.375000
vt 0.375000 0.375000
vt 0.375000 0.875000
vt 0.450830 0.875000
vt 0.450830 0.979293
vt 0.375000 0.979293
vt 0.645707 0.000000
vt 0.750000 0.000000
vt 0.750000 0.071996
vt 0.645707 0.071996
vt 0.250000 0.000000
vt 0.354293 0.000000
vt 0.354293 0.071996
vt 0.250000 0.071996
vt 0.500000 0.875000
vt 0.549846 0.875000
vt 0.549846 0.979293
vt 0.500000 0.979293
vt 0.500000 0.375000
vt 0.500000 0.270707
vt 0.549846 0.270707
vt 0.549846 0.375000
vt 0.625000 0.875000
vt 0.625000 0.979293
vt 0.549846 0.071996
vt 0.549846 0.000000
vt 0.625000 0.000000
vt 0.625000 0.071996
vt 0.625000 0.270707
vt 0.625000 0.375000
vt 0.750000 0.250000
vt 0.645707 0.250000
vt 0.549846 0.250000
vt 0.625000 0.250000
vt 0.500000 0.250000
vt 0.500000 0.071996
vt 0.450830 0.250000
vt 0.375000 0.250000
vt 0.354293 0.250000
vt 0.250000 0.250000
vt 0.450830 1.000000
vt 0.375000 1.000000
vt 0.625000 1.000000
vt 0.549846 1.000000
vt 0.000000 0.000000
vt 1.000000 0.000000
vt 1.000000 1.000000
vt 0.000000 1.000000
vt 0.000000 0.000000
vt 1.000000 0.000000
vt 1.000000 1.000000
vt 0.000000 1.000000
vt 0.000000 0.000000
vt 1.000000 0.000000
vt 1.000000 1.000000
vt 0.000000 1.000000
vt 0.000000 0.000000
vt 1.000000 0.000000
vt 1.000000 1.000000
vt 0.000000 1.000000
vt 0.000000 0.000000
vt 1.000000 0.000000
vt 1.000000 1.000000
vt 0.000000 1.000000
vt 0.000000 0.000000
vt 1.000000 0.000000
vt 1.000000 1.000000
vt 0.000000 1.000000
vn 0.000000 0.000000 1.000000
vn 0.000000 0.000000 1.000000
vn 0.000000 0.000000 1.000000
vn 0.000000 0.000000 1.000000
vn 0.570227 0.821487 0.000000
vn 0.570227 0.821487 0.000000
vn 0.570227 0.821487 0.000000
vn 0.570227 0.821487 0.000000
vn -0.000000 0.000000 -1.000000
vn -0.000000 0.000000 -1.000000
vn -0.000000 0.000000 -1.000000
vn -0.000000 0.000000 -1.000000
vn 0.000000 -1.000000 0.000000
vn 0.000000 -1.000000 0.000000
vn 0.000000 -1.000000 0.000000
vn 0.000000 -1.000000 0.000000
vn 1.000000 0.000000 0.000000
vn 1.000000 0.000000 0.000000
vn 1.000000 0.000000 0.000000
vn 1.000000 0.000000 0.000000
vn 0.000000 0.000000 1.000000
vn 0.000000 0.000000 1.000000
vn 0.000000 0.000000 1.000000
vn 0.000000 0.000000 1.000000
vn 0.570227 0.821487 0.000000
vn 0.570227 0.821487 0.000000
vn 0.570227 0.821487 0.000000
vn 0.570227 0.821487 0.000000
vn -0.000000 0.000000 -1.000000
vn -0.000000 0.000000 -1.000000
vn -0.000000 0.000000 -1.000000
vn -0.000000 0.000000 -1.000000
vn 0.000000 -1.000000 0.000000
vn 0.000000 -1.000000 0.000000
vn 0.000000 -1.000000 0.000000
vn 0.000000 -1.000000 0.000000
vn 1.000000 0.000000 0.000000
vn 1.000000 0.000000 0.000000
vn 1.000000 0.000000 0.000000
vn 1.000000 0.000000 0.000000
vn 0.000001 0.000000 1.000000
vn 0.000001 0.000000 1.000000
vn 0.000001 0.000000 1.000000
vn 0.000001 0.000000 1.000000
vn 0.570227 0.821487 0.000000
vn 0.570227 0.821487 0.000000
vn 0.570227 0.821487 0.000000
vn 0.570227 0.821487 0.000000
vn -0.000000 0.000000 -1.000000
vn -0.000000 0.000000 -1.000000
vn -0.000000 0.000000 -1.000000
vn -0.000000 0.000000 -1.000000
vn 0.000000 -1.000000 0.000000
vn 0.000000 -1.000000 0.000000
vn 0.000000 -1.000000 0.000000
vn 0.000000 -1.000000 0.000000
vn 1.000000 0.000000 0.000000
vn 1.000000 0.000000 0.000000
vn 1.000000 0.000000 0.000000
vn 1.000000 0.000000 0.000000
vn 0.000000 0.000000 1.000000
vn 0.000000 0.000000 1.000000
vn 0.000000 0.000000 1.000000
vn 0.000000 0.000000 1.000000
vn -0.570227 0.821487 0.000000
vn -0.570227 0.821487 0.000000
vn -0.570227 0.821487 0.000000
vn -0.570227 0.821487 0.000000
vn 0.000000 0.000000 -1.000000
vn 0.000000 0.000000 -1.000000
vn 0.000000 0.000000 -1.000000
vn 0.000000 0.000000 -1.000000
vn 0.000000 -1.000000 0.000000
vn 0.000000 -1.000000 0.000000
vn 0.000000 -1.000000 0.000000
vn 0.000000 -1.000000 0.000000
vn -1.000000 0.000000 0.000000
vn -1.000000 0.000000 0.000000
vn -1.000000 0.000000 0.000000
vn -1.000000 0.000000 0.000000
vn 0.000000 0.000000 1.000000
vn 0.000000 0.000000 1.000000
vn 0.000000 0.000000 1.000000
vn 0.000000 0.000000 1.000000
vn -0.570227 0.821487 0.000000
vn -0.570227 0.821487 0.000000
vn -0.570227 0.821487 0.000000
vn -0.570227 0.821487 0.000000
vn 0.000000 0.000000 -1.000000
vn 0.000000 0.000000 -1.000000
vn 0.000000 0.000000 -1.000000
vn 0.000000 0.000000 -1.000000
vn 0.000000 -1.000000 0.000000
vn 0.000000 -1.000000 0.000000
vn 0.000000 -1.000000 0.000000
vn 0.000000 -1.000000 0.000000
vn -1.000000 0.000000 0.000000
vn -1.000000 0.000000 0.000000
vn -1.000000 0.000000 0.000000
vn -1.000000 0.000000 0.000000
vn -0.000000 0.000000 1.000000
vn -0.000000 0.000000 1.000000
vn -0.000000 0.000000 1.000000
vn -0.000000 0.000000 1.000000
vn -0.570227 0.821487 0.000000
vn -0.570227 0.821487 0.000000
vn -0.570227 0.821487 0.000000
vn -0.570227 0.821487 0.000000
vn 0.000000 0.000000 -1.000000
vn 0.000000 0.000000 -1.000000
vn 0.000000 0.000000 -1.000000
vn 0.000000 0.000000 -1.000000
vn 0.000000 -1.000000 0.000000
vn 0.000000 -1.000000 0.000000
vn 0.000000 -1.000000 0.000000
vn 0.000000 -1.000000 0.000000
vn -1.000000 0.000000 0.000000
vn -1.000000 0.000000 0.000000
vn -1.000000 0.000000 0.000000
vn -1.000000 0.000000 0.000000
vn -0.000000 0.000000 1.000000
vn 0.000000 0.000000 1.000000
vn 0.000000 0.000000 1.000000
vn -0.000000 0.000000 1.000000
vn -0.567205 0.823577 0.000000
vn -0.567205 0.823577 0.000000
vn -0.567205 0.823577 0.000000
vn -0.567205 0.823577 0.000000
vn -0.000000 0.000000 -1.000000
vn -0.000000 0.000000 -1.000000
vn -0.000000 0.000000 -1.000000
vn -0.000000 0.000000 -1.000000
vn -0.000000 -1.000000 -0.000000
vn 0.000000 -1.000000 -0.000000
vn 0.000000 -1.000000 -0.000000
vn -0.000000 -1.000000 -0.000000
vn 1.000000 0.000000 0.000000
vn 1.000000 0.000000 0.000000
vn 1.000000 0.000000 0.000000
vn 1.000000 0.000000 0.000000
vn -1.000000 0.000000 0.000000
vn -1.000000 0.000000 0.000000
vn -1.000000 0.000000 0.000000
vn -1.000000 0.000000 0.000000
vn 0.000000 0.000000 -1.000000
vn 0.000000 0.000000 -1.000000
vn 0.000000 -1.000000 -0.000000
vn 0.000000 -1.000000 -0.000000
vn 0.000000 0.000000 1.000000
vn 0.000000 0.000000 1.000000
vn 0.567205 0.823577 0.000000
vn 0.567205 0.823577 0.000000
vn 0.567205 0.823577 0.000000
vn 0.567205 0.823577 0.000000
vn -0.017593 0.049136 0.998637
vn -0.017593 0.049136 0.998637
vn -0.017593 0.049136 0.998637
vn -0.017593 0.049136 0.998637
vn 0.000000 1.000000 0.000000
vn 0.000000 1.000000 0.000000
vn 0.000000 1.000000 0.000000
vn 0.000000 1.000000 0.000000
vn -0.014769 0.041249 -0.999040
vn -0.014769 0.041249 -0.999040
vn -0.014769 0.041249 -0.999040
vn -0.014769 0.041249 -0.999040
vn 0.999670 0.025683 0.000000
vn 0.999670 0.025683 0.000000
vn 0.999670 0.025683 0.000000
vn 0.999670 0.025683 0.000000
vn -0.999670 0.025683 0.000000
vn -0.999670 0.025683 0.000000
vn -0.999670 0.025683 0.000000
vn -0.999670 0.025683 0.000000
vn -0.944793 0.327666 0.000000
vn -0.944793 0.327666 0.000000
vn -0.944793 0.327666 0.000000
vn -0.944793 0.327666 0.000000
vn 0.000000 0.317665 -0.948203
vn 0.000000 0.317665 -0.948203
vn 0.000000 0.317665 -0.948203
vn 0.000000 0.317665 -0.948203
vn 0.944793 0.327666 0.000000
vn 0.944793 0.327666 0.000000
vn 0.944793 0.327666 0.000000
vn 0.944793 0.327666 0.000000
vn 0.000000 0.317665 0.948203
vn 0.000000 0.317665 0.948203
vn 0.000000 0.317665 0.948203
vn 0.000000 0.317665 0.948203
vn 0.017594 0.049136 0.998637
vn 0.017594 0.049136 0.998637
vn 0.017594 0.049136 0.998637
vn 0.017594 0.049136 0.998637
vn 0.000000 0.317665 0.948203
vn 0.000000 0.317665 0.948203
vn 0.000000 0.317665 0.948203
vn 0.000000 0.317665 0.948203
vn 0.000000 1.000000 0.000000
vn 0.000000 1.000000 0.000000
vn 0.000000 1.000000 0.000000
vn 0.000000 1.000000 0.000000
vn 0.000000 0.317665 -0.948203
vn 0.000000 0.317665 -0.948203
vn 0.000000 0.317665 -0.948203
vn 0.000000 0.317665 -0.948203
vn 0.014769 0.041249 -0.999040
vn 0.014769 0.041249 -0.999040
vn 0.014769 0.041249 -0.999040
vn 0.014769 0.041249 -0.999040
vn 0.000000 0.000000 1.000000
vn 0.000000 0.000000 1.000000
vn -0.000000 0.000000 1.000000
vn 0.000000 0.000000 1.000000
vn -0.568091 0.822966 0.000000
vn -0.568091 0.822966 0.000000
vn -0.568091 0.822966 0.000000
vn -0.568091 0.822966 0.000000
vn 0.000000 -1.000000 0.000000
vn -0.000000 -1.000000 0.000000
vn 0.000000 -1.000000 0.000000
vn 0.000000 -1.000000 0.000000
vn 1.000000 0.000000 0.000000
vn 1.000000 0.000000 0.000000
vn 1.000000 0.000000 0.000000
vn 1.000000 0.000000 0.000000
vn -1.000000 0.000000 0.000000
vn -1.000000 0.000000 0.000000
vn -1.000000 0.000000 0.000000
vn -1.000000 0.000000 0.000000
vn -0.000000 -1.000000 0.000000
vn 0.000000 -1.000000 0.000000
vn -0.000000 -1.000000 0.000000
vn -0.000000 -1.000000 0.000000
vn 0.000000 1.000000 0.000000
vn 0.000000 1.000000 0.000000
vn 0.568091 0.822966 0.000000
vn 0.568091 0.822966 0.000000
vn -0.000000 -1.000000 0.000000
vn -0.000000 -1.000000 0.000000
vn 0.000000 -0.000000 1.000000
vn 0.000001 -0.000000 1.000000
vn 0.000001 -0.000000 1.000000
vn 0.000001 -0.000000 1.000000
vn 0.568091 0.822966 0.000000
vn 0.568091 0.822966 0.000000
vn 1.000000 0.000000 0.000000
vn 1.000000 0.000000 0.000000
vn 0.000000 -0.000000 1.000000
vn 0.000001 0.000000 1.000000
vn -0.000001 -0.000000 1.000000
vn -0.000001 -0.000000 1.000000
vn -0.000000 0.000000 1.000000
vn 0.000000 0.000000 1.000000
vn -1.000000 0.000000 0.000000
vn -1.000000 0.000000 0.000000
vn 0.000000 -1.000000 0.000000
vn 0.000000 -1.000000 0.000000
vn -1.000000 0.000000 0.000000
vn -1.000000 0.000000 0.000000
vn -1.000000 0.000000 0.000000
vn -0.568091 0.822966 0.000000
vn -0.568091 0.822966 0.000000
vn 0.000000 1.000000 0.000000
vn 0.568091 0.822966 0.000000
vn 0.568090 0.822966 0.000000
vn 1.000000 0.000000 0.000000
vn 1.000000 0.000000 0.000000
vn 1.000000 0.000000 0.000000
vn -0.000000 -1.000000 0.000000
vn -0.000000 -1.000000 0.000000
vn 0.000000 0.000000 1.000000
vn 0.000000 0.000000 1.000000
vn 0.000000 0.000000 1.000000
vn 0.000000 0.000000 1.000000
vn 0.000000 0.000000 1.000000
vn 0.000000 0.000000 1.000000
vn 0.000000 0.000000 1.000000
vn 0.000000 0.000000 1.000000
vn -0.000000 -1.000000 0.000000
vn -0.000000 -1.000000 0.000000
vn -0.000000 -1.000000 0.000000
vn -0.000000 -1.000000 0.000000
vn 0.000000 -1.000000 0.000000
vn 0.000000 -1.000000 0.000000
vn 0.000000 -1.000000 0.000000
vn 0.000000 -1.000000 0.000000
vn -1.000000 0.000000 0.000000
vn -1.000000 0.000000 0.000000
vn -1.000000 0.000000 0.000000
vn -1.000000 0.000000 0.000000
vn 1.000000 -0.000000 -0.000000
vn 1.000000 -0.000000 -0.000000
vn 1.000000 -0.000000 -0.000000
vn 1.000000 -0.000000 -0.000000
s off
g polySurface61
usemtl initialShadingGroup
f 1/1/1 3/3/2 4/4/3 2/2/4
f 3/3/5 5/5/6 6/6/7 4/4/8
f 5/5/9 7/7/10 8/8/11 6/6/12
f 7/7/13 1/9/14 2/10/15 8/8/16
f 7/11/17 5/12/18 3/3/19 1/1/20
f 9/13/21 11/16/22 12/15/23 10/14/24
f 11/16/25 13/18/26 14/17/27 12/15/28
f 13/18/29 15/20/30 16/19/31 14/17/32
f 15/20/33 9/22/34 10/21/35 16/19/36
f 15/23/37 13/24/38 11/16/39 9/13/40
f 17/25/41 19/28/42 20/27/43 18/26/44
f 19/28/45 21/30/46 22/29/47 20/27/48
f 21/30/49 23/32/50 24/31/51 22/29/52
f 23/32/53 17/34/54 18/33/55 24/31/56
f 23/35/57 21/36/58 19/28/59 17/25/60
f 25/37/61 26/38/62 28/39/63 27/40/64
f 27/40/65 28/39/66 30/41/67 29/42/68
f 29/42/69 30/41/70 32/43/71 31/44/72
f 31/44/73 32/43/74 26/45/75 25/46/76
f 31/47/77 25/37/78 27/40/79 29/48/80
f 33/49/81 34/50/82 36/51/83 35/52/84
f 35/52/85 36/51/86 38/53/87 37/54/88
f 37/54/89 38/53/90 40/55/91 39/56/92
f 39/56/93 40/55/94 34/57/95 33/58/96
f 39/59/97 33/49/98 35/52/99 37/60/100
f 41/61/101 42/62/102 44/63/103 43/64/104
f 43/64/105 44/63/106 46/65/107 45/66/108
f 45/66/109 46/65/110 48/67/111 47/68/112
f 47/68/113 48/67/114 42/69/115 41/70/116
f 47/71/117 41/61/118 43/64/119 45/72/120
s 1
f 49/73/121 59/74/122 60/75/123 51/76/124
s off
f 51/76/125 60/75/126 57/77/127 53/78/128
s 2
f 53/78/129 57/77/130 58/79/131 55/80/132
s 3
f 55/80/133 58/79/134 59/81/135 49/82/136
s off
f 50/83/137 56/84/138 54/85/139 52/86/140
f 55/87/141 49/73/142 51/76/143 53/88/144
s 2
f 57/77/130 54/89/145 56/90/146 58/79/131
s 3
f 59/81/135 58/79/134 56/90/147 50/91/148
s 1
f 60/75/123 59/74/122 50/83/149 52/86/150
s off
f 57/77/151 60/75/152 52/86/153 54/89/154
f 75/92/155 69/93/156 61/94/157 74/95/158
f 63/96/159 76/97/160 77/98/161 65/99/162
f 67/100/163 70/101/164 78/102/165 73/103/166
f 71/104/167 72/105/168 62/106/169 68/107/170
f 69/93/171 70/108/172 67/109/173 61/94/174
f 70/108/175 69/93/176 63/96/177 65/110/178
f 65/99/179 77/98/180 78/102/181 70/101/182
f 72/105/183 71/104/184 66/111/185 64/112/186
f 69/93/187 75/92/188 76/97/189 63/96/190
f 72/105/191 75/92/192 74/95/193 62/106/194
f 76/97/195 75/92/196 72/105/197 64/112/198
f 77/98/199 76/97/200 64/112/201 66/113/202
f 78/102/203 77/98/204 66/113/205 71/114/206
f 73/103/207 78/102/208 71/114/209 68/115/210
s 4
f 79/116/211 91/117/212 102/118/213 103/119/214
s 5
f 108/120/215 109/121/216 93/122/217 83/123/218
s 6
f 84/124/219 90/125/220 105/126/221 106/127/222
s 7
f 114/128/223 85/129/224 98/130/225 113/131/226
s 8
f 84/132/227 106/133/228 107/134/229 104/135/230
s 6
f 87/136/231 94/137/232 115/138/233 116/139/234
s 5
f 89/140/235 110/141/236 111/142/237 97/143/238
s 6
f 90/125/220 87/136/231 116/139/234 105/126/221
s 5
f 93/122/217 109/121/216 110/141/236 89/140/235
s 6
f 94/137/232 85/144/239 114/145/240 115/138/233
s 4
f 100/146/241 95/147/242 80/148/243 99/149/244
s 5
f 97/143/238 111/142/237 112/150/245 86/151/246
s 7
f 113/131/226 98/130/225 86/152/247 112/153/248
s 4
f 96/154/249 100/146/241 99/149/244 82/155/250
f 88/156/251 101/157/252 100/146/241 96/154/249
f 92/158/253 102/118/213 101/157/252 88/156/251
f 103/119/214 102/118/213 92/158/253 81/159/254
s 8
f 104/135/230 107/134/229 108/160/255 83/161/256
s 6
f 106/127/222 105/126/221 91/162/257 79/163/258
s 8
f 107/134/229 106/133/228 79/116/259 103/119/260
f 108/160/255 107/134/229 103/119/260 81/159/261
s 5
f 81/159/262 92/158/263 109/121/216 108/120/215
f 110/141/236 109/121/216 92/158/263 88/156/264
f 111/142/237 110/141/236 88/156/264 96/154/265
f 112/150/245 111/142/237 96/154/265 82/155/266
s 7
f 99/149/267 113/131/226 112/153/248 82/155/268
f 80/148/269 114/128/223 113/131/226 99/149/267
s 6
f 115/138/233 114/145/240 80/164/270 95/165/271
s off
f 116/166/272 115/167/273 117/168/274 118/169/275
f 105/170/276 116/171/277 118/172/278 119/173/279
f 118/174/280 117/175/281 100/176/282 101/177/283
f 119/178/284 118/179/285 101/180/286 102/181/287
f 100/182/288 117/183/289 115/184/290 95/185/291
f 119/186/292 102/187/293 91/188/294 105/189/295
