# This file uses centimeters as units for non-parametric coordinates.

mtllib Dragon_WoodShack_COLLISION.mtl
g default
v 5.637854 8.084932 0.285501
v 7.560752 8.084932 0.285501
v 5.637854 8.084932 -0.285501
v 7.560752 8.084932 -0.285501
v 7.560752 7.605392 0.458213
v 5.637854 7.605392 0.458213
v 5.637854 7.605392 -0.458213
v 7.560752 7.605392 -0.458213
v 5.637854 7.125851 0.285501
v 7.560752 7.125851 0.285501
v 7.560752 7.125851 -0.285501
v 5.637854 7.125851 -0.285501
v -5.544180 0.000005 3.016655
v 5.636450 0.000005 3.016655
v -5.544180 8.084932 0.285501
v -5.544180 8.084932 -0.285501
v -5.544180 0.000005 -3.016655
v 5.636450 0.000005 -3.016655
v -5.544180 5.329217 3.016655
v -5.544180 5.329217 -3.016655
v 5.636450 5.329217 -3.016655
v 5.636450 5.329217 3.016655
v 5.636450 8.084932 -0.285501
v 5.636450 8.084932 0.285501
v 4.384984 8.084931 0.285501
v 4.384984 8.778529 0.285501
v 4.384984 8.084931 -0.285501
v 4.384984 8.778529 -0.285501
v 4.999558 8.778542 0.639001
v 4.999558 7.757756 0.639001
v 4.999558 7.757756 -0.639001
v 4.999558 8.778542 -0.639001
v 5.614133 8.084931 0.285501
v 5.614133 8.778529 0.285501
v 5.614133 8.778529 -0.285501
v 5.614133 8.084931 -0.285501
vt 0.375000 0.250000
vt 0.625000 0.250000
vt 0.375000 0.500000
vt 0.625000 0.500000
vt 0.875000 0.250000
vt 0.125000 0.250000
vt 0.625000 0.125000
vt 0.375000 0.125000
vt 0.125000 0.125000
vt 0.375000 0.625000
vt 0.625000 0.625000
vt 0.875000 0.125000
vt 0.375000 0.250000
vt 0.625000 0.250000
vt 0.625000 0.500000
vt 0.375000 0.500000
vt 0.375000 0.125000
vt 0.625000 0.125000
vt 0.125000 0.125000
vt 0.125000 0.250000
vt 0.625000 0.625000
vt 0.375000 0.625000
vt 0.875000 0.125000
vt 0.875000 0.250000
vt 0.375000 0.182476
vt 0.375000 0.000000
vt 0.625000 0.000000
vt 0.625000 0.182476
vt 0.375000 0.500000
vt 0.375000 0.250000
vt 1.000000 1.000000
vt 0.000000 1.000000
vt 0.375000 0.750000
vt 0.375000 0.567523
vt 0.625000 0.567523
vt 0.625000 0.750000
vt 0.375000 1.000000
vt 0.625000 1.000000
vt 0.875000 0.000000
vt 0.875000 0.182476
vt 0.125000 0.000000
vt 0.125000 0.182476
vt 0.125000 0.250000
vt 1.000000 1.000000
vt 0.000000 1.000000
vt 0.375000 0.250000
vt 0.625000 0.250000
vt 0.625000 0.500000
vt 0.375000 0.500000
vt 0.375000 0.125000
vt 0.625000 0.125000
vt 0.625000 0.625000
vt 0.375000 0.625000
vt 0.875000 0.125000
vt 0.875000 0.250000
vt 0.375000 0.250000
vt 0.375000 0.500000
vt 0.625000 0.500000
vt 0.625000 0.250000
vt 0.375000 0.125000
vt 0.625000 0.125000
vt 0.375000 0.625000
vt 0.625000 0.625000
vt 0.875000 0.250000
vt 0.875000 0.125000
vn 0.000000 1.000000 0.000000
vn 0.000000 1.000000 0.000000
vn 0.000000 1.000000 0.000000
vn 0.000000 1.000000 0.000000
vn 0.000000 0.338853 0.940839
vn 0.000000 0.338853 0.940839
vn 0.000000 0.338853 0.940839
vn 0.000000 0.338853 0.940839
vn -1.000000 -0.000000 0.000000
vn -1.000000 -0.000000 0.000000
vn -1.000000 -0.000000 0.000000
vn -1.000000 -0.000000 0.000000
vn 0.000000 0.338853 -0.940839
vn 0.000000 0.338853 -0.940839
vn 0.000000 0.338853 -0.940839
vn 0.000000 0.338853 -0.940839
vn 1.000000 0.000000 0.000000
vn 1.000000 0.000000 0.000000
vn 1.000000 0.000000 0.000000
vn 1.000000 0.000000 0.000000
vn 0.000000 -1.000000 0.000000
vn 0.000000 -1.000000 0.000000
vn 0.000000 -1.000000 0.000000
vn 0.000000 -1.000000 0.000000
vn 0.000000 -0.338852 0.940840
vn 0.000000 -0.338852 0.940840
vn 0.000000 -0.338852 0.940840
vn 0.000000 -0.338852 0.940840
vn -1.000000 0.000000 0.000000
vn -1.000000 0.000000 0.000000
vn -1.000000 0.000000 0.000000
vn -1.000000 0.000000 0.000000
vn 0.000000 -0.338852 -0.940840
vn 0.000000 -0.338852 -0.940840
vn 0.000000 -0.338852 -0.940840
vn 0.000000 -0.338852 -0.940840
vn 1.000000 0.000000 0.000000
vn 1.000000 0.000000 0.000000
vn 1.000000 0.000000 0.000000
vn 1.000000 0.000000 0.000000
vn 0.000000 0.380615 0.924734
vn 0.000000 0.000000 1.000000
vn 0.000000 0.000000 1.000000
vn 0.000000 0.380615 0.924734
vn 0.000000 1.000000 0.000000
vn 0.000000 1.000000 0.000000
vn 0.000000 1.000000 0.000000
vn 0.000000 1.000000 0.000000
vn 0.000000 0.000000 -1.000000
vn 0.000000 0.380615 -0.924734
vn 0.000000 0.380615 -0.924734
vn 0.000000 0.000000 -1.000000
vn 0.000000 -1.000000 0.000000
vn 0.000000 -1.000000 0.000000
vn 0.000000 -1.000000 0.000000
vn 0.000000 -1.000000 0.000000
vn 1.000000 0.000000 0.000000
vn 1.000000 0.000000 0.000000
vn 1.000000 0.000000 0.000000
vn 1.000000 0.000000 0.000000
vn -1.000000 0.000000 0.000000
vn -1.000000 0.000000 0.000000
vn -1.000000 -0.000000 0.000000
vn -1.000000 -0.000000 0.000000
vn -1.000000 -0.000000 0.000000
vn -1.000000 -0.000000 0.000000
vn 0.000000 0.703934 -0.710265
vn 0.000000 0.703934 -0.710265
vn 0.000000 0.703934 0.710265
vn 0.000000 0.703934 0.710265
vn 1.000000 0.000000 0.000000
vn 1.000000 0.000000 0.000000
vn -1.000000 0.000000 0.000000
vn -1.000000 0.000000 0.000000
vn -1.000000 0.000000 0.000000
vn -1.000000 0.000000 0.000000
vn -0.498597 0.000000 0.866834
vn -0.498597 0.000000 0.866834
vn -0.498597 0.000000 0.866834
vn -0.498597 0.000000 0.866834
vn -0.498597 0.000000 -0.866834
vn -0.498597 0.000000 -0.866834
vn -0.498597 0.000000 -0.866834
vn -0.498597 0.000000 -0.866834
vn -0.000020 1.000000 0.000000
vn -0.000020 1.000000 0.000000
vn -0.000020 1.000000 0.000000
vn -0.000020 1.000000 0.000000
vn 1.000000 0.000000 0.000000
vn 1.000000 0.000000 0.000000
vn 1.000000 0.000000 0.000000
vn 1.000000 0.000000 0.000000
vn 0.498597 0.000000 0.866834
vn 0.498597 0.000000 0.866834
vn 0.498597 0.000000 0.866834
vn 0.498597 0.000000 0.866834
vn 0.498597 0.000000 -0.866834
vn 0.498597 0.000000 -0.866834
vn 0.498597 0.000000 -0.866834
vn 0.498597 0.000000 -0.866834
vn 0.000020 1.000000 0.000000
vn 0.000020 1.000000 0.000000
vn 0.000020 1.000000 0.000000
vn 0.000020 1.000000 0.000000
s off
g polySurface156
usemtl initialShadingGroup
f 1/1/1 2/2/2 4/4/3 3/3/4
f 6/8/5 5/7/6 2/2/7 1/1/8
f 7/9/9 6/8/10 1/1/11 3/6/12
f 3/3/13 4/4/14 8/11/15 7/10/16
f 5/7/17 8/12/18 4/5/19 2/2/20
f 9/13/21 12/16/22 11/15/23 10/14/24
f 6/17/25 9/13/26 10/14/27 5/18/28
f 7/19/29 12/20/30 9/13/31 6/17/32
f 12/16/33 7/22/34 8/21/35 11/15/36
f 5/18/37 10/14/38 11/24/39 8/23/40
s 1
f 19/25/41 13/26/42 14/27/43 22/28/44
s off
f 16/29/45 15/30/46 24/31/47 23/32/48
s 2
f 17/33/49 20/34/50 21/35/51 18/36/52
s off
f 13/37/53 17/33/54 18/36/55 14/38/56
s 3
f 14/27/57 18/39/58 21/40/59 22/28/60
s 4
f 17/41/61 13/26/62 19/25/63 20/42/64
f 20/42/64 19/25/63 15/30/65 16/43/66
s 2
f 21/35/51 20/34/50 16/29/67 23/44/68
s 1
f 22/28/44 24/45/69 15/30/70 19/25/41
s 3
f 21/40/59 23/32/71 24/45/72 22/28/60
s off
f 25/46/73 26/47/74 28/48/75 27/49/76
f 30/50/77 29/51/78 26/47/79 25/46/80
f 27/49/81 28/48/82 32/52/83 31/53/84
f 29/51/85 32/54/86 28/55/87 26/47/88
f 33/56/89 36/57/90 35/58/91 34/59/92
f 30/60/93 33/56/94 34/59/95 29/61/96
f 36/57/97 31/62/98 32/63/99 35/58/100
f 29/61/101 34/59/102 35/64/103 32/65/104
