# This file uses centimeters as units for non-parametric coordinates.

mtllib Dragon_MarketCoverTop_COL.mtl
g default
v 2.368035 -1.505933 -2.128782
v 2.098147 -1.505933 -2.128782
v 2.368035 1.505933 -2.128782
v 2.368035 -1.505933 -1.846883
v 2.098147 -1.505933 -1.846883
v 2.368035 1.451453 -2.128782
v 2.098147 1.451453 -2.128782
v 2.368035 1.451453 -1.846883
v 2.098147 1.451453 -1.846883
v 2.098147 1.505933 -2.128782
v 2.098147 1.505933 -1.846883
v 2.368035 1.505933 -1.846883
v -2.368035 -1.505933 -2.128782
v -2.098147 -1.505933 -2.128782
v -2.368035 1.505933 -2.128782
v -2.368035 -1.505933 -1.846883
v -2.098147 -1.505933 -1.846883
v -2.368035 1.451453 -2.128782
v -2.098147 1.451453 -2.128782
v -2.368035 1.451453 -1.846883
v -2.098147 1.451453 -1.846883
v -2.098147 1.505933 -2.128782
v -2.098147 1.505933 -1.846883
v -2.368035 1.505933 -1.846883
v 2.368035 -1.505933 2.128782
v 2.098147 -1.505933 2.128782
v 2.368035 1.505933 2.128782
v 2.368035 -1.505933 1.846883
v 2.098147 -1.505933 1.846883
v 2.368035 1.451453 2.128782
v 2.098147 1.451453 2.128782
v 2.368035 1.451453 1.846883
v 2.098147 1.451453 1.846883
v 2.098147 1.505933 2.128782
v 2.098147 1.505933 1.846883
v 2.368035 1.505933 1.846883
v -2.368035 -1.505933 2.128782
v -2.098147 -1.505933 2.128782
v -2.368035 1.505933 2.128782
v -2.368035 -1.505933 1.846883
v -2.098147 -1.505933 1.846883
v -2.368035 1.451453 2.128782
v -2.098147 1.451453 2.128782
v -2.368035 1.451453 1.846883
v -2.098147 1.451453 1.846883
v -2.098147 1.505933 2.128782
v -2.098147 1.505933 1.846883
v -2.368035 1.505933 1.846883
vt 0.375000 0.000000
vt 0.625000 0.000000
vt 0.375000 0.250000
vt 0.375000 0.750000
vt 0.625000 0.750000
vt 0.375000 1.000000
vt 0.625000 1.000000
vt 0.875000 0.000000
vt 0.125000 0.000000
vt 0.375000 0.244981
vt 0.625000 0.122491
vt 0.375000 0.122491
vt 0.125000 0.122491
vt 0.375000 0.627509
vt 0.625000 0.627509
vt 0.875000 0.122491
vt 0.437500 0.244981
vt 0.437500 0.250000
vt 0.437500 0.312500
vt 0.375000 0.312500
vt 0.375000 0.309991
vt 0.453125 0.293738
vt 0.375000 0.000000
vt 0.625000 0.000000
vt 0.625000 0.122491
vt 0.375000 0.122491
vt 0.375000 0.627509
vt 0.625000 0.627509
vt 0.625000 0.750000
vt 0.375000 0.750000
vt 0.625000 1.000000
vt 0.375000 1.000000
vt 0.875000 0.000000
vt 0.875000 0.122491
vt 0.125000 0.000000
vt 0.125000 0.122491
vt 0.375000 0.244981
vt 0.437500 0.244981
vt 0.437500 0.250000
vt 0.375000 0.250000
vt 0.375000 0.312500
vt 0.375000 0.309991
vt 0.437500 0.312500
vt 0.453125 0.293738
vt 0.375000 0.000000
vt 0.375000 0.122491
vt 0.625000 0.122491
vt 0.625000 0.000000
vt 0.375000 0.627509
vt 0.375000 0.750000
vt 0.625000 0.750000
vt 0.625000 0.627509
vt 0.375000 1.000000
vt 0.625000 1.000000
vt 0.875000 0.122491
vt 0.875000 0.000000
vt 0.125000 0.000000
vt 0.125000 0.122491
vt 0.375000 0.244981
vt 0.375000 0.250000
vt 0.437500 0.250000
vt 0.437500 0.244981
vt 0.375000 0.312500
vt 0.375000 0.309991
vt 0.437500 0.312500
vt 0.453125 0.293738
vt 0.375000 0.000000
vt 0.625000 0.000000
vt 0.625000 0.122491
vt 0.375000 0.122491
vt 0.375000 0.627509
vt 0.625000 0.627509
vt 0.625000 0.750000
vt 0.375000 0.750000
vt 0.625000 1.000000
vt 0.375000 1.000000
vt 0.875000 0.000000
vt 0.875000 0.122491
vt 0.125000 0.000000
vt 0.125000 0.122491
vt 0.375000 0.244981
vt 0.437500 0.244981
vt 0.437500 0.250000
vt 0.375000 0.250000
vt 0.375000 0.312500
vt 0.375000 0.309991
vt 0.437500 0.312500
vt 0.453125 0.293738
vn 0.000000 0.000000 -1.000000
vn 0.000000 0.000000 -1.000000
vn 0.000000 0.000000 -1.000000
vn 0.000000 0.000000 -1.000000
vn 0.000000 0.000000 1.000000
vn 0.000000 0.000000 1.000000
vn 0.000000 0.000000 1.000000
vn 0.000000 0.000000 1.000000
vn 0.000000 -1.000000 0.000000
vn 0.000000 -1.000000 0.000000
vn 0.000000 -1.000000 0.000000
vn 0.000000 -1.000000 0.000000
vn -1.000000 0.000000 0.000000
vn -1.000000 0.000000 0.000000
vn -1.000000 0.000000 0.000000
vn -1.000000 0.000000 0.000000
vn 1.000000 0.000000 0.000000
vn 1.000000 0.000000 0.000000
vn 1.000000 0.000000 0.000000
vn 1.000000 0.000000 0.000000
vn 0.000000 0.000000 -1.000000
vn 0.000000 0.000000 -1.000000
vn 0.000000 0.000000 -1.000000
vn 0.000000 0.000000 -1.000000
vn 1.000000 0.000000 0.000000
vn 1.000000 0.000000 0.000000
vn 1.000000 0.000000 0.000000
vn 1.000000 0.000000 0.000000
vn 0.000000 1.000000 0.000000
vn 0.000000 1.000000 0.000000
vn 0.000000 1.000000 0.000000
vn 0.000000 1.000000 0.000000
vn 0.000000 1.000000 0.000000
vn 0.000000 1.000000 0.000000
vn 1.000000 0.000000 0.000000
vn 1.000000 0.000000 0.000000
vn 0.000000 -1.000000 0.000000
vn 0.000000 -1.000000 0.000000
vn 0.000000 -1.000000 0.000000
vn 0.000000 -1.000000 0.000000
vn 0.000000 0.000000 -1.000000
vn 0.000000 0.000000 -1.000000
vn 0.000000 0.000000 -1.000000
vn 0.000000 0.000000 -1.000000
vn 0.000000 0.000000 1.000000
vn 0.000000 0.000000 1.000000
vn 0.000000 0.000000 1.000000
vn 0.000000 0.000000 1.000000
vn 0.000000 -1.000000 0.000000
vn 0.000000 -1.000000 0.000000
vn 0.000000 -1.000000 0.000000
vn 0.000000 -1.000000 0.000000
vn 1.000000 0.000000 0.000000
vn 1.000000 0.000000 0.000000
vn 1.000000 0.000000 0.000000
vn 1.000000 0.000000 0.000000
vn -1.000000 0.000000 0.000000
vn -1.000000 0.000000 0.000000
vn -1.000000 0.000000 0.000000
vn -1.000000 0.000000 0.000000
vn 0.000000 0.000000 -1.000000
vn 0.000000 0.000000 -1.000000
vn 0.000000 0.000000 -1.000000
vn 0.000000 0.000000 -1.000000
vn -1.000000 0.000000 0.000000
vn -1.000000 0.000000 0.000000
vn -1.000000 0.000000 0.000000
vn -1.000000 0.000000 0.000000
vn 0.000000 1.000000 0.000000
vn 0.000000 1.000000 0.000000
vn 0.000000 1.000000 0.000000
vn 0.000000 1.000000 0.000000
vn 0.000000 -1.000000 0.000000
vn 0.000000 -1.000000 0.000000
vn 0.000000 -1.000000 0.000000
vn 0.000000 -1.000000 0.000000
vn 0.000000 0.000000 1.000000
vn 0.000000 0.000000 1.000000
vn 0.000000 0.000000 1.000000
vn 0.000000 0.000000 1.000000
vn 0.000000 0.000000 -1.000000
vn 0.000000 0.000000 -1.000000
vn 0.000000 0.000000 -1.000000
vn 0.000000 0.000000 -1.000000
vn 0.000000 -1.000000 0.000000
vn 0.000000 -1.000000 0.000000
vn 0.000000 -1.000000 0.000000
vn 0.000000 -1.000000 0.000000
vn -1.000000 0.000000 0.000000
vn -1.000000 0.000000 0.000000
vn -1.000000 0.000000 0.000000
vn -1.000000 0.000000 0.000000
vn 1.000000 0.000000 0.000000
vn 1.000000 0.000000 0.000000
vn 1.000000 0.000000 0.000000
vn 1.000000 0.000000 0.000000
vn 0.000000 0.000000 1.000000
vn 0.000000 0.000000 1.000000
vn 0.000000 0.000000 1.000000
vn 0.000000 0.000000 1.000000
vn 1.000000 0.000000 0.000000
vn 1.000000 0.000000 0.000000
vn 0.000000 1.000000 0.000000
vn 0.000000 1.000000 0.000000
vn 0.000000 0.000000 1.000000
vn 0.000000 0.000000 1.000000
vn 0.000000 0.000000 1.000000
vn 0.000000 0.000000 1.000000
vn 0.000000 0.000000 -1.000000
vn 0.000000 0.000000 -1.000000
vn 0.000000 0.000000 -1.000000
vn 0.000000 0.000000 -1.000000
vn 0.000000 -1.000000 0.000000
vn 0.000000 -1.000000 0.000000
vn 0.000000 -1.000000 0.000000
vn 0.000000 -1.000000 0.000000
vn 1.000000 0.000000 0.000000
vn 1.000000 0.000000 0.000000
vn 1.000000 0.000000 0.000000
vn 1.000000 0.000000 0.000000
vn -1.000000 0.000000 0.000000
vn -1.000000 0.000000 0.000000
vn -1.000000 0.000000 0.000000
vn -1.000000 0.000000 0.000000
vn 0.000000 0.000000 1.000000
vn 0.000000 0.000000 1.000000
vn 0.000000 0.000000 1.000000
vn 0.000000 0.000000 1.000000
vn -1.000000 0.000000 0.000000
vn -1.000000 0.000000 0.000000
vn -1.000000 0.000000 0.000000
vn -1.000000 0.000000 0.000000
vn 0.000000 1.000000 0.000000
vn 0.000000 1.000000 0.000000
vn 0.000000 1.000000 0.000000
vn 0.000000 1.000000 0.000000
vn 0.000000 -1.000000 0.000000
vn 0.000000 -1.000000 0.000000
vn 0.000000 -1.000000 0.000000
vn 0.000000 -1.000000 0.000000
s off
g polySurface60
usemtl initialShadingGroup
f 1/1/1 2/2/2 7/11/3 6/12/4
f 8/14/5 9/15/6 5/5/7 4/4/8
f 4/4/9 5/5/10 2/7/11 1/6/12
f 2/2/13 5/8/14 9/16/15 7/11/16
f 4/9/17 1/1/18 6/12/19 8/13/20
s 1
f 6/10/21 7/17/22 10/18/23 3/3/24
s 2
f 12/20/25 8/21/26 6/10/27 3/3/28
s 3
f 10/18/29 11/19/30 12/20/31 3/3/32
f 12/20/31 11/19/30 35/65/33 36/63/34
s 2
f 8/21/26 12/20/25 36/63/35 32/64/36
s 4
f 9/22/37 8/21/38 32/64/39 33/66/40
s off
f 13/23/41 18/26/42 19/25/43 14/24/44
f 20/27/45 16/30/46 17/29/47 21/28/48
f 16/30/49 13/32/50 14/31/51 17/29/52
f 14/24/53 19/25/54 21/34/55 17/33/56
f 16/35/57 20/36/58 18/26/59 13/23/60
s 1
f 18/37/61 15/40/62 22/39/63 19/38/64
s 5
f 24/41/65 15/40/66 18/37/67 20/42/68
s 3
f 22/39/69 15/40/70 24/41/71 23/43/72
s 4
f 7/17/73 9/22/37 21/44/74 19/38/75
s 1
f 10/18/23 7/17/22 19/38/64 22/39/63
s 3
f 11/19/30 10/18/29 22/39/69 23/43/72
s 4
f 21/44/74 9/22/37 33/66/40 45/88/76
s off
f 25/45/77 30/46/78 31/47/79 26/48/80
f 32/49/81 28/50/82 29/51/83 33/52/84
f 28/50/85 25/53/86 26/54/87 29/51/88
f 26/48/89 31/47/90 33/55/91 29/56/92
f 28/57/93 32/58/94 30/46/95 25/45/96
s 7
f 30/59/97 27/60/98 34/61/99 31/62/100
s 2
f 36/63/35 27/60/101 30/59/102 32/64/36
s 3
f 34/61/103 27/60/104 36/63/34 35/65/33
s off
f 37/67/105 38/68/106 43/69/107 42/70/108
f 44/71/109 45/72/110 41/73/111 40/74/112
f 40/74/113 41/73/114 38/75/115 37/76/116
f 38/68/117 41/77/118 45/78/119 43/69/120
f 40/79/121 37/67/122 42/70/123 44/80/124
s 7
f 42/81/125 43/82/126 46/83/127 39/84/128
s 5
f 48/85/129 44/86/130 42/81/131 39/84/132
s 3
f 46/83/133 47/87/134 48/85/135 39/84/136
s 4
f 31/62/137 43/82/138 45/88/76 33/66/40
s 7
f 34/61/99 46/83/127 43/82/126 31/62/100
s 3
f 35/65/33 47/87/134 46/83/133 34/61/103
f 23/43/72 47/87/134 35/65/33 11/19/30
f 24/41/71 48/85/135 47/87/134 23/43/72
s 5
f 20/42/68 44/86/130 48/85/129 24/41/65
s 4
f 21/44/74 45/88/76 44/86/139 20/42/140
