# This file uses centimeters as units for non-parametric coordinates.

mtllib Dragon_WoodCabin_COLLISION.mtl
g default
v -5.084108 4.124727 -4.589999
v -5.084106 -0.082087 -4.590000
v -4.574106 8.594364 0.000000
v -4.574106 3.052639 -0.823548
v -4.574106 3.052639 -2.782084
v -4.574106 -0.082087 0.000000
v -4.574106 -0.082087 -0.823548
v -4.574106 -0.082087 -2.782084
v -4.574106 -0.082087 -3.409900
v -3.896270 -0.082087 -4.590000
v -4.574104 5.275783 -3.409899
v -5.084106 -0.082087 -3.409899
v -5.084108 5.275785 -3.409899
v -3.896271 4.124727 -4.589999
v -3.896271 4.651687 -4.080002
v -3.896270 -0.082087 -4.079999
v -5.261532 -0.082087 -0.830361
v -5.261532 -0.082087 -2.788896
v -5.261532 3.052639 -2.788896
v -5.261532 3.052639 -0.830361
v -5.855291 3.052639 -2.208517
v -5.855291 3.052639 -1.427873
v -5.855291 -0.082087 -1.427873
v -5.855291 -0.082087 -2.208517
v -3.896270 -0.082087 0.000000
v -3.896270 -0.082087 -3.409900
v -4.578265 -0.082087 -4.078087
v -5.299370 8.968649 0.000000
v -5.299370 8.598442 0.000000
v -5.299370 4.302739 -4.756364
v -5.299370 3.968043 -4.756364
v 5.096112 5.275784 -3.409899
v 5.096112 4.124726 -4.589999
v 5.096110 -0.082087 -4.590000
v 5.096110 -0.082087 -3.409899
v 4.586110 8.594364 0.000000
v 4.586108 5.275782 -3.409899
v 4.586110 -0.082087 0.000000
v 4.586110 -0.082087 -3.409900
v 3.908275 4.124726 -4.589999
v 3.908274 -0.082087 -4.590000
v 3.908275 4.651687 -4.080002
v 3.908274 -0.082087 -4.079999
v 4.590269 -0.082087 -4.078087
v 3.908274 -0.082087 -3.409900
v 3.908274 -0.082087 0.000000
v 5.311374 4.302739 -4.756364
v 5.311374 3.968042 -4.756364
v 5.311374 8.598442 0.000000
v 5.311374 8.968649 0.000000
v -5.084108 5.275785 3.409899
v -5.084108 4.124727 4.590000
v -5.084106 -0.082087 4.590001
v -5.084106 -0.082087 3.409899
v -4.574104 5.275783 3.409899
v -4.574106 -0.082087 3.409900
v -3.896271 4.124727 4.590000
v -3.896270 -0.082087 4.590001
v -3.896271 4.651687 4.080002
v -3.896270 -0.082087 4.080000
v -4.578265 -0.082087 4.078087
v -3.896270 -0.082087 3.409900
v -5.299370 4.302739 4.756476
v -5.299370 3.980608 4.756476
v 5.096112 5.275784 3.409899
v 5.096110 -0.082087 3.409899
v 5.096110 -0.082087 4.590001
v 5.096112 4.124726 4.590000
v 4.586110 -0.082087 3.409900
v 4.586108 5.275782 3.409899
v 3.908274 -0.082087 4.590001
v 3.908275 4.124726 4.590000
v 3.908274 -0.082087 4.080000
v 3.908275 4.651687 4.080002
v 4.590269 -0.082087 4.078087
v 3.908274 -0.082087 3.409900
v 5.311374 4.302739 4.756476
v 5.311374 3.980608 4.756476
vt 0.497226 0.981921
vt 0.444958 0.930999
vt 0.798124 0.149178
vt 0.770073 0.229822
vt 0.702978 0.229822
vt 0.671027 0.127560
vt 0.671027 0.338762
vt 0.702978 0.338762
vt 0.798124 0.338762
vt 0.770073 0.338762
vt 0.987958 0.356918
vt 0.298652 0.981921
vt 0.309102 0.981921
vt 0.403152 0.930999
vt 0.116244 0.352392
vt 0.233831 0.352391
vt 0.233831 0.401098
vt 0.116244 0.401098
vt 0.199692 0.435839
vt 0.150985 0.435839
vt 0.116244 0.626761
vt 0.067537 0.626762
vt 0.067537 0.435839
vt 0.116244 0.435839
vt 0.150985 0.626761
vt 0.199692 0.626761
vt 0.233832 0.626761
vt 0.233831 0.435839
vt 0.282539 0.626761
vt 0.282537 0.435839
vt 1.000000 0.000000
vt 1.000000 1.000000
vt 0.816281 0.356918
vt 0.000000 0.000000
vt 0.000000 1.000000
vt 0.403152 0.709172
vt 0.444958 0.709172
vt 0.497226 0.709172
vt 0.298652 0.709172
vt 0.309102 0.709172
vt 0.827763 0.397111
vt 0.908140 0.678459
vt 0.279412 0.539252
vt 0.395710 0.303402
vt 0.395710 0.307312
vt 0.270228 0.307297
vt 0.270228 0.303402
vt 0.403292 0.303402
vt 0.497226 0.981921
vt 0.444958 0.930999
vt 0.444958 0.709172
vt 0.497226 0.709172
vt 0.671027 0.127560
vt 0.798124 0.149178
vt 0.671027 0.338762
vt 0.309102 0.709172
vt 0.309102 0.981921
vt 0.298652 0.981921
vt 0.298652 0.709172
vt 0.403152 0.930999
vt 0.403152 0.709172
vt 1.000000 0.000000
vt 1.000000 1.000000
vt 0.000000 1.000000
vt 0.000000 0.000000
vt 0.816281 0.356918
vt 0.279412 0.539252
vt 0.827763 0.397111
vt 0.908140 0.678459
vt 0.987958 0.356918
vt 0.798124 0.338762
vt 0.395710 0.303402
vt 0.395710 0.307312
vt 0.270228 0.307297
vt 0.270228 0.303402
vt 0.403292 0.303402
vt 0.497226 0.981921
vt 0.444958 0.930999
vt 0.444958 0.709172
vt 0.497226 0.709172
vt 0.671027 0.127560
vt 0.798124 0.149178
vt 0.671027 0.338762
vt 0.309102 0.709172
vt 0.309102 0.981921
vt 0.298652 0.981921
vt 0.298652 0.709172
vt 0.403152 0.930999
vt 0.403152 0.709172
vt 1.000000 0.000000
vt 1.000000 1.000000
vt 0.000000 1.000000
vt 0.000000 0.000000
vt 0.816281 0.356918
vt 0.279412 0.539252
vt 0.827763 0.397111
vt 0.908140 0.678459
vt 0.798124 0.338762
vt 0.395710 0.303402
vt 0.395710 0.307312
vt 0.270228 0.307297
vt 0.270228 0.303402
vt 0.497226 0.981921
vt 0.497226 0.709172
vt 0.444958 0.709172
vt 0.444958 0.930999
vt 0.309102 0.709172
vt 0.298652 0.709172
vt 0.298652 0.981921
vt 0.309102 0.981921
vt 0.403152 0.709172
vt 0.403152 0.930999
vt 1.000000 0.000000
vt 0.000000 0.000000
vt 0.000000 1.000000
vt 1.000000 1.000000
vt 0.279412 0.539252
vt 0.816281 0.356918
vt 0.671027 0.338762
vt 0.908140 0.678459
vt 0.827763 0.397111
vt 0.798124 0.338762
vt 0.987958 0.356918
vt 0.987958 0.356918
vt 0.395710 0.303402
vt 0.270228 0.303402
vt 0.270228 0.307297
vt 0.395710 0.307312
vt 0.403292 0.303402
vt 0.403292 0.303402
vt 0.798124 0.149178
vt 0.671027 0.127560
vn -1.000000 -0.000000 0.000000
vn -1.000000 -0.000000 0.000000
vn -1.000000 -0.000000 0.000000
vn -1.000000 -0.000000 0.000000
vn -1.000000 0.000000 -0.000000
vn -1.000000 0.000000 -0.000001
vn -1.000000 0.000000 -0.000001
vn -1.000000 0.000000 -0.000000
vn -1.000000 0.000000 0.000000
vn -1.000000 0.000000 0.000000
vn -0.000000 -0.000000 1.000000
vn -0.000000 -0.000000 1.000000
vn -0.000000 -0.000000 1.000000
vn -0.000000 -0.000000 1.000000
vn 0.000000 0.000000 -1.000000
vn 0.000000 0.000000 -1.000000
vn 0.000000 0.000000 -1.000000
vn 0.000000 0.000000 -1.000000
vn 0.000000 1.000000 0.000000
vn 0.000000 1.000000 0.000000
vn 0.000000 1.000000 0.000000
vn 0.000000 1.000000 0.000000
vn 0.000000 1.000000 0.000000
vn 0.000000 1.000000 0.000000
vn 0.000000 1.000000 0.000000
vn 0.000000 1.000000 0.000000
vn -0.009910 0.000000 0.999951
vn -0.009910 0.000000 0.999951
vn -0.009910 0.000000 0.999951
vn -0.009910 0.000000 0.999951
vn -0.709331 0.000000 0.704876
vn -0.709331 0.000000 0.704876
vn -0.709331 0.000000 0.704876
vn -0.709331 0.000000 0.704876
vn -1.000000 0.000000 0.000000
vn -1.000000 0.000000 0.000000
vn -1.000000 0.000000 0.000000
vn -1.000000 0.000000 0.000000
vn -0.699003 0.000000 -0.715119
vn -0.699003 0.000000 -0.715119
vn -0.699003 0.000000 -0.715119
vn -0.699003 0.000000 -0.715119
vn 0.009910 0.000000 -0.999951
vn 0.009910 0.000000 -0.999951
vn 0.009910 0.000000 -0.999951
vn 0.009910 0.000000 -0.999951
vn 1.000000 0.000000 -0.000000
vn 1.000000 0.000000 -0.000000
vn 1.000000 0.000000 -0.000000
vn 1.000000 0.000000 -0.000000
vn 0.000000 -1.000000 -0.000000
vn 0.000000 -1.000000 -0.000000
vn 0.000000 -1.000000 -0.000000
vn 0.000000 -1.000000 -0.000000
vn 0.000000 -1.000000 0.000000
vn 0.000000 -1.000000 0.000000
vn 0.000000 -1.000000 0.000000
vn 0.000000 -1.000000 0.000000
vn 0.000000 -1.000000 0.000000
vn 0.000000 -1.000000 0.000000
vn 0.000000 -1.000000 0.000000
vn 0.000000 -1.000000 0.000000
vn 0.000000 -1.000000 0.000000
vn 0.000000 -1.000000 0.000000
vn 0.000000 -1.000000 0.000000
vn 0.000000 -1.000000 0.000000
vn 0.000000 -1.000000 0.000000
vn 0.000000 -1.000000 0.000000
vn 0.000000 -1.000000 0.000000
vn 0.000000 -1.000000 0.000000
vn 0.000000 -1.000000 -0.000000
vn 0.000000 -1.000000 -0.000000
vn 0.000000 -1.000000 -0.000000
vn 0.000000 -1.000000 -0.000000
vn -1.000000 0.000000 -0.000001
vn -1.000000 0.000000 -0.000001
vn -1.000000 0.000000 -0.000001
vn -1.000000 0.000000 -0.000001
vn -0.000000 -1.000000 -0.000000
vn -0.000000 -1.000000 -0.000000
vn -0.000000 -1.000000 -0.000000
vn -0.000000 -1.000000 -0.000000
vn -1.000000 0.000000 0.000000
vn -1.000000 0.000000 0.000000
vn -1.000000 0.000000 0.000000
vn -1.000000 0.000000 0.000000
vn 1.000000 -0.000000 0.000000
vn 1.000000 -0.000000 0.000000
vn 1.000000 -0.000000 0.000000
vn 1.000000 -0.000000 0.000000
vn 0.000000 -0.000000 1.000000
vn 0.000000 -0.000000 1.000000
vn 0.000000 -0.000000 1.000000
vn 0.000000 -0.000000 1.000000
vn 0.000000 0.000000 -1.000000
vn 0.000000 0.000000 -1.000000
vn 0.000000 0.000000 -1.000000
vn 0.000000 0.000000 -1.000000
vn -1.000000 0.000000 -0.000000
vn -1.000000 0.000000 -0.000000
vn -1.000000 0.000000 -0.000000
vn -1.000000 0.000000 -0.000000
vn -0.000000 -1.000000 0.000000
vn -0.000000 -1.000000 0.000000
vn -0.000000 -1.000000 0.000000
vn -0.000000 -1.000000 0.000000
vn -0.000000 -1.000000 0.000000
vn -0.000000 -1.000000 0.000000
vn -0.000000 -1.000000 0.000000
vn -0.000000 -1.000000 0.000000
vn 0.000000 -1.000000 0.000000
vn 0.000000 -1.000000 0.000000
vn 0.000000 -1.000000 0.000000
vn 0.000000 -1.000000 0.000000
vn 0.000000 -1.000000 0.000000
vn 0.000000 -1.000000 0.000000
vn 0.000000 -1.000000 0.000000
vn 0.000000 -1.000000 0.000000
vn 0.000000 -0.000001 -1.000000
vn 0.000000 -0.000001 -1.000000
vn 0.000000 -0.000001 -1.000000
vn 0.000000 -0.000001 -1.000000
vn -0.000000 -1.000000 -0.000000
vn -0.000000 -1.000000 -0.000000
vn -0.000000 -1.000000 -0.000000
vn -0.000000 -1.000000 -0.000000
vn 0.000000 -1.000000 -0.000000
vn 0.000000 -1.000000 -0.000000
vn 0.000000 -1.000000 -0.000000
vn 0.000000 -1.000000 -0.000000
vn 1.000000 0.000000 0.000000
vn 1.000000 0.000000 0.000000
vn 1.000000 0.000000 0.000000
vn 1.000000 0.000000 0.000000
vn 0.000000 0.000000 -1.000000
vn 0.000000 0.000000 -1.000000
vn 0.000000 0.000000 -1.000000
vn 0.000000 0.000000 -1.000000
vn 0.000000 0.713862 -0.700286
vn 0.000000 0.713862 -0.700286
vn 0.000000 0.713862 -0.700286
vn 0.000000 0.713862 -0.700286
vn -0.000000 -0.716531 0.697555
vn -0.000000 -0.716531 0.697555
vn -0.000000 -0.716531 0.697555
vn -0.000000 -0.716531 0.697555
vn 1.000000 0.000000 -0.000000
vn 1.000000 0.000000 -0.000000
vn 1.000000 0.000000 -0.000000
vn 1.000000 0.000000 -0.000000
vn -1.000000 -0.000001 -0.000000
vn -1.000000 -0.000001 -0.000000
vn -1.000000 -0.000001 -0.000000
vn -1.000000 -0.000001 -0.000000
vn 0.000001 -0.000000 -1.000000
vn 0.000001 -0.000000 -1.000000
vn 0.000001 -0.000000 -1.000000
vn 0.000001 -0.000000 -1.000000
vn 0.000000 0.000000 1.000000
vn 0.000000 0.000000 1.000000
vn 0.000000 0.000000 1.000000
vn 0.000000 0.000000 1.000000
vn 1.000000 0.000000 0.000000
vn 1.000000 0.000000 0.000000
vn 1.000000 0.000000 0.000000
vn 1.000000 0.000000 0.000000
vn 0.000000 -1.000000 0.000000
vn 0.000000 -1.000000 0.000000
vn 0.000000 -1.000000 0.000000
vn 0.000000 -1.000000 0.000000
vn 0.000000 -1.000000 -0.000000
vn 0.000000 -1.000000 -0.000000
vn 0.000000 -1.000000 -0.000000
vn 0.000000 -1.000000 -0.000000
vn 0.000000 -1.000000 0.000000
vn 0.000000 -1.000000 0.000000
vn 0.000000 -1.000000 0.000000
vn 0.000000 -1.000000 0.000000
vn -0.000000 -1.000000 0.000000
vn -0.000000 -1.000000 0.000000
vn -0.000000 -1.000000 0.000000
vn -0.000000 -1.000000 0.000000
vn -1.000000 0.000000 0.000000
vn -1.000000 0.000000 0.000000
vn -1.000000 0.000000 0.000000
vn -1.000000 0.000000 0.000000
vn 1.000000 -0.000001 -0.000000
vn 1.000000 -0.000001 -0.000000
vn 1.000000 -0.000001 -0.000000
vn 1.000000 -0.000001 -0.000000
vn -0.000001 -0.000000 -1.000000
vn -0.000001 -0.000000 -1.000000
vn -0.000001 -0.000000 -1.000000
vn -0.000001 -0.000000 -1.000000
vn 0.000000 0.000000 1.000000
vn 0.000000 0.000000 1.000000
vn 0.000000 0.000000 1.000000
vn 0.000000 0.000000 1.000000
vn -1.000000 0.000000 0.000000
vn -1.000000 0.000000 0.000000
vn -1.000000 0.000000 0.000000
vn -1.000000 0.000000 0.000000
vn -0.000000 -1.000000 0.000000
vn -0.000000 -1.000000 0.000000
vn -0.000000 -1.000000 0.000000
vn -0.000000 -1.000000 0.000000
vn -0.000000 -1.000000 -0.000000
vn -0.000000 -1.000000 -0.000000
vn -0.000000 -1.000000 -0.000000
vn -0.000000 -1.000000 -0.000000
vn 0.000000 -1.000000 0.000000
vn 0.000000 -1.000000 0.000000
vn 0.000000 -1.000000 0.000000
vn 0.000000 -1.000000 0.000000
vn 0.000000 -1.000000 0.000000
vn 0.000000 -1.000000 0.000000
vn 0.000000 -1.000000 0.000000
vn 0.000000 -1.000000 0.000000
vn 0.000000 -0.000001 1.000000
vn 0.000000 -0.000001 1.000000
vn 0.000000 -0.000001 1.000000
vn 0.000000 -0.000001 1.000000
vn -0.000000 -1.000000 0.000000
vn -0.000000 -1.000000 0.000000
vn -0.000000 -1.000000 0.000000
vn -0.000000 -1.000000 0.000000
vn 0.000000 -1.000000 0.000000
vn 0.000000 -1.000000 0.000000
vn 0.000000 -1.000000 0.000000
vn 0.000000 -1.000000 0.000000
vn 1.000000 0.000000 0.000000
vn 1.000000 0.000000 0.000000
vn 1.000000 0.000000 0.000000
vn 1.000000 0.000000 0.000000
vn 0.000000 0.000000 1.000000
vn 0.000000 0.000000 1.000000
vn 0.000000 0.000000 1.000000
vn 0.000000 0.000000 1.000000
vn 0.000000 0.713870 0.700278
vn 0.000000 0.713870 0.700278
vn 0.000000 0.713870 0.700278
vn 0.000000 0.713870 0.700278
vn -0.000000 -0.717486 -0.696573
vn -0.000000 -0.717486 -0.696573
vn -0.000000 -0.717486 -0.696573
vn -0.000000 -0.717486 -0.696573
vn 1.000000 0.000000 0.000000
vn 1.000000 0.000000 0.000000
vn 1.000000 0.000000 0.000000
vn 1.000000 0.000000 0.000000
vn -1.000000 0.000000 0.000000
vn -1.000000 0.000000 0.000000
vn -1.000000 0.000000 0.000000
vn -1.000000 0.000000 0.000000
s off
g polySurface24
usemtl initialShadingGroup
f 13/1/1 1/2/2 2/37/3 12/38/4
s 1
f 3/6/5 11/3/6 5/4/7 4/5/8
f 7/8/9 6/7/10 3/6/5 4/5/8
s off
f 9/40/11 11/13/12 13/12/13 12/39/14
f 1/2/15 14/14/16 10/36/17 2/37/18
f 4/15/19 5/16/20 19/17/21 20/18/22
f 20/18/23 19/17/24 21/19/25 22/20/26
f 17/21/27 7/22/28 4/23/29 20/24/30
f 23/25/31 17/21/32 20/24/33 22/20/34
f 24/26/35 23/25/36 22/20/37 21/19/38
f 18/27/39 24/26/40 21/19/41 19/28/42
f 8/29/43 18/27/44 19/28/45 5/30/46
f 14/31/47 15/32/48 16/35/49 10/34/50
f 2/37/51 10/34/52 16/33/53 27/43/54
f 7/22/55 26/41/56 25/42/57 6/7/58
f 18/27/59 17/21/60 23/25/61 24/26/62
f 8/10/63 7/22/64 17/21/65 18/27/66
f 9/40/67 26/41/68 7/22/69 8/10/70
f 16/33/71 26/41/72 9/40/73 27/43/74
f 5/4/75 11/3/76 9/9/77 8/10/78
f 2/37/79 27/43/80 9/40/81 12/38/82
f 30/44/83 31/45/84 29/46/85 28/47/86
f 32/49/87 35/52/88 34/51/89 33/50/90
f 39/56/91 35/59/92 32/58/93 37/57/94
f 33/50/95 34/51/96 41/61/97 40/60/98
f 40/62/99 41/65/100 43/64/101 42/63/102
f 34/51/103 44/67/104 43/66/105 41/65/106
f 38/55/107 46/69/108 45/68/109 39/71/110
f 26/41/111 45/68/112 46/69/113 25/42/114
f 16/33/115 43/66/116 45/68/117 26/41/118
f 15/11/119 42/70/120 43/66/121 16/33/122
f 43/66/123 44/67/124 39/56/125 45/68/126
f 34/51/127 35/52/128 39/56/129 44/67/130
f 47/72/131 50/75/132 49/74/133 48/73/134
f 30/44/135 47/72/136 48/76/137 31/48/138
f 28/47/139 50/75/140 47/72/141 30/44/142
f 31/48/143 48/76/144 49/74/145 29/46/146
f 38/55/147 39/71/148 37/54/149 36/53/150
f 51/77/151 54/80/152 53/79/153 52/78/154
f 56/84/155 54/87/156 51/86/157 55/85/158
f 52/78/159 53/79/160 58/89/161 57/88/162
f 57/90/163 58/93/164 60/92/165 59/91/166
f 53/79/167 61/95/168 60/94/169 58/93/170
f 62/96/171 56/84/172 6/83/173 25/97/174
f 60/94/175 61/95/176 56/84/177 62/96/178
f 53/79/179 54/80/180 56/84/181 61/95/182
f 63/99/183 28/102/184 29/101/185 64/100/186
f 65/103/187 68/106/188 67/105/189 66/104/190
f 69/107/191 70/110/192 65/109/193 66/108/194
f 68/106/195 72/112/196 71/111/197 67/105/198
f 72/113/199 74/116/200 73/115/201 71/114/202
f 67/105/203 71/114/204 73/118/205 75/117/206
f 38/119/207 69/122/208 76/121/209 46/120/210
f 62/96/211 25/97/212 46/120/213 76/121/214
f 60/94/215 62/96/216 76/121/217 73/118/218
f 59/123/219 60/94/220 73/118/221 74/124/222
f 73/118/223 76/121/224 69/107/225 75/117/226
f 67/105/227 75/117/228 69/107/229 66/104/230
f 77/125/231 78/128/232 49/127/233 50/126/234
f 63/99/235 64/130/236 78/129/237 77/125/238
f 28/102/239 63/99/240 77/125/241 50/126/242
f 64/130/243 29/101/244 49/127/245 78/129/246
f 38/119/247 36/132/248 70/131/249 69/122/250
f 6/83/251 56/98/252 55/82/253 3/81/254
