# This file uses centimeters as units for non-parametric coordinates.

mtllib Dragon_Table_COL.mtl
g default
v -1.387672 0.409512 -0.706118
v -1.387672 0.409512 0.706119
v -1.207598 0.409512 0.706119
v -1.207598 0.409512 -0.706118
v -1.387671 -0.579333 -0.706118
v -1.387671 -0.579333 0.706119
v -1.207598 -0.579333 0.706119
v -1.207598 -0.579333 -0.706118
v -1.387672 0.579333 -0.706118
v -1.387672 0.579333 0.706119
v -1.207598 0.579333 0.706119
v -1.207598 0.579333 -0.706118
v -1.387671 -0.426737 0.706119
v -1.207598 -0.426737 0.706119
v -1.207598 -0.426737 -0.706118
v -1.387671 -0.426737 -0.706118
v -1.207598 0.409512 -0.372723
v -1.207598 -0.426737 -0.372723
v -1.207598 -0.579333 -0.372723
v -1.387671 -0.579333 -0.372723
v -1.387671 -0.426737 -0.372723
v -1.387672 0.409512 -0.372723
v -1.387672 0.579333 -0.372723
v -1.207598 0.579333 -0.372723
v -1.207598 0.409512 0.382587
v -1.207598 -0.426737 0.382587
v -1.207598 -0.579333 0.382587
v -1.387671 -0.579333 0.382587
v -1.387671 -0.426737 0.382587
v -1.387672 0.409512 0.382587
v -1.387672 0.579333 0.382587
v -1.207598 0.579333 0.382587
v -0.090037 0.409512 0.706119
v -0.090037 0.409512 0.382587
v -0.090037 0.409512 -0.372723
v -0.090037 0.409512 -0.706118
v -0.090037 0.579333 -0.706118
v -0.090037 0.579333 -0.372723
v -0.090037 0.579333 0.382587
v -0.090037 0.579333 0.706119
v -0.090037 -0.579333 -0.372723
v -0.090037 -0.579333 -0.706118
v -0.090037 -0.579333 0.706119
v -0.090037 -0.426737 0.706119
v -0.090037 -0.426737 -0.706118
v -0.090037 -0.426737 -0.372723
v -0.090037 -0.579333 0.382587
v -0.090037 -0.426737 0.382587
v 0.090037 0.409512 -0.372723
v 0.090037 0.409512 -0.706118
v 1.387672 0.579333 -0.372723
v 1.207598 0.579333 -0.372723
v 1.207598 0.579333 -0.706118
v 1.387672 0.579333 -0.706118
v 0.090037 0.579333 -0.706118
v 0.090037 0.579333 -0.372723
v 1.207598 0.409512 -0.706118
v 1.387672 0.409512 -0.706118
v 1.207598 0.579333 0.706119
v 1.387672 0.579333 0.706119
v 1.387672 0.409512 0.706119
v 1.207598 0.409512 0.706119
v 0.090037 0.579333 0.706119
v 0.090037 0.409512 0.706119
v 1.387672 0.409512 -0.372723
v 1.387671 -0.579333 -0.372723
v 1.387671 -0.579333 -0.706118
v 1.207598 -0.579333 -0.706118
v 1.207598 -0.579333 -0.372723
v 1.387671 -0.579333 0.706119
v 1.207598 -0.579333 0.706119
v 1.207598 -0.426737 0.706119
v 1.387671 -0.426737 0.706119
v 1.207598 -0.426737 -0.706118
v 1.207598 -0.426737 -0.372723
v 1.387671 -0.426737 -0.706118
v 1.387671 -0.426737 -0.372723
v 1.207598 0.409512 -0.372723
v 1.207598 0.409512 0.382587
v 1.207598 -0.426737 0.382587
v 1.207598 -0.579333 0.382587
v 1.387671 -0.579333 0.382587
v 1.387671 -0.426737 0.382587
v 1.387672 0.409512 0.382587
v 1.387672 0.579333 0.382587
v 1.207598 0.579333 0.382587
v 0.090037 0.579333 0.382587
v 0.090037 0.409512 0.382587
v 0.090037 -0.579333 -0.372723
v 0.090037 -0.579333 -0.706118
v 0.090037 -0.579333 0.706119
v 0.090037 -0.426737 0.706119
v 0.090037 -0.426737 -0.706118
v 0.090037 -0.426737 -0.372723
v 0.090037 -0.579333 0.382587
v 0.090037 -0.426737 0.382587
vt 0.500000 1.000000
vt 0.000000 1.000000
vt 0.500000 0.375000
vt 0.562500 0.375000
vt 0.562500 0.500000
vt 0.500000 0.500000
vt 0.000000 0.000000
vt 1.000000 0.000000
vt 1.000000 1.000000
vt 0.000000 1.000000
vt 0.000000 0.000000
vt 0.000000 1.000000
vt 0.000000 0.000000
vt 1.000000 0.000000
vt 1.000000 1.000000
vt 0.000000 1.000000
vt 1.000000 0.000000
vt 1.000000 1.000000
vt 0.500000 0.000000
vt 1.000000 0.000000
vt 1.000000 1.000000
vt 0.500000 1.000000
vt 0.500000 1.000000
vt 1.000000 1.000000
vt 0.000000 1.000000
vt 0.500000 1.000000
vt 0.000000 0.000000
vt 1.000000 1.000000
vt 0.781250 0.562500
vt 0.000000 0.000000
vt 0.000000 0.500000
vt 0.500000 0.500000
vt 0.750000 0.812500
vt 0.000000 0.000000
vt 0.000000 0.000000
vt 0.500000 0.500000
vt 1.000000 0.500000
vt 0.750000 1.000000
vt 0.500000 0.000000
vt 0.750000 0.000000
vt 0.750000 0.500000
vt 0.750000 1.000000
vt 0.250000 1.000000
vt 0.250000 0.500000
vt 0.250000 0.000000
vt 0.500000 0.000000
vt 0.250000 0.000000
vt 0.250000 1.000000
vt 0.500000 0.312500
vt 0.562500 0.312500
vt 1.000000 1.000000
vt 1.000000 0.500000
vt 0.000000 1.000000
vt 0.000000 0.500000
vt 0.000000 0.000000
vt 0.000000 1.000000
vt 0.500000 0.250000
vt 0.562500 0.250000
vt 1.000000 1.000000
vt 0.500000 1.000000
vt 0.750000 1.000000
vt 0.500000 1.000000
vt 0.500000 1.000000
vt 0.000000 1.000000
vt 0.500000 0.000000
vt 0.562500 0.500000
vt 0.562500 0.375000
vt 0.562500 0.312500
vt 0.562500 0.250000
vt 0.500000 0.000000
vt 0.500000 1.000000
vt 1.000000 1.000000
vt 0.000000 0.000000
vt 0.000000 0.000000
vt 0.750000 0.812500
vt 0.500000 0.500000
vt 1.000000 0.500000
vt 0.250000 1.000000
vt 0.250000 0.500000
vt 0.250000 0.000000
vt 0.500000 0.000000
vt 0.000000 1.000000
vt 0.000000 0.500000
vt 0.500000 1.000000
vt 0.500000 1.000000
vt 0.000000 1.000000
vt 0.500000 0.375000
vt 0.562500 0.375000
vt 0.562500 0.500000
vt 0.500000 0.500000
vt 0.562500 0.500000
vt 0.562500 0.375000
vt 0.000000 0.000000
vt 1.000000 0.000000
vt 1.000000 1.000000
vt 0.000000 1.000000
vt 0.500000 0.000000
vt 0.500000 1.000000
vt 0.000000 0.000000
vt 1.000000 0.000000
vt 1.000000 1.000000
vt 0.000000 1.000000
vt 0.500000 0.000000
vt 0.500000 1.000000
vt 0.500000 0.000000
vt 1.000000 0.000000
vt 1.000000 1.000000
vt 0.500000 1.000000
vt 0.500000 1.000000
vt 1.000000 1.000000
vt 0.000000 1.000000
vt 0.500000 1.000000
vt 0.000000 0.000000
vt 1.000000 1.000000
vt 0.781250 0.562500
vt 0.000000 0.000000
vt 0.000000 0.500000
vt 0.500000 0.500000
vt 0.750000 0.812500
vt 0.000000 0.000000
vt 0.000000 0.000000
vt 0.500000 0.500000
vt 1.000000 0.500000
vt 0.500000 0.000000
vt 0.750000 0.000000
vt 0.750000 0.500000
vt 0.750000 1.000000
vt 0.250000 1.000000
vt 0.250000 0.500000
vt 0.250000 0.000000
vt 0.500000 0.000000
vt 0.250000 0.000000
vt 0.250000 1.000000
vt 0.500000 0.312500
vt 0.562500 0.312500
vt 0.562500 0.312500
vt 1.000000 1.000000
vt 0.750000 1.000000
vt 1.000000 0.500000
vt 0.000000 1.000000
vt 0.000000 0.500000
vt 0.000000 0.000000
vt 0.000000 1.000000
vt 0.500000 0.250000
vt 0.562500 0.250000
vt 0.562500 0.250000
vt 0.000000 1.000000
vt 0.750000 1.000000
vt 1.000000 1.000000
vt 0.500000 1.000000
vt 0.000000 0.000000
vt 0.000000 1.000000
vt 1.000000 0.000000
vt 1.000000 1.000000
vt 0.500000 1.000000
vt 1.000000 1.000000
vt 0.000000 0.000000
vt 0.000000 0.000000
vt 0.750000 0.812500
vt 0.500000 0.500000
vt 1.000000 0.500000
vt 0.250000 1.000000
vt 0.250000 0.500000
vt 0.250000 0.000000
vt 0.500000 0.000000
vt 0.000000 1.000000
vt 0.000000 0.500000
vt 0.500000 1.000000
vn 0.000000 -1.000000 -0.000000
vn 0.000000 -1.000000 -0.000000
vn 0.000000 -1.000000 -0.000000
vn 0.000000 -1.000000 -0.000000
vn 0.000000 1.000000 0.000000
vn 0.000000 1.000000 0.000000
vn 0.000000 1.000000 0.000000
vn 0.000000 1.000000 0.000000
vn 0.000000 1.000000 0.000000
vn 0.000000 1.000000 0.000000
vn 0.000000 1.000000 0.000000
vn 0.000000 1.000000 0.000000
vn 0.000000 0.000000 -1.000000
vn 0.000000 0.000000 -1.000000
vn 0.000000 0.000000 -1.000000
vn 0.000000 0.000000 -1.000000
vn 0.000000 0.000000 -1.000000
vn 0.000000 0.000000 -1.000000
vn 0.000000 0.000000 -1.000000
vn 0.000000 0.000000 -1.000000
vn 0.000000 0.000000 1.000000
vn 0.000000 0.000000 1.000000
vn 0.000000 0.000000 1.000000
vn 0.000000 0.000000 1.000000
vn -1.000000 0.000000 0.000000
vn -1.000000 0.000000 0.000000
vn -1.000000 0.000000 0.000000
vn -1.000000 0.000000 0.000000
vn 0.000000 -1.000000 0.000000
vn 0.000000 -1.000000 0.000000
vn 0.000000 -1.000000 0.000000
vn 0.000000 -1.000000 0.000000
vn 0.000000 0.000000 1.000000
vn 0.000000 0.000000 1.000000
vn 0.000000 0.000000 1.000000
vn 0.000000 0.000000 1.000000
vn 1.000000 0.000002 0.000000
vn 1.000000 0.000002 0.000000
vn 1.000000 0.000002 0.000000
vn 1.000000 0.000002 0.000000
vn 0.000000 0.000000 -1.000000
vn 0.000000 0.000000 -1.000000
vn 0.000000 0.000000 -1.000000
vn 0.000000 0.000000 -1.000000
vn -1.000000 -0.000002 0.000000
vn -1.000000 -0.000002 0.000000
vn -1.000000 -0.000002 0.000000
vn -1.000000 -0.000002 0.000000
vn 1.000000 0.000000 0.000000
vn 1.000000 0.000000 0.000000
vn 1.000000 0.000002 0.000000
vn 1.000000 0.000002 0.000000
vn 0.000000 -1.000000 0.000000
vn 0.000000 -1.000000 0.000000
vn -1.000000 -0.000002 -0.000000
vn -1.000000 -0.000002 -0.000000
vn -1.000000 -0.000000 -0.000000
vn -1.000000 -0.000000 -0.000000
vn -1.000000 0.000000 0.000000
vn -1.000000 0.000000 0.000000
vn 0.000000 1.000000 0.000000
vn 0.000000 1.000000 0.000000
vn 0.000000 1.000000 0.000000
vn 0.000000 1.000000 0.000000
vn 0.000000 -1.000000 0.000000
vn 0.000000 -1.000000 0.000000
vn 0.000000 -1.000000 0.000000
vn 0.000000 -1.000000 0.000000
vn 1.000000 0.000002 0.000000
vn 1.000000 0.000002 0.000000
vn 0.000000 -1.000000 0.000000
vn 0.000000 -1.000000 0.000000
vn -1.000000 -0.000002 0.000000
vn -1.000000 -0.000002 0.000000
vn -1.000000 0.000000 0.000000
vn -1.000000 0.000000 0.000000
vn 0.000000 1.000000 0.000000
vn 0.000000 1.000000 0.000000
vn 0.000000 1.000000 0.000000
vn 0.000000 1.000000 0.000000
vn 0.000000 -1.000000 0.000000
vn 0.000000 -1.000000 0.000000
vn 0.000000 -1.000000 0.000000
vn 0.000000 -1.000000 0.000000
vn 0.000000 0.000000 1.000000
vn 0.000000 0.000000 1.000000
vn 0.000000 0.000000 1.000000
vn 0.000000 0.000000 1.000000
vn 0.000000 0.000000 -1.000000
vn 0.000000 0.000000 -1.000000
vn 0.000000 0.000000 -1.000000
vn 0.000000 0.000000 -1.000000
vn 0.000000 1.000000 -0.000000
vn 0.000000 1.000000 -0.000000
vn 0.000000 1.000000 -0.000000
vn 0.000000 1.000000 -0.000000
vn 0.000000 1.000000 0.000000
vn 0.000000 1.000000 0.000000
vn 0.000000 1.000000 0.000000
vn 0.000000 1.000000 0.000000
vn 0.000000 -1.000000 0.000000
vn 0.000000 -1.000000 0.000000
vn 0.000000 -1.000000 0.000000
vn 0.000000 -1.000000 0.000000
vn 0.000000 -1.000000 0.000000
vn 0.000000 -1.000000 0.000000
vn 0.000000 -1.000000 0.000000
vn 0.000000 -1.000000 0.000000
vn 0.000000 0.000000 -1.000000
vn 0.000000 0.000000 -1.000000
vn 0.000000 0.000000 1.000000
vn 0.000000 0.000000 1.000000
vn 0.000000 0.000000 1.000000
vn 0.000000 0.000000 1.000000
vn -0.000000 -1.000000 -0.000000
vn -0.000000 -1.000000 -0.000000
vn -0.000000 -1.000000 -0.000000
vn -0.000000 -1.000000 -0.000000
vn -0.000000 0.000000 1.000000
vn -0.000000 0.000000 1.000000
vn -0.000000 0.000000 1.000000
vn -0.000000 0.000000 1.000000
vn -0.000000 0.000000 -1.000000
vn -0.000000 0.000000 -1.000000
vn -0.000000 0.000000 -1.000000
vn -0.000000 0.000000 -1.000000
vn -1.000000 -0.000002 -0.000000
vn -1.000000 -0.000003 -0.000000
vn -1.000000 -0.000003 -0.000000
vn -1.000000 -0.000002 -0.000000
vn -0.000000 -1.000000 0.000000
vn -0.000000 -1.000000 0.000000
vn -1.000000 -0.000002 0.000000
vn -1.000000 -0.000002 0.000000
vn -1.000000 -0.000000 0.000000
vn -1.000000 -0.000000 0.000000
vn -0.000000 -1.000000 0.000000
vn -0.000000 -1.000000 0.000000
vn -1.000000 -0.000003 0.000000
vn -1.000000 -0.000003 0.000000
vn 0.000000 0.000000 1.000000
vn 0.000000 0.000000 1.000000
vn 0.000000 0.000000 1.000000
vn 0.000000 0.000000 1.000000
vn 0.000000 0.000000 -1.000000
vn 0.000000 0.000000 -1.000000
vn 0.000000 0.000000 -1.000000
vn 0.000000 0.000000 -1.000000
vn 0.000000 1.000000 0.000000
vn 0.000000 1.000000 0.000000
vn 0.000000 1.000000 0.000000
vn 0.000000 1.000000 0.000000
vn 0.000000 1.000000 0.000000
vn 0.000000 1.000000 0.000000
vn 0.000000 1.000000 0.000000
vn 0.000000 1.000000 0.000000
vn 0.000000 1.000000 0.000000
vn 0.000000 1.000000 0.000000
vn 0.000000 1.000000 0.000000
vn 0.000000 1.000000 0.000000
vn 0.000000 0.000000 -1.000000
vn 0.000000 0.000000 -1.000000
vn 0.000000 0.000000 -1.000000
vn 0.000000 0.000000 -1.000000
vn 0.000000 0.000000 1.000000
vn 0.000000 0.000000 1.000000
vn 0.000000 0.000000 1.000000
vn 0.000000 0.000000 1.000000
vn 0.000000 0.000000 1.000000
vn 0.000000 0.000000 1.000000
vn 1.000000 0.000000 0.000000
vn 1.000000 0.000000 0.000000
vn 1.000000 0.000000 0.000000
vn 1.000000 0.000000 0.000000
vn 0.000000 -1.000000 0.000000
vn 0.000000 -1.000000 0.000000
vn 0.000000 -1.000000 0.000000
vn 0.000000 -1.000000 0.000000
vn 0.000000 0.000000 1.000000
vn 0.000000 0.000000 1.000000
vn 0.000000 0.000000 1.000000
vn 0.000000 0.000000 1.000000
vn -1.000000 0.000002 0.000000
vn -1.000000 0.000002 0.000000
vn -1.000000 0.000002 0.000000
vn -1.000000 0.000002 0.000000
vn 0.000000 0.000000 -1.000000
vn 0.000000 0.000000 -1.000000
vn 0.000000 0.000000 -1.000000
vn 0.000000 0.000000 -1.000000
vn 1.000000 -0.000002 0.000000
vn 1.000000 -0.000002 0.000000
vn 1.000000 -0.000002 0.000000
vn 1.000000 -0.000002 0.000000
vn -1.000000 0.000002 0.000000
vn -1.000000 0.000000 0.000000
vn -1.000000 0.000000 0.000000
vn -1.000000 0.000002 0.000000
vn 0.000000 -1.000000 0.000000
vn 0.000000 -1.000000 0.000000
vn 1.000000 -0.000002 0.000000
vn 1.000000 -0.000002 0.000000
vn 1.000000 -0.000000 0.000000
vn 1.000000 -0.000000 0.000000
vn 1.000000 0.000000 0.000000
vn 1.000000 0.000000 0.000000
vn 0.000000 1.000000 0.000000
vn 0.000000 1.000000 0.000000
vn -1.000000 0.000002 0.000000
vn -1.000000 0.000002 0.000000
vn 0.000000 -1.000000 0.000000
vn 0.000000 -1.000000 0.000000
vn 1.000000 -0.000002 0.000000
vn 1.000000 -0.000002 0.000000
vn 1.000000 0.000000 0.000000
vn 1.000000 0.000000 0.000000
vn 0.000000 1.000000 0.000000
vn 0.000000 1.000000 0.000000
vn 0.000000 -1.000000 0.000000
vn 0.000000 -1.000000 0.000000
vn 0.000000 -1.000000 0.000000
vn 0.000000 -1.000000 0.000000
vn 0.000000 0.000000 1.000000
vn 0.000000 0.000000 1.000000
vn 0.000000 0.000000 1.000000
vn 0.000000 0.000000 1.000000
vn 0.000000 0.000000 -1.000000
vn 0.000000 0.000000 -1.000000
vn 0.000000 0.000000 -1.000000
vn 0.000000 0.000000 -1.000000
vn 0.000000 1.000000 0.000000
vn 0.000000 1.000000 0.000000
vn 0.000000 1.000000 0.000000
vn 0.000000 1.000000 0.000000
vn 0.000000 1.000000 0.000000
vn 0.000000 1.000000 0.000000
vn 0.000000 1.000000 0.000000
vn 0.000000 1.000000 0.000000
vn 0.000000 -1.000000 0.000000
vn 0.000000 -1.000000 0.000000
vn 0.000000 -1.000000 0.000000
vn 0.000000 -1.000000 0.000000
vn 0.000000 -1.000000 0.000000
vn 0.000000 -1.000000 0.000000
vn 0.000000 -1.000000 -0.000000
vn 0.000000 -1.000000 -0.000000
vn 0.000000 0.000000 -1.000000
vn 0.000000 0.000000 -1.000000
vn 0.000000 0.000000 1.000000
vn 0.000000 0.000000 1.000000
vn 1.000000 -0.000002 0.000000
vn 1.000000 -0.000002 0.000000
vn 1.000000 -0.000002 0.000000
vn 1.000000 -0.000002 0.000000
vn 1.000000 -0.000002 0.000000
vn 1.000000 -0.000002 0.000000
vn 1.000000 -0.000000 0.000000
vn 1.000000 -0.000000 0.000000
vn 1.000000 -0.000002 0.000000
vn 1.000000 -0.000002 0.000000
s 1
g polySurface81
usemtl initialShadingGroup
f 35/62/1 36/64/2 50/86/3 49/85/4
s 2
f 23/3/5 24/4/6 12/5/7 9/6/8
f 37/66/9 38/67/10 56/92/11 55/91/12
s off
f 9/7/13 12/8/14 4/9/15 1/10/16
s 3
f 36/63/17 37/65/18 55/97/19 50/98/20
s off
f 11/13/21 10/14/22 2/15/23 3/16/24
s 4
f 23/19/25 9/20/26 1/21/27 22/22/28
s 5
f 20/23/29 5/24/30 8/25/31 19/26/32
s off
f 6/27/33 7/28/34 14/29/35 13/30/36
s 6
f 15/31/37 18/32/38 19/26/39 8/25/40
s off
f 5/24/41 16/33/42 15/34/43 8/35/44
s 7
f 21/36/45 16/37/46 5/24/47 20/23/48
s 6
f 18/32/38 17/39/49 25/40/50 26/41/51
f 19/26/39 18/32/38 26/41/51 27/42/52
s 5
f 28/43/53 20/23/29 19/26/32 27/42/54
s 7
f 29/44/55 21/36/45 20/23/48 28/43/56
f 30/45/57 22/46/58 21/36/45 29/44/55
s 4
f 31/47/59 23/19/25 22/22/28 30/48/60
s 2
f 31/49/61 32/50/62 24/4/6 23/3/5
f 38/67/10 39/68/63 87/136/64 56/92/11
s 1
f 33/59/65 34/61/66 88/138/67 64/137/68
s 6
f 27/42/52 26/41/51 14/52/69 7/28/70
s 5
f 6/53/71 28/43/53 27/42/54 7/28/72
s 7
f 13/54/73 29/44/55 28/43/56 6/53/74
s 4
f 10/55/75 31/47/59 30/48/60 2/56/76
s 2
f 10/57/77 11/58/78 32/50/62 31/49/61
f 39/68/63 40/69/79 63/146/80 87/136/64
s off
f 22/22/81 1/10/82 4/2/83 17/39/84
f 25/38/85 30/45/86 29/44/87 26/41/88
f 22/22/89 17/39/90 18/32/91 21/36/92
f 21/36/93 18/32/94 15/34/95 16/37/96
f 26/41/97 29/44/98 13/30/99 14/52/100
f 25/38/101 3/16/102 2/56/103 30/45/104
s 1
f 34/61/66 33/59/65 3/51/105 25/38/106
f 35/62/1 34/61/66 25/38/106 17/1/107
f 36/64/2 35/62/1 17/1/107 4/2/108
s 3
f 12/11/109 37/65/18 36/63/17 4/12/110
s 2
f 38/67/10 37/66/9 12/5/7 24/4/6
f 39/68/63 38/67/10 24/4/6 32/50/62
f 40/69/79 39/68/63 32/50/62 11/58/78
s 9
f 33/60/111 40/70/112 11/17/113 3/18/114
s 10
f 41/71/115 42/72/116 90/156/117 89/155/118
s off
f 44/74/119 43/73/120 91/157/121 92/158/122
f 42/72/123 45/75/124 93/159/125 90/156/126
s 11
f 46/76/127 45/77/128 42/72/129 41/71/130
s 10
f 47/78/131 41/71/115 89/155/118 95/162/132
s 11
f 48/79/133 46/76/127 41/71/130 47/78/134
f 34/80/135 35/81/136 46/76/127 48/79/133
s 10
f 43/82/137 47/78/131 95/162/132 91/166/138
s 11
f 44/83/139 48/79/133 47/78/134 43/82/140
s off
f 34/80/141 48/79/142 96/163/143 88/164/144
f 46/76/145 35/84/146 49/168/147 94/160/148
f 45/77/149 46/76/150 94/160/151 93/161/152
f 48/79/153 44/74/154 92/158/155 96/163/156
s 2
f 51/87/157 54/90/158 53/89/159 52/88/160
s off
f 54/93/161 58/96/162 57/95/163 53/94/164
f 59/99/165 62/102/166 61/101/167 60/100/168
s 9
f 33/60/111 64/104/169 63/103/170 40/70/112
s 12
f 51/105/171 65/108/172 58/107/173 54/106/174
s 13
f 66/109/175 69/112/176 68/111/177 67/110/178
s off
f 70/113/179 73/116/180 72/115/181 71/114/182
s 14
f 74/117/183 68/111/184 69/112/185 75/118/186
s off
f 67/110/187 68/121/188 74/120/189 76/119/190
s 15
f 77/122/191 66/109/192 67/110/193 76/123/194
s 14
f 75/118/186 80/126/195 79/125/196 78/124/197
f 69/112/185 81/127/198 80/126/195 75/118/186
s 13
f 82/128/199 81/127/200 69/112/176 66/109/175
s 15
f 83/129/201 82/128/202 66/109/192 77/122/191
f 84/130/203 83/129/201 77/122/191 65/131/204
s 12
f 85/132/205 84/133/206 65/108/172 51/105/171
s 2
f 85/134/207 51/87/157 52/88/160 86/135/208
s 14
f 81/127/198 71/114/209 72/139/210 80/126/195
s 13
f 70/140/211 71/114/212 81/127/200 82/128/199
s 15
f 73/141/213 70/140/214 82/128/202 83/129/201
s 12
f 60/142/215 61/143/216 84/133/206 85/132/205
s 2
f 60/144/217 85/134/207 86/135/208 59/145/218
s off
f 65/108/219 78/124/220 57/147/221 58/96/222
f 79/148/223 80/126/224 83/129/225 84/130/226
f 65/108/227 77/122/228 75/118/229 78/124/230
f 77/122/231 76/123/232 74/120/233 75/118/234
f 80/126/235 72/139/236 73/116/237 83/129/238
f 79/148/239 84/130/240 61/143/241 62/102/242
s 1
f 88/138/67 79/148/243 62/149/244 64/137/68
f 49/85/4 78/150/245 79/148/243 88/138/67
f 50/86/3 57/147/246 78/150/245 49/85/4
s 3
f 53/151/247 57/152/248 50/98/20 55/97/19
s 2
f 56/92/11 52/88/160 53/89/159 55/91/12
f 87/136/64 86/135/208 52/88/160 56/92/11
f 63/146/80 59/145/218 86/135/208 87/136/64
s 9
f 64/104/169 62/154/249 59/153/250 63/103/170
s 16
f 94/160/251 89/155/252 90/156/253 93/161/254
f 96/163/255 95/162/256 89/155/252 94/160/251
f 88/164/257 96/163/255 94/160/251 49/165/258
f 92/167/259 91/166/260 95/162/256 96/163/255
