# This file uses centimeters as units for non-parametric coordinates.

mtllib Dragon_WoodCabin_COLLISION.mtl
g default
v -5.097350 0.000000 4.595651
v 5.097350 0.000000 4.595651
v -5.097350 8.976477 0.142551
v 5.097350 8.976477 0.142551
v -5.097350 8.976477 -0.142551
v 5.097350 8.976477 -0.142551
v -5.097350 0.000000 -4.595651
v 5.097350 0.000000 -4.595651
v 5.097350 4.540751 -4.595651
v -5.097350 4.540751 -4.595651
v -5.097350 4.540751 4.595651
v 5.097350 4.540751 4.595651
vt 0.375000 0.000000
vt 0.625000 0.000000
vt 0.375000 0.250000
vt 0.625000 0.250000
vt 0.375000 0.500000
vt 0.625000 0.500000
vt 0.375000 0.750000
vt 0.625000 0.750000
vt 0.375000 1.000000
vt 0.625000 1.000000
vt 0.875000 0.000000
vt 0.875000 0.250000
vt 0.125000 0.000000
vt 0.125000 0.250000
vt 0.625000 0.625000
vt 0.875000 0.125000
vt 0.125000 0.125000
vt 0.375000 0.625000
vt 0.375000 0.125000
vt 0.625000 0.125000
vn 0.000000 0.383586 0.923505
vn 0.000000 0.383586 0.923505
vn 0.000000 0.708488 0.705723
vn 0.000000 0.708488 0.705723
vn 0.000000 1.000000 0.000000
vn 0.000000 1.000000 0.000000
vn 0.000000 1.000000 0.000000
vn 0.000000 1.000000 0.000000
vn 0.000000 0.708488 -0.705723
vn 0.000000 0.708488 -0.705723
vn 0.000000 0.383586 -0.923505
vn 0.000000 0.383586 -0.923505
vn 0.000000 -1.000000 0.000000
vn 0.000000 -1.000000 0.000000
vn 0.000000 -1.000000 0.000000
vn 0.000000 -1.000000 0.000000
vn 1.000000 0.000000 0.000000
vn 1.000000 0.000000 0.000000
vn 1.000000 0.000000 0.000000
vn 1.000000 0.000000 0.000000
vn -1.000000 0.000000 0.000000
vn -1.000000 0.000000 0.000000
vn -1.000000 0.000000 0.000000
vn -1.000000 0.000000 0.000000
vn 0.000000 0.000000 -1.000000
vn 0.000000 0.000000 -1.000000
vn -1.000000 0.000000 0.000000
vn -1.000000 0.000000 0.000000
vn 0.000000 0.000000 1.000000
vn 0.000000 0.000000 1.000000
vn 1.000000 0.000000 0.000000
vn 1.000000 0.000000 0.000000
s 1
g pCube1
usemtl initialShadingGroup
f 11/19/1 12/20/2 4/4/3 3/3/4
s off
f 3/3/5 4/4/6 6/6/7 5/5/8
s 2
f 5/5/9 6/6/10 9/15/11 10/18/12
s off
f 7/7/13 8/8/14 2/10/15 1/9/16
s 3
f 12/20/17 9/16/18 6/12/19 4/4/20
s 4
f 10/17/21 11/19/22 3/3/23 5/14/24
s 2
f 10/18/12 9/15/11 8/8/25 7/7/26
s 4
f 7/13/27 1/1/28 11/19/22 10/17/21
s 1
f 1/1/29 2/2/30 12/20/2 11/19/1
s 3
f 2/2/31 8/11/32 9/16/18 12/20/17
