# This file uses centimeters as units for non-parametric coordinates.

v -2.758607 -0.801204 1.049249
v 2.565208 -0.801204 0.644177
v -2.758607 0.533208 1.264089
v 2.565208 0.497984 1.049249
v -2.758607 0.533208 -1.267090
v 2.565208 0.497984 -1.052251
v -2.758607 -0.801204 -1.052251
v 2.565208 -0.801204 -0.647178
v -4.331270 0.814496 0.005263
v -3.585823 -0.801204 0.005263
v 2.565208 -0.801204 0.005263
v 2.565207 0.497984 0.005263
v -2.535554 0.547840 1.113578
v 1.377670 0.516805 0.924288
v 1.377670 0.516805 0.004459
v -3.921186 0.795675 0.004459
v 1.377670 0.516805 -0.927290
v -2.535554 0.547840 -1.116579
v -2.554998 -0.088380 1.049144
v 1.358225 -0.119414 0.859854
v 1.358231 -0.119451 0.004093
v -3.940626 0.159419 0.004093
v 1.358236 -0.119488 -0.863587
v -2.554988 -0.088454 -1.052877
vt 0.375000 0.000000
vt 0.625000 0.000000
vt 0.375000 0.250000
vt 0.625000 0.250000
vt 0.375000 0.500000
vt 0.625000 0.500000
vt 0.375000 0.750000
vt 0.625000 0.750000
vt 0.375000 1.000000
vt 0.625000 1.000000
vt 0.875000 0.000000
vt 0.875000 0.250000
vt 0.125000 0.000000
vt 0.125000 0.250000
vt 0.250805 0.250000
vt 0.375000 0.374195
vt 0.250805 0.000000
vt 0.375000 0.875805
vt 0.625000 0.875805
vt 0.749195 0.000000
vt 0.625000 0.374195
vt 0.749195 0.250000
vt 0.375000 0.250000
vt 0.625000 0.250000
vt 0.625000 0.374195
vt 0.375000 0.374195
vt 0.625000 0.500000
vt 0.375000 0.500000
vt 0.375000 0.250000
vt 0.625000 0.250000
vt 0.625000 0.374195
vt 0.375000 0.374195
vt 0.625000 0.500000
vt 0.375000 0.500000
vn 0.055827 -0.228767 0.971879
vn 0.055827 -0.228767 0.971879
vn 0.055827 -0.228767 0.971879
vn 0.055827 -0.228767 0.971879
vn 0.035568 0.993980 0.103632
vn 0.035568 0.993980 0.103632
vn 0.035748 0.999361 0.000592
vn 0.035748 0.999361 0.000592
vn 0.055827 -0.228767 -0.971879
vn 0.055827 -0.228767 -0.971879
vn 0.055827 -0.228767 -0.971879
vn 0.055827 -0.228767 -0.971879
vn 0.000000 -1.000000 -0.000000
vn 0.000000 -1.000000 -0.000000
vn 0.000000 -1.000000 -0.000000
vn 0.000000 -1.000000 -0.000000
vn 1.000000 0.000000 -0.000000
vn 1.000000 0.000000 -0.000000
vn 1.000000 0.000000 -0.000000
vn 1.000000 0.000000 -0.000000
vn -0.950958 -0.309308 0.002828
vn -0.688296 -0.224165 0.689927
vn -0.688296 -0.224165 0.689927
vn -0.950958 -0.309308 0.002828
vn -0.692167 -0.224844 -0.685821
vn -0.692167 -0.224844 -0.685821
vn 0.000000 -1.000000 0.000000
vn 0.000000 -1.000000 0.000000
vn 1.000000 0.000000 0.000000
vn 1.000000 0.000000 0.000000
vn 0.035548 0.994102 -0.102455
vn 0.035548 0.994102 -0.102455
vn 0.010789 0.996472 0.083232
vn 0.010789 0.996472 0.083232
vn 0.010789 0.996472 0.083232
vn 0.010789 0.996472 0.083232
vn 0.015847 0.999874 0.000000
vn 0.015847 0.999874 0.000000
vn 0.015847 0.999874 0.000000
vn 0.015847 0.999874 0.000000
vn 0.045551 0.985523 0.163311
vn 0.045551 0.985523 0.163311
vn 0.045551 0.985523 0.163311
vn 0.045551 0.985523 0.163311
vn 0.015847 0.999874 0.000000
vn 0.015847 0.999874 0.000000
vn 0.015847 0.999874 0.000000
vn 0.015847 0.999874 0.000000
vn 0.010789 0.996472 -0.083232
vn 0.010789 0.996472 -0.083232
vn 0.010789 0.996472 -0.083232
vn 0.010789 0.996472 -0.083232
vn 0.044920 0.985703 -0.162394
vn 0.044920 0.985703 -0.162394
vn 0.044920 0.985703 -0.162394
vn 0.044920 0.985703 -0.162394
vn -0.047255 0.102078 -0.993653
vn -0.047255 0.102078 -0.993653
vn -0.047255 0.102078 -0.993653
vn -0.047255 0.102078 -0.993653
vn -0.999533 0.030544 -0.000003
vn -0.999534 0.030539 -0.000004
vn -0.999534 0.030539 -0.000004
vn -0.999533 0.030544 -0.000003
vn 0.615949 0.021281 -0.787499
vn 0.615949 0.021281 -0.787499
vn 0.615949 0.021281 -0.787499
vn 0.615949 0.021281 -0.787499
vn -0.999534 0.030533 -0.000004
vn -0.999534 0.030533 -0.000004
vn -0.047270 0.100935 0.993770
vn -0.047270 0.100935 0.993770
vn -0.047270 0.100935 0.993770
vn -0.047270 0.100935 0.993770
vn 0.620018 0.020097 0.784330
vn 0.620018 0.020097 0.784330
vn 0.620018 0.020097 0.784330
vn 0.620018 0.020097 0.784330
f 1/1/1 2/2/2 4/4/3 3/3/4
f 19/29/5 20/30/6 21/31/7 22/32/8
f 5/5/9 6/6/10 8/8/11 7/7/12
f 10/18/13 11/19/14 2/10/15 1/9/16
f 2/2/17 11/20/18 12/22/19 4/4/20
f 10/17/21 1/1/22 3/3/23 9/15/24
f 7/13/25 10/17/21 9/15/24 5/14/26
f 7/7/27 8/8/28 11/19/14 10/18/13
f 12/22/19 11/20/18 8/11/29 6/12/30
f 22/32/8 21/31/7 23/33/31 24/34/32
f 3/3/33 4/4/34 14/24/35 13/23/36
f 4/4/37 12/21/38 15/25/39 14/24/40
f 9/16/41 3/3/42 13/23/43 16/26/44
f 12/21/45 6/6/46 17/27/47 15/25/48
f 6/6/49 5/5/50 18/28/51 17/27/52
f 5/5/53 9/16/54 16/26/55 18/28/56
f 13/23/57 14/24/58 20/30/59 19/29/60
f 14/24/61 15/25/62 21/31/63 20/30/64
f 16/26/65 13/23/66 19/29/67 22/32/68
f 15/25/62 17/27/69 23/33/70 21/31/63
f 17/27/71 18/28/72 24/34/73 23/33/74
f 18/28/75 16/26/76 22/32/77 24/34/78
